<?xml version="1.0" encoding="UTF-8"?>
<svg width="19px" height="27px" viewBox="0 0 19 27" version="1.1" xmlns="http://www.w3.org/2000/svg" xmlns:xlink="http://www.w3.org/1999/xlink">
    <!-- Generator: sketchtool 49 (51002) - http://www.bohemiancoding.com/sketch -->
    <title>74E7F786-BE4C-4C4A-86A7-0D911341792B</title>
    <desc>Created with sketchtool.</desc>
    <defs></defs>
    <g id="customer-page-(corrected-design)" stroke="none" stroke-width="1" fill="none" fill-rule="evenodd">
        <g id="Customer-Page" transform="translate(-301.000000, -2437.000000)">
            <g id="6.groups" transform="translate(249.000000, 2344.000000)">
                <g id="g-birth" transform="translate(33.000000, 74.000000)">
                    <g id="Group-25">
                        <g id="ic-birth" transform="translate(17.000000, 19.000000)">
                            <polygon id="Shape" points="0 0 23 0 23 27 0 27"></polygon>
                            <path d="M11.4951471,7.77272727 C12.5676291,7.77272727 13.4362909,6.74754545 13.4362909,5.48181818 C13.4362909,5.05227273 13.3343809,4.64563636 13.159678,4.302 L11.4951471,0.9 L9.83061632,4.302 C9.65591338,4.64563636 9.55400333,5.05227273 9.55400333,5.48181818 C9.55400333,6.74754545 10.4226652,7.77272727 11.4951471,7.77272727 Z M15.954925,19.2100909 L14.9115602,17.9787273 L13.8633426,19.2100909 C12.5967463,20.7049091 10.3838423,20.7049091 9.11724597,19.2100909 L8.07388118,17.9787273 L7.02566352,19.2100909 C6.39964464,19.9603636 5.56009994,20.3727273 4.66232093,20.3727273 C3.9586563,20.3727273 3.30352027,20.1092727 2.76,19.6682727 L2.76,24.9545455 C2.76,25.5845455 3.19675736,26.1 3.7305719,26.1 L19.2597224,26.1 C19.7935369,26.1 20.2302943,25.5845455 20.2302943,24.9545455 L20.2302943,19.6682727 C19.686774,20.1092727 19.0364908,20.3727273 18.3279733,20.3727273 C17.4301943,20.3727273 16.5906496,19.9603636 15.954925,19.2100909 Z M17.3185786,11.2090909 L12.465719,11.2090909 L12.465719,8.91818182 L10.5245752,8.91818182 L10.5245752,11.2090909 L5.67171571,11.2090909 C4.06541921,11.2090909 2.76,12.7497273 2.76,14.6454545 L2.76,16.4094545 C2.76,17.6465455 3.61410328,18.6545455 4.66232093,18.6545455 C5.17187118,18.6545455 5.64745142,18.4197273 6.00656302,17.9959091 L8.0835869,15.5503636 L10.1557579,17.9901818 C10.8739811,18.8378182 12.1260189,18.8378182 12.8442421,17.9901818 L14.921266,15.5503636 L16.993437,17.9901818 C17.3525486,18.414 17.8281288,18.6488182 18.3376791,18.6488182 C19.3858967,18.6488182 20.24,17.6408182 20.24,16.4037273 L20.24,14.6454545 C20.2302943,12.7497273 18.9248751,11.2090909 17.3185786,11.2090909 Z" id="Shape" fill="#D1C7E7" fill-rule="nonzero"></path>
                        </g>
                    </g>
                </g>
            </g>
        </g>
    </g>
</svg>