<?xml version="1.0" encoding="UTF-8"?>
<svg width="23px" height="18px" viewBox="0 0 23 18" version="1.1" xmlns="http://www.w3.org/2000/svg" xmlns:xlink="http://www.w3.org/1999/xlink">
    <!-- Generator: sketchtool 49 (51002) - http://www.bohemiancoding.com/sketch -->
    <title>22F59851-F209-4CE9-B1D7-856FEF745119</title>
    <desc>Created with sketchtool.</desc>
    <defs></defs>
    <g id="customer-page-(corrected-design)" stroke="none" stroke-width="1" fill="none" fill-rule="evenodd">
        <g id="Customer-Page" transform="translate(-515.000000, -2445.000000)" fill="#D1C7E7" fill-rule="nonzero">
            <g id="6.groups" transform="translate(249.000000, 2344.000000)">
                <g id="g-debitores" transform="translate(243.000000, 73.000000)">
                    <g id="Group-26" transform="translate(5.000000, 0.000000)">
                        <path d="M28.35,42.625 L30.65,42.625 L30.65,41.5 L31.8,41.5 C32.4325,41.5 32.95,40.99375 32.95,40.375 L32.95,37 C32.95,36.38125 32.4325,35.875 31.8,35.875 L28.35,35.875 L28.35,34.75 L32.95,34.75 L32.95,32.5 L30.65,32.5 L30.65,31.375 L28.35,31.375 L28.35,32.5 L27.2,32.5 C26.5675,32.5 26.05,33.00625 26.05,33.625 L26.05,37 C26.05,37.61875 26.5675,38.125 27.2,38.125 L30.65,38.125 L30.65,39.25 L26.05,39.25 L26.05,41.5 L28.35,41.5 L28.35,42.625 Z M38.7,28 L20.3,28 C19.02925,28 18.0115,29.006875 18.0115,30.25 L18,43.75 C18,44.993125 19.02925,46 20.3,46 L38.7,46 C39.97075,46 41,44.993125 41,43.75 L41,30.25 C41,29.006875 39.97075,28 38.7,28 Z M38.7,43.75 L20.3,43.75 L20.3,30.25 L38.7,30.25 L38.7,43.75 Z" id="ic-debitores"></path>
                    </g>
                </g>
            </g>
        </g>
    </g>
</svg>