<?xml version="1.0" encoding="UTF-8"?>
<svg width="19px" height="19px" viewBox="0 0 19 19" version="1.1" xmlns="http://www.w3.org/2000/svg" xmlns:xlink="http://www.w3.org/1999/xlink">
    <!-- Generator: sketchtool 49 (51002) - http://www.bohemiancoding.com/sketch -->
    <title>CD0C026B-A3D0-4396-BD2E-B8A0D3D4A1CD</title>
    <desc>Created with sketchtool.</desc>
    <defs></defs>
    <g id="customer-page-(corrected-design)" stroke="none" stroke-width="1" fill="none" fill-rule="evenodd">
        <g id="Customer-Page" transform="translate(-409.000000, -2444.000000)" fill="#D1C7E7" fill-rule="nonzero">
            <g id="6.groups" transform="translate(249.000000, 2344.000000)">
                <g id="g-vip" transform="translate(140.000000, 74.000000)">
                    <g id="Group-24">
                        <g id="ic-vip" transform="translate(20.000000, 26.000000)">
                            <path d="M4.30302977,18.2393928 C4.09886137,18.2393928 3.96274911,18.1677243 3.82663684,18.0960558 C3.55441231,17.8810504 3.41830005,17.5227079 3.48635618,17.0926969 L4.30302977,12.0759022 C4.30302977,12.0042337 4.30302977,11.8608967 4.1669175,11.7892282 L0.696054743,8.27747187 C0.423830213,7.99079789 0.287717948,7.63245541 0.423830213,7.27411292 C0.559942478,6.91577044 0.832167008,6.70076496 1.2405038,6.62909646 L6.07248921,5.9124115 C6.14054535,5.9124115 6.27665761,5.840743 6.34471374,5.69740601 L8.45445385,1.18229075 C8.52250999,0.608942779 8.86279065,0.393937291 9.20307131,0.393937291 C9.54335197,0.393937291 9.88363264,0.608942779 10.0197449,0.96728526 L12.1975411,5.55406902 C12.2655973,5.62573751 12.3336534,5.69740601 12.4697657,5.69740601 L17.233695,6.41409097 C17.6420317,6.48575947 17.9142563,6.70076496 18.0503685,7.05910744 C18.1864808,7.41744992 18.0503685,7.7757924 17.778144,8.06246638 L14.3072813,11.6458912 C14.2392251,11.7175597 14.2392251,11.8608967 14.2392251,11.9325652 L15.0558987,16.9493599 C15.1239548,17.3793709 14.9878426,17.7377134 14.715618,17.9527189 C14.4433935,18.1677243 14.0350567,18.1677243 13.6947761,17.9527189 L9.40723971,15.5876585 C9.33918358,15.5876585 9.20307131,15.5876585 9.06695905,15.5876585 L4.7794227,17.9527189 C4.5752543,18.1677243 4.43914203,18.2393928 4.30302977,18.2393928 Z" id="Combined-Shape"></path>
                        </g>
                    </g>
                </g>
            </g>
        </g>
    </g>
</svg>