<svg xmlns="http://www.w3.org/2000/svg" width="13" height="13" fill="none" viewBox="0 0 13 13">
    <path fill="#ff358c" d="M.582 9.993c-.776 0-.776-1.165 0-1.165.68 0 1.164-.485 1.164-1.164v-2.91A4.761 4.761 0 0 1 6.5 0a4.761 4.761 0 0 1 4.754 4.754v2.91c0 .68.485 1.164 1.164 1.164.776 0 .776 1.165 0 1.165H.582zm9.508-2.426v-2.91c0-1.94-1.553-3.59-3.59-3.59a3.581 3.581 0 0 0-3.59 3.59v2.91c0 .388-.097.873-.29 1.164h7.76c-.193-.29-.29-.679-.29-1.164zM6.5 12.903c.68 0 1.261-.291 1.552-.873.194-.388-.097-.873-.485-.873H5.53c-.485 0-.776.485-.485.873.194.582.776.873 1.455.873z"/>
</svg>
