<svg xmlns="http://www.w3.org/2000/svg" width="86" height="86" viewBox="0 0 86 86">
    <defs>
        <style>
            .cls-1{fill:#fff}.cls-2{fill:#071828}.cls-3{filter:url(#btn)}
        </style>
        <filter id="btn" width="86" height="86" x="0" y="0" filterUnits="userSpaceOnUse">
            <feOffset dy="8"/>
            <feGaussianBlur result="blur" stdDeviation="6"/>
            <feFlood flood-color="#2929cc" flood-opacity=".161"/>
            <feComposite in2="blur" operator="in"/>
            <feComposite in="SourceGraphic"/>
        </filter>
    </defs>
    <g id="btn_right" transform="translate(-998 -892)">
        <g class="cls-3" transform="translate(998 892)">
            <circle id="btn-2" cx="25" cy="25" r="25" class="cls-1" data-name="btn" transform="translate(18 10)"/>
        </g>
        <g id="ic_arrow_right" transform="translate(995.031 918)">
            <g id="Group_4267" data-name="Group 4267" transform="translate(40.968 -.001)">
                <path id="Path_12982" d="M42.007 18a1.032 1.032 0 0 1-.734-.306 1.045 1.045 0 0 1 0-1.474L48.463 9l-7.19-7.221A1.04 1.04 0 0 1 42.741.3l7.924 7.957a1.045 1.045 0 0 1 0 1.474l-7.924 7.958a1.03 1.03 0 0 1-.734.311z" class="cls-2" data-name="Path 12982" transform="translate(-40.968 .001)"/>
            </g>
        </g>
    </g>
</svg>
