<svg xmlns="http://www.w3.org/2000/svg" width="6" height="12" fill="none" viewBox="0 0 6 12">
    <path fill="#000" d="M3.615 5.521V2.49c.347.112.65.318.862.596.187.246.568.315.851.153.284-.163.362-.494.175-.74-.441-.582-1.122-.978-1.888-1.117V.534C3.615.239 3.339 0 3 0c-.34 0-.615.239-.615.534v.846C1.025 1.627 0 2.676 0 3.93c0 1.253 1.025 2.303 2.385 2.55v3.03a1.748 1.748 0 0 1-.862-.596c-.187-.246-.568-.315-.851-.152-.284.162-.362.493-.175.739.441.582 1.122.978 1.888 1.117v.848c0 .295.276.534.615.534.34 0 .615-.239.615-.534v-.846C4.975 10.373 6 9.324 6 8.07c0-1.253-1.025-2.303-2.385-2.549zM1.229 3.93c0-.66.483-1.223 1.156-1.44v2.88c-.673-.218-1.156-.78-1.156-1.44zm2.386 5.58V6.63c.673.218 1.156.78 1.156 1.44 0 .66-.483 1.223-1.156 1.44z"/>
</svg>
