<svg xmlns="http://www.w3.org/2000/svg" width="20" height="20" viewBox="0 0 20 20">
    <g fill="#BFAFE0" fill-rule="nonzero">
        <path d="M.486 3.343v6.071c.003.757.306 1.481.843 2.015L8.57 18.67a2.857 2.857 0 0 0 4.043 0l6.057-6.057a2.857 2.857 0 0 0 0-4.043L11.43 1.33A2.857 2.857 0 0 0 9.414.486H3.343A2.857 2.857 0 0 0 .486 3.343zm1.428 0c0-.79.64-1.429 1.429-1.429h6.071c.377.006.737.16 1 .429l7.243 7.243a1.429 1.429 0 0 1 0 2.014L11.6 17.657a1.429 1.429 0 0 1-2.014 0l-7.243-7.243a1.429 1.429 0 0 1-.429-1V3.343z"/>
        <path d="M2.857 5.714a2.857 2.857 0 1 0 5.714 0 2.857 2.857 0 0 0-5.714 0zm1.429 0a1.429 1.429 0 1 1 2.857 0 1.429 1.429 0 0 1-2.857 0z"/>
    </g>
</svg>
