<svg xmlns="http://www.w3.org/2000/svg" width="17.999" height="17.999" viewBox="0 0 17.999 17.999">
    <defs>
        <linearGradient id="linear-gradient" x1=".5" x2=".5" y2="1" gradientUnits="objectBoundingBox">
            <stop offset="0" stop-color="#fff" stop-opacity=".549"/>
            <stop offset="1" stop-color="#fff"/>
        </linearGradient>
    </defs>
    <g id="icon_gift" data-name="icon gift" transform="translate(-3 -3)">
        <path id="icon_gift-2" fill="url(#linear-gradient)" d="M-11778.181-8791v-5.73h6.541v4.822a.92.92 0 0 1-.921.908zm-7.261 0a.92.92 0 0 1-.92-.908v-4.822h6.541v5.73zm7.261-7.36v-6.55h-1.64v6.55h-7.28c-.5 0-.9-.589-.9-1.308v-3.932c0-.719.4-1.311.9-1.311h1.84a2.845 2.845 0 0 1-.29-1.228 2.871 2.871 0 0 1 2.87-2.861 4.209 4.209 0 0 1 3.68 2.571 4.215 4.215 0 0 1 3.681-2.571 2.868 2.868 0 0 1 2.869 2.861 2.776 2.776 0 0 1-.289 1.228h1.84c.5 0 .9.592.9 1.311v3.932c0 .719-.4 1.308-.9 1.308zm2.86-9c-1.4 0-2.189 1.449-2.58 2.449h2.58a1.223 1.223 0 0 0 1.156-.577 1.224 1.224 0 0 0 0-1.293 1.231 1.231 0 0 0-1.047-.584 1.025 1.025 0 0 0-.108.005zm-8.518.579a1.229 1.229 0 0 0 0 1.293 1.226 1.226 0 0 0 1.157.577h2.582c-.393-1.009-1.183-2.449-2.582-2.449a1.036 1.036 0 0 0-.109 0 1.232 1.232 0 0 0-1.047.579z" data-name="icon gift" transform="translate(11791 8812)"/>
    </g>
</svg>
