<svg xmlns="http://www.w3.org/2000/svg" width="18" height="18" viewBox="0 0 18 18">
    <defs>
        <linearGradient id="linear-gradient" x1=".5" x2=".5" y2="1" gradientUnits="objectBoundingBox">
            <stop offset="0" stop-color="#f0a"/>
            <stop offset="1" stop-color="#b91d73"/>
        </linearGradient>
    </defs>
    <g id="icon_gift" data-name="icon gift" transform="translate(-2.998 -3)">
        <path id="icon_gift-2" fill="url(#linear-gradient)" d="M-18134.18-92v-5.728h6.539v4.818a.918.918 0 0 1-.92.911zm-7.258 0a.918.918 0 0 1-.92-.911v-4.818h6.539V-92zm7.258-7.359v-6.553h-1.639v6.553h-7.281c-.5 0-.9-.592-.9-1.311v-3.93c0-.719.4-1.311.9-1.311h1.84a2.879 2.879 0 0 1-.293-1.229 2.874 2.874 0 0 1 2.875-2.86 4.208 4.208 0 0 1 3.678 2.568 4.206 4.206 0 0 1 3.68-2.568 2.869 2.869 0 0 1 2.869 2.86 2.79 2.79 0 0 1-.287 1.229h1.84c.5 0 .9.592.9 1.311v3.93c0 .719-.4 1.311-.9 1.311zm2.859-9c-1.4 0-2.189 1.453-2.582 2.45h2.582a1.231 1.231 0 0 0 1.156-.578 1.225 1.225 0 0 0 0-1.293 1.231 1.231 0 0 0-1.047-.583c-.036-.002-.071-.001-.108.002zm-8.52.578a1.242 1.242 0 0 0 0 1.293 1.241 1.241 0 0 0 1.162.578h2.576c-.387-1.011-1.18-2.45-2.576-2.45h-.109a1.239 1.239 0 0 0-1.052.578z" data-name="icon gift" transform="translate(18147 113)"/>
    </g>
</svg>
