<svg xmlns="http://www.w3.org/2000/svg" width="24" height="24" viewBox="0 0 24 24">
    <g>
        <path fill="#fff" d="M1.816 23.8a2.919 2.919 0 0 1-1.57-3.732l3.1-8.089L.2 3.89a2.921 2.921 0 0 1 .073-2.3A2.917 2.917 0 0 1 1.9.13a2.761 2.761 0 0 1 2.127.188L22.426 9.4a2.9 2.9 0 0 1 0 5.159l-18.4 9.152A2.783 2.783 0 0 1 2.805 24a2.781 2.781 0 0 1-.989-.2zm.567-2.843a.5.5 0 0 0 0 .379.41.41 0 0 0 .262.234.394.394 0 0 0 .336 0l16.842-8.38-14.415-.018zM2.515 2.4a.469.469 0 0 0-.132.525l3.025 7.84h14.43L2.994 2.4a.392.392 0 0 0-.48 0z"/>
    </g>
</svg>
