<svg xmlns="http://www.w3.org/2000/svg" width="9" height="10" viewBox="0 0 9 10">
    <path fill="#BFAFE0" fill-rule="nonzero" d="M0 3.077v6.108c0 .448.338.815.75.815h7.5c.412 0 .75-.367.75-.815V3.077H0zM6.75 5.52c0 .338-.126.643-.33.864L5.359 7.536a.426.426 0 0 0-.11.289v.139H6.75v.814H4.5v-.953c0-.313.11-.626.33-.864l1.06-1.153A.424.424 0 0 0 6 5.52c0-.225-.168-.407-.375-.407s-.375.182-.375.407H4.5c0-.674.504-1.221 1.125-1.221S6.75 4.846 6.75 5.52zM8.25.461c.412 0 .75.416.75.924v.923H0v-.923C0 .877.338.46.75.46h1.125V0h.75v.461h3.75V0h.75v.461H8.25zm-4.5 8.317H3V5.113h-.75V4.3h1.5v4.48z"/>
</svg>
