<svg xmlns="http://www.w3.org/2000/svg" xmlns:xlink="http://www.w3.org/1999/xlink" width="60" height="60" viewBox="0 0 60 60">
    <defs>
        <rect id="a" width="60" height="60" rx="11.25"/>
    </defs>
    <g fill="none" fill-rule="evenodd">
        <g>
            <use fill="#FFF" xlink:href="#a"/>
            <rect width="58" height="58" x="1" y="1" stroke="#B3A2D8" stroke-width="2" rx="11.25"/>
        </g>
        <g stroke="#B3A2D8" stroke-width="1.6">
            <path d="M17.63 49h25.74L49 29.571v-1.619H21.652v1.62L18.435 49h-1.609L12 29.571v-1.619h3.217M32.109 27.952v-4.047h6.434v4.047"/>
            <path d="M39.33 32.81l.822-3.239v-1.619H30.5v1.62l-.821 3.238zM18.435 23.905h6.435v4.047M17.63 32.81h-2.413V20.734M36.935 18.238H15.217V15H43.37v10.524M36.13 18.238h1.61M39.348 18.238h1.609"/>
            <path d="M20.848 36.048h-5.63v-17.81h3.217"/>
        </g>
    </g>
</svg>
