<svg xmlns="http://www.w3.org/2000/svg" xmlns:xlink="http://www.w3.org/1999/xlink" width="60" height="60" viewBox="0 0 60 60">
    <defs>
        <rect id="a" width="60" height="60" rx="11.25"/>
    </defs>
    <g fill="none" fill-rule="evenodd">
        <use fill="#FFF" xlink:href="#a"/>
        <rect width="58" height="58" x="1" y="1" stroke="#B3A2D8" stroke-width="2" rx="11.25"/>
        <g fill="#B3A2D8" fill-rule="nonzero">
            <path d="M35.4 49.2H15c-.48 0-.8-.32-.8-.8 0-.48.32-.8.8-.8h20.4c1.12 0 2-.88 2-2v-26c0-.48.32-.8.8-.8.48 0 .8.32.8.8v26c0 2-1.6 3.6-3.6 3.6z"/>
            <path d="M14.6 49.2c-2 0-3.6-1.6-3.6-3.6v-2h4c.48 0 .8.32.8.8 0 .48-.32.8-.8.8h-2.4v.4c0 1.12.88 2 2 2s2-.88 2-2V16.4c0-.48.32-.8.8-.8.48 0 .8.32.8.8v29.2c0 2-1.6 3.6-3.6 3.6z"/>
            <path d="M46.2 17.2H26.76c-.48 0-.8-.32-.8-.8v-.48c-.16-1.04-.64-2-1.52-2.64-.72-.56-1.52-.8-2.32-.88-.88 0-1.68.32-2.32.88-.8.64-1.36 1.6-1.52 2.64v.48c0 .48-.32.8-.8.8-.48 0-.8-.32-.8-.8v-.64c.16-1.52.88-2.8 2.08-3.76.72-.56 1.44-.88 2.32-1.12.08-.08.16-.08.24-.08.24 0 .48-.08.8 0h19.36c1.52 0 2.88.56 4 1.68.96 1.04 1.52 2.4 1.52 3.92 0 .48-.32.8-.8.8zm-18.72-1.6h17.84c-.16-.8-.56-1.44-1.12-2-.72-.8-1.76-1.2-2.8-1.2h-.48H25.88c.88.88 1.44 2 1.6 3.2zM29.4 45.2c-1.36 0-2.4-1.04-2.4-2.4v-1.6c0-.48-.32-.8-.8-.8-.48 0-.8.32-.8.8v1.6h-1.6v-1.6c0-1.36 1.04-2.4 2.4-2.4 1.36 0 2.4 1.04 2.4 2.4v1.6c0 .48.32.8.8.8.48 0 .8-.32.8-.8v-1.6h3.2v1.6h-1.6c0 1.36-1.04 2.4-2.4 2.4zM43 47.12l-.56-.56c-1.2-1.2-1.84-2.8-1.84-4.4V24.4 24c.24-1.28 1.44-2.16 2.8-2 1.2.24 2 1.28 2 2.48v.72h-1.6v-.72c0-.4-.32-.8-.72-.88-.4-.08-.8.24-.88.64v17.92c0 .96.32 1.84.8 2.64.48-.8.8-1.68.8-2.64V33.2h1.6v8.96c0 1.68-.64 3.28-1.84 4.4l-.56.56z"/>
            <path d="M41.4 38.8h3.2v1.6h-3.2zM45.4 31.6h-1.6v-4h-2.4V26h4z"/>
            <g>
                <path d="M31 21.2h3.2v1.6H31zM21.4 24.4h12.8V26H21.4zM21.4 27.6h12.8v1.6H21.4zM21.4 30.8h12.8v1.6H21.4zM21.4 34h8v1.6h-8z"/>
            </g>
            <path d="M42.182 45.854l1.6-.03.034 1.76-1.6.03z"/>
        </g>
    </g>
</svg>
