<svg xmlns="http://www.w3.org/2000/svg" xmlns:xlink="http://www.w3.org/1999/xlink" width="60" height="60" viewBox="0 0 60 60">
    <defs>
        <rect id="a" width="60" height="60" rx="11.25"/>
    </defs>
    <g fill="none" fill-rule="evenodd">
        <g>
            <use fill="#FFF" xlink:href="#a"/>
            <rect width="58" height="58" x="1" y="1" stroke="#B3A2D8" stroke-width="2" rx="11.25"/>
        </g>
        <g stroke="#B3A2D8" stroke-width="1.6">
            <path stroke-linecap="round" d="M19.708 43.37v-2.988c0-2.59-1.654-5.095-3.298-7.074v-2.004l1.077-.365c.538-.182.902-.694.902-1.271v-3.056a3.376 3.376 0 0 0-1.215-2.598 3.263 3.263 0 0 0-2.749-.687c-1.567.365-2.666 1.797-2.633 3.43 0 .78.227 1.542.653 2.191l.013.02c.426.65.653 1.412.653 2.192v2.155a6.708 6.708 0 0 0-1.313 3.989l-.006 11.693M48.208 48.997l-.006-11.693c0-1.44-.461-2.84-1.313-3.989V31.16c0-.78.227-1.543.653-2.192l.013-.02a3.996 3.996 0 0 0 .653-2.192c.033-1.632-1.066-3.064-2.633-3.43a3.263 3.263 0 0 0-2.75.688 3.376 3.376 0 0 0-1.214 2.598v3.056c0 .577.363 1.089.902 1.271l1.077.365v2.004c-1.644 1.98-3.298 4.255-3.298 6.844v2.413M44.25 42.565h-8.708"/>
            <path stroke-linecap="round" stroke-linejoin="round" d="M36.333 45.783l-3.166-9.653H25.25l3.167 9.653h16.625v1.608L43.458 49H16.542l-1.584-1.609v-1.608h11.084"/>
            <path stroke-linecap="round" d="M27.625 12H12.583a.798.798 0 0 0-.791.804v8.178M48.208 21.652v-8.848a.798.798 0 0 0-.791-.804H30v14.478h-6.3l-2.408 3.218M38.708 29.696l-2.375-3.218h-3.958"/>
            <path d="M34.75 19.24h1.583M37.917 19.24H39.5M41.083 19.24h1.584M17.333 19.24h1.584M20.5 19.24h1.583M23.667 19.24h1.583"/>
        </g>
    </g>
</svg>
