<svg xmlns="http://www.w3.org/2000/svg" xmlns:xlink="http://www.w3.org/1999/xlink" width="60" height="60" viewBox="0 0 60 60">
    <defs>
        <rect id="a" width="60" height="60" rx="11.25"/>
    </defs>
    <g fill="none" fill-rule="evenodd">
        <g>
            <use fill="#FFF" xlink:href="#a"/>
            <rect width="58" height="58" x="1" y="1" stroke="#B3A2D8" stroke-width="2" rx="11.25"/>
        </g>
        <g stroke="#B3A2D8" stroke-width="1.6">
            <path d="M22.705 20.49v9.297-9.136c0-.89-.637-1.698-1.591-1.698-.875 0-1.67.647-1.67 1.617v-.808.808c0-.89-.717-1.617-1.592-1.617-.875 0-1.59.728-1.59 1.617V33.75v-4.77c0-1.375-1.035-2.426-2.387-2.426H13v7.277c0 1.617.557 3.153 1.511 4.447l2.228 2.991c.238.243.397.566.397.97V50M25.807 29.787l.08-7.519M27.318 50v-8.085-.162a24.952 24.952 0 0 0 1.591-8.732v-8.085"/>
            <path d="M22.625 36.255c0-1.778-1.432-3.234-3.182-3.234h-4.057M30.5 13.94l-.557-.566a4.461 4.461 0 0 0-6.363 0c-1.75 1.78-1.75 4.69 0 6.469l6.92 7.034 6.92-7.034c1.75-1.78 1.75-4.69 0-6.469a4.461 4.461 0 0 0-6.363 0l-.557.566z"/>
            <g>
                <path d="M38.375 20.49v9.297-9.136c0-.89.636-1.698 1.59-1.698.876 0 1.671.647 1.671 1.617v-.808.808c0-.89.716-1.617 1.591-1.617s1.591.728 1.591 1.617V33.75v-4.77c0-1.375 1.034-2.426 2.387-2.426H48v7.277c0 1.617-.557 3.153-1.511 4.447l-2.228 2.991a1.35 1.35 0 0 0-.397.97V50M35.273 29.787l-.08-7.519M33.761 50v-8.085-.162a24.952 24.952 0 0 1-1.59-8.732v-8.085"/>
                <path d="M38.455 36.255c0-1.778 1.431-3.234 3.181-3.234h3.978"/>
            </g>
            <path d="M19.443 20.57v9.217M41.636 20.57v9.136"/>
        </g>
    </g>
</svg>
