<svg xmlns="http://www.w3.org/2000/svg" width="38" height="38" viewBox="0 0 38 38">
    <g fill="none" fill-rule="evenodd">
        <circle cx="19" cy="19" r="18" stroke="#FF358C" stroke-width="2"/>
        <path fill="#FF358C" fill-rule="nonzero" d="M15.733 18.748a2.871 2.871 0 0 1 0 1.504l4.414 3.281a2.936 2.936 0 0 1 3.814-.048 2.874 2.874 0 0 1 .601 3.733 2.93 2.93 0 0 1-3.64 1.132 2.884 2.884 0 0 1-1.656-3.406l-4.413-3.282a2.935 2.935 0 0 1-4.04-.158 2.873 2.873 0 0 1 0-4.008 2.935 2.935 0 0 1 4.04-.158l4.413-3.281a2.884 2.884 0 0 1 1.657-3.406 2.93 2.93 0 0 1 3.64 1.131 2.874 2.874 0 0 1-.602 3.734 2.936 2.936 0 0 1-3.814-.049l-4.413 3.28v.001zm6.35-4.205c.69 0 1.25-.554 1.25-1.239 0-.684-.56-1.239-1.25-1.239s-1.25.555-1.25 1.24c0 .684.56 1.238 1.25 1.238zm0 12.392c.69 0 1.25-.555 1.25-1.24 0-.684-.56-1.238-1.25-1.238s-1.25.554-1.25 1.239c0 .684.56 1.239 1.25 1.239zm-9.166-6.196c.69 0 1.25-.555 1.25-1.239s-.56-1.24-1.25-1.24-1.25.556-1.25 1.24c0 .684.56 1.24 1.25 1.24z"/>
    </g>
</svg>
