<svg xmlns="http://www.w3.org/2000/svg" width="13" height="13" viewBox="0 0 13 13">
    <g fill="#BFAFE0" fill-rule="nonzero">
        <path d="M6.5 0C2.91 0 0 2.668 0 5.958c0 1.292.453 2.483 1.215 3.46L.041 12.25a.542.542 0 0 0 .708.708l3.456-1.432c.714.248 1.486.39 2.295.39 3.59 0 6.5-2.67 6.5-5.959C13 2.668 10.09 0 6.5 0zm0 10.833a5.92 5.92 0 0 1-1.94-.33l-.39-.134-2.628 1.088.916-2.208-.39-.498c-.644-.826-.985-1.792-.985-2.793 0-2.688 2.43-4.875 5.417-4.875 2.987 0 5.417 2.187 5.417 4.875s-2.43 4.875-5.417 4.875z"/>
        <path d="M9.208 7.545a3.831 3.831 0 0 1-5.416 0l.766-.766a2.75 2.75 0 0 0 3.884 0l.766.766z"/>
        <circle cx="4.604" cy="4.604" r="1"/>
        <circle cx="8.396" cy="4.604" r="1"/>
    </g>
</svg>
