<svg xmlns="http://www.w3.org/2000/svg" width="30" height="24" viewBox="0 0 30 24">
    <g id="prefix__ic__arrow_right" data-name="ic_ arrow_right" transform="translate(-3 -4.586)">
        <path id="prefix__ic__arrow_right-2" fill="#5333ed" d="M17.156 23.5a1.748 1.748 0 0 1 0-2.424l7.155-7.36H1.667a1.715 1.715 0 0 1 0-3.428H24.31l-7.155-7.36a1.75 1.75 0 0 1 0-2.425 1.636 1.636 0 0 1 2.356 0l10 10.286a1.711 1.711 0 0 1 .286.4l.017.033v.009l.012.024.009.02.006.014.013.031a1.763 1.763 0 0 1-.016 1.4v.008l-.012.027-.008.016-.009.018-.011.022-.007.013-.014.025-.005.009-.016.028v.006l-.018.03-.019.03-.02.029v.006l-.019.027-.006.008-.018.024-.008.011-.016.02-.015.018-.01.012-.025.029q-.033.037-.067.072L19.512 23.5a1.633 1.633 0 0 1-2.356 0z" data-name="ic_ arrow_right" transform="translate(3 4.586)"/>
    </g>
</svg>
