<svg xmlns="http://www.w3.org/2000/svg" width="140" height="143" viewBox="0 0 140 143">
    <defs>
        <style>
            .cls-1{fill:url(#linear-gradient)}.cls-2{fill:url(#linear-gradient-2)}.cls-3{fill:#015aad}.cls-4{fill:#4691db}.cls-5{fill:url(#linear-gradient-3)}.cls-6{fill:url(#linear-gradient-4)}.cls-7{fill:#b4d2d7}.cls-8{fill:#e1ebf0}.cls-9{fill:#9bb9c3}.cls-10{opacity:.4;fill:url(#linear-gradient-5)}
        </style>
        <linearGradient id="linear-gradient" x1=".823" x2=".5" y1=".117" y2="1.076" gradientUnits="objectBoundingBox">
            <stop offset="0" stop-color="#be95ff"/>
            <stop offset="1" stop-color="#4f2da7"/>
        </linearGradient>
        <linearGradient id="linear-gradient-2" x1=".649" x2=".389" y1=".238" y2=".959" gradientUnits="objectBoundingBox">
            <stop offset="0" stop-color="#ffda00"/>
            <stop offset="1" stop-color="#ff5b41"/>
        </linearGradient>
        <linearGradient id="linear-gradient-3" x1=".5" x2="-.078" y1=".27" y2="1.175" gradientUnits="objectBoundingBox">
            <stop offset="0" stop-color="#0573cd"/>
            <stop offset="1" stop-color="#02137f"/>
        </linearGradient>
        <linearGradient id="linear-gradient-4" x1=".5" x2=".5" y2="1" gradientUnits="objectBoundingBox">
            <stop offset="0" stop-color="#21dbe9"/>
            <stop offset="1" stop-color="#1b39b4"/>
        </linearGradient>
        <linearGradient id="linear-gradient-5" x1=".5" x2=".5" y2="1" gradientUnits="objectBoundingBox">
            <stop offset="0" stop-color="#ffda00"/>
            <stop offset="1" stop-color="#ffda00"/>
        </linearGradient>
    </defs>
    <g id="ic_business" transform="translate(0 -.001)">
        <path id="Path_8468" d="M140 81.172a69.814 69.814 0 0 1-28.854 56.581c-11.549 8.4-92.617-2.61-104.015-25.795A69.988 69.988 0 1 1 140 81.172zm0 0" class="cls-1" data-name="Path 8468" transform="translate(0 -8.101)"/>
        <path id="Path_8469" d="M201.068 2.954l11.849 23.986 26.5 3.846a5.3 5.3 0 0 1 2.939 9.036l-19.176 18.67 4.526 26.362a5.3 5.3 0 0 1-7.695 5.586l-23.7-12.447-23.7 12.447a5.3 5.3 0 0 1-7.695-5.586l4.527-26.362-19.173-18.67a5.3 5.3 0 0 1 2.939-9.036l26.5-3.846 11.847-23.986a5.306 5.306 0 0 1 9.512 0zm0 0" class="cls-2" data-name="Path 8469" transform="translate(-107.102)"/>
        <path id="Path_8471" d="M163.75 180.821V207.5h-9.7v-26.679a7.244 7.244 0 0 0-5.119-6.94 54.914 54.914 0 0 0-30.973 0 7.244 7.244 0 0 0-5.12 6.94V207.5h-9.7v-26.679a16.989 16.989 0 0 1 12.067-16.23 64.633 64.633 0 0 1 36.473 0 16.991 16.991 0 0 1 12.067 16.23zm0 0" class="cls-3" data-name="Path 8471" transform="translate(-74.308 -116.728)"/>
        <path id="Path_8472" d="M171.83 161.888l-7.319 7.312a2.426 2.426 0 0 1-2.38.616 52.457 52.457 0 0 0-28.638 0 2.426 2.426 0 0 1-2.379-.616l-7.32-7.312a2.422 2.422 0 0 1 .43-3.767 18.978 18.978 0 0 1 4.664-2.1 67.063 67.063 0 0 1 37.848 0 18.989 18.989 0 0 1 4.663 2.1 2.42 2.42 0 0 1 .43 3.767zm0 0" class="cls-4" data-name="Path 8472" transform="translate(-88.673 -110.478)"/>
        <path id="Path_8473" d="M56.838 174.155A70.069 70.069 0 0 1 64.8 172.2l-.655-2.443a2.424 2.424 0 0 1 4.684-1.254l.8 2.975q2.728-.309 5.478-.4v-2.956a2.424 2.424 0 0 1 4.849 0v2.956q2.749.095 5.478.4l.8-2.975a2.424 2.424 0 0 1 4.684 1.254l-.655 2.443a70.009 70.009 0 0 1 7.957 1.957l-3.987 3.983a2.427 2.427 0 0 1-2.379.616 52.456 52.456 0 0 0-28.638 0 2.428 2.428 0 0 1-2.38-.616zm67.841 15.2H30.368a4.847 4.847 0 0 0-4.849 4.844v29.072a70.036 70.036 0 0 0 9.3 14.237c12.84 15.23 83.154 19.951 94.7 11.555V194.2a4.846 4.846 0 0 0-4.848-4.844zm0 0" class="cls-5" data-name="Path 8473" transform="translate(-18.385 -119.416)"/>
        <path id="Path_8474" d="M153.506 270.253v39.864a70.045 70.045 0 0 1-94.7-11.555v-5.191a1.427 1.427 0 0 1 2.233-1.178 26.555 26.555 0 0 0 15.128 4.7h50.673a26.653 26.653 0 0 0 26.667-26.64zm-.584-17.309a4.857 4.857 0 0 0-1.553-1.707 4.84 4.84 0 0 0-2.711-.827H63.653a4.847 4.847 0 0 0-4.849 4.844v25.658a2.872 2.872 0 0 0 1.133 2.277 26.562 26.562 0 0 0 16.229 5.5h50.674a26.653 26.653 0 0 0 26.667-26.639v-6.8a4.831 4.831 0 0 0-.584-2.31zm0 0" class="cls-6" data-name="Path 8474" transform="translate(-42.364 -180.47)"/>
        <path id="Path_8475" d="M109.94 389.765h-1.252a4.847 4.847 0 0 1-4.849-4.844v-14.608a2.423 2.423 0 0 1 2.424-2.422h6.1a2.423 2.423 0 0 1 2.424 2.422v14.609a4.846 4.846 0 0 1-4.847 4.843zm54.116-4.844v-14.608a2.423 2.423 0 0 0-2.424-2.422h-6.1a2.422 2.422 0 0 0-2.423 2.422v14.609a4.846 4.846 0 0 0 4.848 4.844h1.252a4.847 4.847 0 0 0 4.849-4.844zm0 0" class="cls-7" data-name="Path 8475" transform="translate(-74.808 -265.139)"/>
        <path id="Path_8476" d="M120.284 367.891h1.643a2.735 2.735 0 0 1 2.737 2.734V384.3a5.465 5.465 0 0 1-3.558 5.118 5.465 5.465 0 0 1-3.558-5.118v-13.675a2.735 2.735 0 0 1 2.737-2.734zm46.53 2.734V384.3a5.466 5.466 0 0 0 3.559 5.118 5.467 5.467 0 0 0 3.558-5.118v-13.675a2.735 2.735 0 0 0-2.737-2.734h-1.643a2.736 2.736 0 0 0-2.738 2.734zm0 0" class="cls-8" data-name="Path 8476" transform="translate(-84.683 -265.139)"/>
        <path id="Path_8477" d="M112.841 415.254a4.1 4.1 0 1 1 4.105-4.1 4.1 4.1 0 0 1-4.105 4.1zm53.372-4.1a4.105 4.105 0 1 0-4.105 4.1 4.1 4.1 0 0 0 4.104-4.102zm0 0" class="cls-9" data-name="Path 8477" transform="translate(-78.335 -293.362)"/>
        <path id="Path_9223" d="M322.262 39.821L303.09 58.492l.177 1.033a65.048 65.048 0 0 1-43.68-32.581h.032l11.848-23.99a5.306 5.306 0 0 1 9.511 0l11.85 23.986 26.5 3.846a5.3 5.3 0 0 1 2.939 9.036zm0 0" class="cls-10" data-name="Path 9223" transform="translate(-187.012)"/>
    </g>
</svg>
