<?xml version="1.0" encoding="UTF-8"?>
<svg width="11px" height="13px" viewBox="0 0 11 13" version="1.1" xmlns="http://www.w3.org/2000/svg" xmlns:xlink="http://www.w3.org/1999/xlink">
    <!-- Generator: sketchtool 49 (51002) - http://www.bohemiancoding.com/sketch -->
    <title>3F60B06E-60EB-465F-B0D7-F47447C43603</title>
    <desc>Created with sketchtool.</desc>
    <defs></defs>
    <g id="customer-page-(corrected-design)" stroke="none" stroke-width="1" fill="none" fill-rule="evenodd">
        <g id="extra-to-Customer-Page" transform="translate(-354.000000, -1585.000000)">
            <g id="image" transform="translate(65.000000, 1356.000000)">
                <g id="ic-delete" transform="translate(286.000000, 227.000000)">
                    <polygon id="Shape" points="0 0 17 0 17 17 0 17"></polygon>
                    <path d="M4.25,13.4583333 C4.25,14.2375 4.8875,14.875 5.66666667,14.875 L11.3333333,14.875 C12.1125,14.875 12.75,14.2375 12.75,13.4583333 L12.75,4.95833333 L4.25,4.95833333 L4.25,13.4583333 Z M5.9925,8.415 L6.99125,7.41625 L8.5,8.91791667 L10.0016667,7.41625 L11.0004167,8.415 L9.49875,9.91666667 L11.0004167,11.4183333 L10.0016667,12.4170833 L8.5,10.9154167 L6.99833333,12.4170833 L5.99958333,11.4183333 L7.50125,9.91666667 L5.9925,8.415 Z M10.9791667,2.83333333 L10.2708333,2.125 L6.72916667,2.125 L6.02083333,2.83333333 L3.54166667,2.83333333 L3.54166667,4.25 L13.4583333,4.25 L13.4583333,2.83333333 L10.9791667,2.83333333 Z" id="Shape" fill="#A794D1" fill-rule="nonzero"></path>
                    <polygon id="Shape" points="0 0 17 0 17 17 0 17"></polygon>
                </g>
            </g>
        </g>
    </g>
</svg>