<?xml version="1.0" encoding="UTF-8"?>
<svg width="38px" height="38px" viewBox="0 0 38 38" version="1.1" xmlns="http://www.w3.org/2000/svg" xmlns:xlink="http://www.w3.org/1999/xlink">
    <!-- Generator: sketchtool 49 (51002) - http://www.bohemiancoding.com/sketch -->
    <title>9B991F17-2F0E-46CC-84E4-51A98BB6F60C</title>
    <desc>Created with sketchtool.</desc>
    <defs></defs>
    <g id="customer-page-(corrected-design)" stroke="none" stroke-width="1" fill="none" fill-rule="evenodd">
        <g id="Customer-Page-(original-size)" transform="translate(-300.000000, -1820.000000)">
            <g id="Group-2" transform="translate(-195.000000, 0.000000)">
                <g id="5.gallery" transform="translate(204.000000, 1754.000000)">
                    <g id="Group-16">
                        <g id="ic-del" transform="translate(291.000000, 66.000000)">
                            <circle id="Oval-6" stroke="#BFAFE0" stroke-width="2" cx="19" cy="19" r="18"></circle>
                            <g id="ic-delete-forever-24px" transform="translate(9.000000, 6.000000)">
                                <polygon id="Shape" points="0 2 20 2 20 22 0 22"></polygon>
                                <path d="M5,17.8333333 C5,18.75 5.75,19.5 6.66666667,19.5 L13.3333333,19.5 C14.25,19.5 15,18.75 15,17.8333333 L15,7.83333333 L5,7.83333333 L5,17.8333333 Z M7.05,11.9 L8.225,10.725 L10,12.4916667 L11.7666667,10.725 L12.9416667,11.9 L11.175,13.6666667 L12.9416667,15.4333333 L11.7666667,16.6083333 L10,14.8416667 L8.23333333,16.6083333 L7.05833333,15.4333333 L8.825,13.6666667 L7.05,11.9 Z M12.9166667,5.33333333 L12.0833333,4.5 L7.91666667,4.5 L7.08333333,5.33333333 L4.16666667,5.33333333 L4.16666667,7 L15.8333333,7 L15.8333333,5.33333333 L12.9166667,5.33333333 Z" id="Shape" fill="#BFAFE0" fill-rule="nonzero"></path>
                                <polygon id="Shape" points="0 0 20 0 20 20 0 20"></polygon>
                            </g>
                        </g>
                    </g>
                </g>
            </g>
        </g>
    </g>
</svg>