<svg xmlns="http://www.w3.org/2000/svg" width="20" height="20" viewBox="0 0 20 20">
    <defs>
        <style>
            .cls-1{fill:#5333ed}
        </style>
    </defs>
    <g id="ic_join" transform="translate(-89 -541)">
        <path id="Combined_Shape" d="M12 20a.913.913 0 1 1 0-1.818h5a.957.957 0 0 0 1-.909V2.727a.958.958 0 0 0-1-.909h-5a.958.958 0 0 1-1-.909A.958.958 0 0 1 12 0h5a2.873 2.873 0 0 1 3 2.727v14.546A2.873 2.873 0 0 1 17 20zm-3.707-5.721a.851.851 0 0 1 0-1.285l2.293-2.085H1a.913.913 0 1 1 0-1.818h9.586L8.293 7.006a.851.851 0 0 1 0-1.285 1.073 1.073 0 0 1 1.415 0l3.981 3.62A.87.87 0 0 1 14 10a.851.851 0 0 1-.194.538l-.015.018-.015.017-.016.017-.017.017-.035.034-4 3.636a1.074 1.074 0 0 1-1.415 0z" class="cls-1" data-name="Combined Shape" transform="translate(89 541)"/>
    </g>
</svg>
