<svg xmlns="http://www.w3.org/2000/svg" width="24" height="24" viewBox="0 0 20 20">
    <g id="ic_language" transform="translate(-1 -1)">
        <path id="prefix__Combined_Shape" d="M10 20h-.029A10 10 0 0 1 2.929 2.929 9.932 9.932 0 0 1 9.979 0h.043a10 10 0 0 1 7.05 17.071A9.932 9.932 0 0 1 10.029 20zm2.069-2.083a8.189 8.189 0 0 0 6.062-7.008H14.5a14.8 14.8 0 0 1-2.431 7.008zm-4.138 0A14.839 14.839 0 0 1 5.5 10.909H1.868a8.188 8.188 0 0 0 6.064 7.008zM10 17.681a13.064 13.064 0 0 0 2.677-6.772H7.326A13.1 13.1 0 0 0 10 17.681zm8.132-8.59a8.188 8.188 0 0 0-6.063-7.008A14.846 14.846 0 0 1 14.5 9.091zm-5.457 0A13.1 13.1 0 0 0 10 2.319a13.068 13.068 0 0 0-2.676 6.772zm-7.174 0a14.787 14.787 0 0 1 2.431-7.008 8.188 8.188 0 0 0-6.064 7.008z" data-name="Combined Shape" transform="translate(1 1)" />
    </g>
</svg>
