<?xml version="1.0" encoding="UTF-8"?>
<svg width="38px" height="38px" viewBox="0 0 38 38" version="1.1" xmlns="http://www.w3.org/2000/svg" xmlns:xlink="http://www.w3.org/1999/xlink">
    <!-- Generator: sketchtool 49 (51002) - http://www.bohemiancoding.com/sketch -->
    <title>9E6DDDF3-8C90-49A4-BBC8-3D04ECCFC022</title>
    <desc>Created with sketchtool.</desc>
    <defs></defs>
    <g id="customer-page-(corrected-design)" stroke="none" stroke-width="1" fill="none" fill-rule="evenodd">
        <g id="Customer-Page" transform="translate(-541.000000, -718.000000)">
            <g id="1.personal-info" transform="translate(249.000000, 489.000000)">
                <g id="ic-location" transform="translate(292.000000, 229.000000)">
                    <circle id="Oval-6" stroke="#BFAFE0" stroke-width="2" cx="19" cy="19" r="18"></circle>
                    <path d="M19,11 C15.6828571,11 13,13.6605 13,16.95 C13,21.4125 19,28 19,28 C19,28 25,21.4125 25,16.95 C25,13.6605 22.3171429,11 19,11 Z M19,19.075 C17.8171429,19.075 16.8571429,18.123 16.8571429,16.95 C16.8571429,15.777 17.8171429,14.825 19,14.825 C20.1828571,14.825 21.1428571,15.777 21.1428571,16.95 C21.1428571,18.123 20.1828571,19.075 19,19.075 Z" id="Shape" fill="#BFAFE0" fill-rule="nonzero"></path>
                </g>
            </g>
        </g>
    </g>
</svg>