<svg xmlns="http://www.w3.org/2000/svg" width="46" height="46" viewBox="0 0 46 46">
    <defs>
        <style>
            .cls-1{fill:none}.cls-2{fill:#fff}
        </style>
    </defs>
    <g id="ic_logo" transform="translate(-83 -27)">
        <path id="border" d="M0 0h46v46H0z" class="cls-1" transform="translate(83 27)"/>
        <g id="ic_logo-2" data-name="ic_logo">
            <path id="Path_5" d="M1669.848 1516.833l-7.627 15.9a.845.845 0 0 0 .762 1.211h15.01a.845.845 0 0 0 .766-1.2l-7.383-15.9a.845.845 0 0 0-1.528-.011z" class="cls-2" data-name="Path 5" transform="translate(-1564.874 -1484.353)"/>
            <path id="Path_6" d="M1589.294 1744.157l12.609-.034a.845.845 0 0 1 .422 1.579l-17.366 9.939a.846.846 0 0 1-1.182-1.1l4.758-9.906a.846.846 0 0 1 .759-.478z" class="cls-2" data-name="Path 6" transform="translate(-1493.69 -1691.033)"/>
            <path id="Path_7" d="M1642.285 1760.469l5.908 12.722a.845.845 0 0 1-.768 1.2l-28.107-.038a.845.845 0 0 1-.419-1.579l22.2-12.685a.845.845 0 0 1 1.186.38z" class="cls-2" data-name="Path 7" transform="translate(-1525.253 -1705.421)"/>
        </g>
    </g>
</svg>
