<svg xmlns="http://www.w3.org/2000/svg" width="76" height="42" viewBox="0 0 76 42">
    <defs>
        <style>
            .cls-1{fill:#6353f4;stroke:#6353f4;stroke-width:2px}
        </style>
    </defs>
    <g id="ic_mail" transform="translate(1 1)">
        <path id="Path_12983" d="M167.329.406h-43.343a6.11 6.11 0 0 0-6.146 6.06v27.881a6.11 6.11 0 0 0 6.146 6.059h43.344a6.109 6.109 0 0 0 6.145-6.059V6.465a6.109 6.109 0 0 0-6.146-6.059zm-9.5 19.984l12.524-9.664v21.652zM123.986 3.48h43.344a3.011 3.011 0 0 1 3.028 2.986v.358l-21.9 16.9a4.22 4.22 0 0 1-5.145-.008l-22.35-16.9v-.351a3.01 3.01 0 0 1 3.023-2.985zm9.826 16.934l-12.854 11.92V10.7zm33.518 16.919h-43.344a3.038 3.038 0 0 1-2.485-1.284l14.818-13.74 5.083 3.842a7.365 7.365 0 0 0 8.97 0l4.985-3.847 14.417 13.8a3.038 3.038 0 0 1-2.444 1.231zm0 0" class="cls-1" data-name="Path 12983" transform="translate(-99.474 -.406)"/>
        <path id="Path_12984" d="M50.662 109.688h-3.486a1.537 1.537 0 1 0 0 3.073h3.487a1.537 1.537 0 1 0 0-3.073zm0 0" class="cls-1" data-name="Path 12984" transform="translate(-38.508 -92.894)"/>
        <path id="Path_12985" d="M12.155 164.43H1.559a1.537 1.537 0 1 0 0 3.073h10.6a1.537 1.537 0 1 0 0-3.073zm0 0" class="cls-1" data-name="Path 12985" transform="translate(0 -139.224)"/>
        <path id="Path_12986" d="M20.6 50.383h-9.041a1.537 1.537 0 1 0 0 3.073H20.6a1.537 1.537 0 1 0 0-3.073zm0 0" class="cls-1" data-name="Path 12986" transform="translate(-8.441 -42.703)"/>
    </g>
</svg>
