<?xml version="1.0" encoding="UTF-8"?>
<svg width="13px" height="13px" viewBox="0 0 13 13" version="1.1" xmlns="http://www.w3.org/2000/svg" xmlns:xlink="http://www.w3.org/1999/xlink">
    <!-- Generator: sketchtool 49 (51002) - http://www.bohemiancoding.com/sketch -->
    <title>5556A7FD-4187-4ADD-9A77-81B44DC2F1D5</title>
    <desc>Created with sketchtool.</desc>
    <defs></defs>
    <g id="customer-page-(corrected-design)" stroke="none" stroke-width="1" fill="none" fill-rule="evenodd">
        <g id="Customer-Page-(original-size)" transform="translate(-134.000000, -1501.000000)">
            <g id="Group-2" transform="translate(-195.000000, 0.000000)">
                <g id="4.notes" transform="translate(205.000000, 1438.000000)">
                    <g id="ic-notifications-active-24px" transform="translate(123.000000, 62.000000)">
                        <polygon id="Shape" points="0 0 15 0 15 15 0 15"></polygon>
                        <path d="M4.7375,2.55 L3.84375,1.65625 C2.34375,2.8 1.35625,4.5625 1.26875,6.5625 L2.51875,6.5625 C2.6125,4.90625 3.4625,3.45625 4.7375,2.55 Z M12.48125,6.5625 L13.73125,6.5625 C13.6375,4.5625 12.65,2.8 11.15625,1.65625 L10.26875,2.55 C11.53125,3.45625 12.3875,4.90625 12.48125,6.5625 Z M11.25,6.875 C11.25,4.95625 10.225,3.35 8.4375,2.925 L8.4375,2.5 C8.4375,1.98125 8.01875,1.5625 7.5,1.5625 C6.98125,1.5625 6.5625,1.98125 6.5625,2.5 L6.5625,2.925 C4.76875,3.35 3.75,4.95 3.75,6.875 L3.75,10 L2.5,11.25 L2.5,11.875 L12.5,11.875 L12.5,11.25 L11.25,10 L11.25,6.875 Z M7.5,13.75 C7.5875,13.75 7.66875,13.74375 7.75,13.725 C8.15625,13.6375 8.4875,13.3625 8.65,12.9875 C8.7125,12.8375 8.74375,12.675 8.74375,12.5 L6.24375,12.5 C6.25,13.1875 6.80625,13.75 7.5,13.75 Z" id="Shape" fill="#F8E71C" fill-rule="nonzero"></path>
                    </g>
                </g>
            </g>
        </g>
    </g>
</svg>