<svg xmlns="http://www.w3.org/2000/svg" width="24" height="24" viewBox="0 0 24 24">
    <path fill="#4f2da7" d="M25614.623 4664a2.66 2.66 0 0 1-2.625-2.695v-12.6a2.665 2.665 0 0 1 2.625-2.7h8.752a2.66 2.66 0 0 1 2.625 2.7v12.6a2.655 2.655 0 0 1-2.625 2.695zm-.875-15.293v12.6a.89.89 0 0 0 .875.9h8.752a.89.89 0 0 0 .875-.9v-12.6a.886.886 0 0 0-.875-.9h-8.752a.886.886 0 0 0-.875.893zm3.943 10.348a1.312 1.312 0 1 1 1.311 1.351 1.329 1.329 0 0 1-1.311-1.356zm-.883-7.653a.9.9 0 0 1 0-1.8h4.381a.9.9 0 0 1 0 1.8z" transform="translate(-25607 -4643)"/>
</svg>
