<svg xmlns="http://www.w3.org/2000/svg" width="18" height="18" viewBox="0 0 18 18">
    <g fill="none" fill-rule="evenodd">
        <path fill="#5E36B1" fill-rule="nonzero" d="M9 4.833A4.168 4.168 0 0 0 4.833 9c0 2.3 1.867 4.167 4.167 4.167S13.167 11.3 13.167 9 11.3 4.833 9 4.833zM9 .667A8.331 8.331 0 0 0 .667 9 8.331 8.331 0 0 0 9 17.333 8.331 8.331 0 0 0 17.333 9 8.331 8.331 0 0 0 9 .667zm0 15A6.665 6.665 0 0 1 2.333 9 6.665 6.665 0 0 1 9 2.333 6.665 6.665 0 0 1 15.667 9 6.665 6.665 0 0 1 9 15.667z"/>
        <path d="M-1-6h20v20H-1z"/>
    </g>
</svg>
