<?xml version="1.0" encoding="UTF-8"?>
<svg width="38px" height="38px" viewBox="0 0 38 38" version="1.1" xmlns="http://www.w3.org/2000/svg" xmlns:xlink="http://www.w3.org/1999/xlink">
    <!-- Generator: sketchtool 49 (51002) - http://www.bohemiancoding.com/sketch -->
    <title>06BB3C6D-5BF7-4856-8DE2-32310B43C46E</title>
    <desc>Created with sketchtool.</desc>
    <defs></defs>
    <g id="customer-page-(corrected-design)" stroke="none" stroke-width="1" fill="none" fill-rule="evenodd">
        <g id="Customer-Page-(original-size)" transform="translate(-254.000000, -1820.000000)">
            <g id="Group-2" transform="translate(-195.000000, 0.000000)">
                <g id="5.gallery" transform="translate(204.000000, 1754.000000)">
                    <g id="Group-16">
                        <g id="ic-share" transform="translate(245.000000, 66.000000)">
                            <circle id="Oval-6" stroke="#BFAFE0" stroke-width="2" cx="19" cy="19" r="18"></circle>
                            <g id="share" transform="translate(9.000000, 10.000000)" fill="#BFAFE0" fill-rule="nonzero">
                                <path d="M5.73333333,8.74826087 C5.86695472,9.24080792 5.86695472,9.75960513 5.73333333,10.2521522 L10.1470833,13.5333696 C11.230035,12.581258 12.8535477,12.5605411 13.9608635,13.4847037 C15.0681793,14.4088664 15.3242231,15.9982558 14.5623339,17.2183253 C13.8004447,18.4383947 12.2511711,18.9199497 10.9229481,18.349542 C9.59472508,17.7791344 8.88947459,16.3293703 9.26625,14.943913 L4.85291667,11.6622826 C3.68185838,12.6927712 1.8989131,12.6227083 0.813815647,11.5035615 C-0.271281805,10.3844148 -0.271281805,8.61558523 0.813815647,7.49643846 C1.8989131,6.37729168 3.68185838,6.30722882 4.85291667,7.33771739 L9.26625,4.0565 C8.88947459,2.67104279 9.59472508,1.22127862 10.9229481,0.650870996 C12.2511711,0.0804633761 13.8004447,0.562018349 14.5623339,1.78208779 C15.3242231,3.00215723 15.0681793,4.59154665 13.9608635,5.51570929 C12.8535477,6.43987194 11.230035,6.41915507 10.1470833,5.46704348 L5.73375,8.74784783 L5.73333333,8.74826087 Z M12.0833333,4.54347826 C12.7736893,4.54347826 13.3333333,3.98870067 13.3333333,3.30434783 C13.3333333,2.61999498 12.7736893,2.06521739 12.0833333,2.06521739 C11.3929774,2.06521739 10.8333333,2.61999498 10.8333333,3.30434783 C10.8333333,3.98870067 11.3929774,4.54347826 12.0833333,4.54347826 Z M12.0833333,16.9347826 C12.7736893,16.9347826 13.3333333,16.380005 13.3333333,15.6956522 C13.3333333,15.0112993 12.7736893,14.4565217 12.0833333,14.4565217 C11.3929774,14.4565217 10.8333333,15.0112993 10.8333333,15.6956522 C10.8333333,16.380005 11.3929774,16.9347826 12.0833333,16.9347826 Z M2.91666667,10.7391304 C3.6070226,10.7391304 4.16666667,10.1843528 4.16666667,9.5 C4.16666667,8.81564716 3.6070226,8.26086957 2.91666667,8.26086957 C2.22631073,8.26086957 1.66666667,8.81564716 1.66666667,9.5 C1.66666667,10.1843528 2.22631073,10.7391304 2.91666667,10.7391304 Z" id="Shape"></path>
                            </g>
                        </g>
                    </g>
                </g>
            </g>
        </g>
    </g>
</svg>