<svg xmlns="http://www.w3.org/2000/svg" width="20" height="20" viewBox="0 0 20 20">
    <defs>
        <style>
            .cls-1{fill:#5333ed}
        </style>
    </defs>
    <g id="ic_support" transform="translate(-188 -382)">
        <path id="Combined_Shape" d="M17 20h-1a3 3 0 0 1-3-3v-3a3 3 0 0 1 3-3h2v-1a8 8 0 0 0-16 0v1h2a3 3 0 0 1 3 3v3a3 3 0 0 1-3 3H3a3 3 0 0 1-3-3v-7a10 10 0 1 1 20 0v7a3 3 0 0 1-3 3zm-1-7a1 1 0 0 0-1 1v3a1 1 0 0 0 1 1h1a1 1 0 0 0 1-1v-4zM2 13v4a1 1 0 0 0 1 1h1a1 1 0 0 0 1-1v-3a1 1 0 0 0-1-1z" class="cls-1" data-name="Combined Shape" transform="translate(188 382)"/>
    </g>
</svg>
