<svg xmlns="http://www.w3.org/2000/svg" width="19.178" height="19.007" viewBox="0 0 19.178 19.007"><g id="ic_send" transform="translate(-867.422 -2186.492)"><path class="a" d="M17.811,14.353a1.911,1.911,0,0,0-.875-.9L2.708,6.391a1.865,1.865,0,0,0-2.519.9A1.981,1.981,0,0,0,.135,8.851L2.609,15.2.135,21.541A1.956,1.956,0,0,0,1.194,24.06,1.831,1.831,0,0,0,2.708,24l14.228-7.066A1.958,1.958,0,0,0,17.811,14.353ZM2.16,22.84a.622.622,0,0,1-.84-.3A.66.66,0,0,1,1.3,22.02l2.409-6.179H16.259Zm1.551-8.289L1.3,8.372a.64.64,0,0,1,.155-.709.6.6,0,0,1,.7-.109l14.1,7Z" transform="translate(868.001 2180.803)"/></g></svg>