<svg xmlns="http://www.w3.org/2000/svg" width="19" height="19" viewBox="0 0 19 19">
    <g id="prefix__ic_try" transform="translate(-88.5 -540.5)">
        <path id="prefix__ic_join" d="M10.8 18a.822.822 0 1 1 0-1.636h4.5a.862.862 0 0 0 .9-.818V2.454a.862.862 0 0 0-.9-.818h-4.5a.862.862 0 0 1-.9-.818.862.862 0 0 1 .9-.818h4.5A2.586 2.586 0 0 1 18 2.454v13.092A2.586 2.586 0 0 1 15.3 18zm-3.337-5.149a.766.766 0 0 1 0-1.157l2.064-1.876H.9a.822.822 0 1 1 0-1.636h8.627L7.463 6.306a.766.766 0 0 1 0-1.157.965.965 0 0 1 1.273 0l3.583 3.258A.783.783 0 0 1 12.6 9a.766.766 0 0 1-.174.484l-.014.016-.014.016-.014.016-.015.015-.032.03-3.6 3.272a.966.966 0 0 1-1.273 0z" transform="translate(89 541)" style="fill:#fff;stroke:#fff"/>
    </g>
</svg>
