<svg xmlns="http://www.w3.org/2000/svg" width="18" height="18" viewBox="0 0 18 18">
    <defs>
        <style>
            .cls-1,.cls-2{fill:#fff}.cls-2{fill-rule:evenodd}
        </style>
    </defs>
    <g id="ic_taxes-israel-license">
        <path id="Path_13952" d="M87.8 3.259a7.726 7.726 0 0 1 10.714-1.877 7.617 7.617 0 0 1 3.006 8.286 8.254 8.254 0 0 0-3.547-6.4 8.38 8.38 0 0 0-10.8 1.048 7.656 7.656 0 0 1 .627-1.057" class="cls-1" transform="translate(-85.285)"/>
        <path id="Path_13953" d="M6.358 146.021a7.634 7.634 0 0 1 .05-15.061 8.262 8.262 0 0 0 1.176 15.178 7.764 7.764 0 0 1-1.227-.117" class="cls-1" transform="translate(0 -128.138)"/>
        <path id="Path_13954" d="M196.886 312.818a7.636 7.636 0 0 1-5.44 9.359 7.722 7.722 0 0 1-8.323-3.039 8.369 8.369 0 0 0 7.218 1.417 8.286 8.286 0 0 0 6.132-8.89 7.646 7.646 0 0 1 .412 1.154" class="cls-1" transform="translate(-179.15 -304.948)"/>
        <path id="Path_13955" d="M221.149 465.407v-.414h-.97v-.46h-.289v.628h1v.4c0 .383-.675.547-.675 1.122v.111h.262v-.264c0-.383.675-.551.675-1.122" class="cls-1" transform="translate(-215.121 -454.524)"/>
        <path id="Path_13956" d="M289.461 487.667c-.141-.23-.285-.459-.429-.685a1.873 1.873 0 0 0 .367-1.068v-.046h-.249a1.557 1.557 0 0 1-.239.912 9.93 9.93 0 0 1-.577-.912h-.308l.318.494a4.211 4.211 0 0 0-.331 1.306h.249a4.485 4.485 0 0 1 .223-1.088 3.1 3.1 0 0 1 .292.433c.131.215.256.433.37.655h.314" class="cls-1" transform="translate(-281.765 -475.397)"/>
        <path id="Path_13957" d="M365.578 485.745v-.907a.839.839 0 0 0-.849-.935h-.085a1.625 1.625 0 0 0-.331.038l.049.187a.65.65 0 0 1 .364-.1c.38 0 .564.383.564.785v.926h.288" class="cls-1" transform="translate(-356.41 -473.475)"/>
        <path id="Path_13958" d="M438.621 485.866h-.269c-.006.307-.03.613-.052.915-.03.387-.2.716-.567.716h-.282l-.1-1.631h-.262l.1 1.8h.465c.528 0 .852-.123.894-.808.023-.329.043-.662.062-.992m-.616.127v-.127h-.262a2.31 2.31 0 0 1-.075.751.45.45 0 0 1-.141.226l.056.1a.815.815 0 0 0 .216-.146 1.172 1.172 0 0 0 .212-.804z" class="cls-2" transform="translate(-427.612 -475.396)"/>
        <path id="Path_13959" d="M520.735 486.655v-.789h-.262v.919l.262-.13" class="cls-1" transform="translate(-509.182 -475.396)"/>
        <path id="Path_13960" d="M541.989 485.745v-.168h-.161v-.739c0-.586-.321-.935-.816-.935h-.085a1.928 1.928 0 0 0-.442.065l.049.188a1.1 1.1 0 0 1 .475-.122c.383 0 .531.391.531.785v.758h-1.016v.168h1.465" class="cls-1" transform="translate(-528.76 -473.475)"/>
        <path id="Path_13961" d="M246.319 376.6h-.885v-1.5a1.026 1.026 0 0 1 .321-.042c.377 0 .564.383.564.785v.758m.288.169v-.908a.841.841 0 0 0-.849-.934 1.784 1.784 0 0 0-.632.1l.046.134v1.6h1.435z" class="cls-2" transform="translate(-239.808 -366.844)"/>
        <path id="Path_13962" d="M325.366 377.661v-.789h-.266v.919l.262-.13" class="cls-1" transform="translate(-318.051 -368.751)"/>
        <path id="Path_13963" d="M351.259 375.839c0 .349-.144.85-.5.85s-.511-.41-.511-.785v-.773a.818.818 0 0 1 .416-.08c.406 0 .6.348.6.789m.288.019a.879.879 0 0 0-.888-.934 1.591 1.591 0 0 0-.7.13v.793c0 .54.295.961.773.961a.855.855 0 0 0 .81-.951z" class="cls-2" transform="translate(-342.363 -366.845)"/>
        <path id="Path_13964" d="M436.279 375.858a.839.839 0 0 0-.849-.934.556.556 0 0 0-.36.153.391.391 0 0 0-.337-.138h-.023l-.049.119c.213 0 .236.149.236.383 0 .161-.027.356-.04.517-.026.272-.065.54-.1.808h.262c.039-.261.078-.525.1-.789.016-.18.042-.36.042-.54a.373.373 0 0 1 .321-.383c.39 0 .508.4.508.785 0 .425-.184.808-.587.808a.381.381 0 0 1-.137-.05l-.03.18a.955.955 0 0 0 .2.031.84.84 0 0 0 .838-.95" class="cls-1" transform="translate(-425.231 -366.845)"/>
        <path id="Path_13965" d="M520.44 376.765h.262v-1.015h-.262zm1.317 0v-.908a.839.839 0 0 0-.849-.934h-.084a1.92 1.92 0 0 0-.443.065l.049.188a1.076 1.076 0 0 1 .475-.123c.38 0 .563.383.563.785v.927h.289z" class="cls-2" transform="translate(-509.092 -366.844)"/>
        <path id="Path_13966" d="M287.546 267.756v-.907a.841.841 0 0 0-.849-.935 1.7 1.7 0 0 0-.534.1l.059.134v1.03c0 .2-.013.483-.242.483a.666.666 0 0 1-.148-.027v.092a.7.7 0 0 0 .275.069c.331 0 .377-.279.377-.6v-1.129a.957.957 0 0 1 .21-.023c.38 0 .564.383.564.785v.927h.288" class="cls-2" transform="translate(-279.632 -260.184)"/>
        <path id="Rectangle_3715" d="M0 0H0.262V1.8H0z" class="cls-1" transform="translate(8.188 5.772)"/>
        <path id="Path_13967" d="M403.971 267.862h-.271c-.007.307-.03.613-.052.915-.03.387-.2.716-.567.716h-.281l-.095-1.631h-.262l.1 1.8h.465c.528 0 .852-.123.895-.808.023-.33.043-.663.062-.992m-.616.127v-.127h-.262a2.312 2.312 0 0 1-.076.751.45.45 0 0 1-.141.226l.056.1a.8.8 0 0 0 .216-.145 1.173 1.173 0 0 0 .213-.805z" class="cls-2" transform="translate(-393.713 -262.09)"/>
        <path id="Path_13968" d="M484.827 267.756v-.907a.839.839 0 0 0-.849-.935h-.085a1.592 1.592 0 0 0-.331.038l.049.188a.65.65 0 0 1 .364-.1c.38 0 .564.383.564.785v.927h.288" class="cls-1" transform="translate(-473.072 -260.184)"/>
    </g>
</svg>
