<svg xmlns="http://www.w3.org/2000/svg" width="150" height="140" viewBox="0 0 150 140">
    <defs>
        <style>
            .cls-1{fill:url(#linear-gradient)}.cls-2{fill:url(#linear-gradient-2)}.cls-3{fill:#fff}.cls-4{fill:#fdd33a}.cls-5{fill:#ef3a50}.cls-6{fill:#ce2844}.cls-7{fill:#ffda00}.cls-8{fill:#e0af24}.cls-9{fill:url(#linear-gradient-3)}.cls-10{opacity:.15;fill:url(#linear-gradient-4)}.cls-11{fill:#b4d2d7}
        </style>
        <linearGradient id="linear-gradient" x1=".864" x2=".5" y1=".148" y2="1.04" gradientUnits="objectBoundingBox">
            <stop offset="0" stop-color="#be95ff"/>
            <stop offset="1" stop-color="#4f2da7"/>
        </linearGradient>
        <linearGradient id="linear-gradient-2" x1=".834" x2=".5" y1=".176" y2="1" gradientUnits="objectBoundingBox">
            <stop offset="0" stop-color="#0097fd"/>
            <stop offset="1" stop-color="#02137f"/>
        </linearGradient>
        <linearGradient id="linear-gradient-3" x1=".697" x2=".296" y1=".042" y2="1.072" gradientUnits="objectBoundingBox">
            <stop offset="0" stop-color="#ffda00"/>
            <stop offset="1" stop-color="#ff5b41"/>
        </linearGradient>
        <linearGradient id="linear-gradient-4" x1=".5" x2=".5" y2="1" gradientUnits="objectBoundingBox">
            <stop offset="0" stop-color="#ff2300"/>
            <stop offset="1" stop-color="#801200"/>
        </linearGradient>
    </defs>
    <g id="ic_tasks_reminders" transform="translate(-.5 -2.245)">
        <g id="Group_900" data-name="Group 900" transform="translate(.5 2.245)">
            <path id="Path_8490" d="M161.818 81.242c0 29.012-17.954 53.9-43.532 64.513a4.209 4.209 0 0 1-5.871-3.8v-7.092c0-44.288-36.518-80.19-81.564-80.19a3.847 3.847 0 0 1-3.468-5.618 71.34 71.34 0 0 1 63.34-37.81c39.354.056 71.095 31.309 71.095 70zm0 0" class="cls-1" data-name="Path 8490" transform="translate(-19.42 -11.242)"/>
            <path id="Path_8491" d="M187.935 188.095a71.4 71.4 0 0 1-23.248 15.731 22.422 22.422 0 0 1-6.283 1.09c-36.205 2.6-66.951-25.813-66.951-61.5V93.405a1.441 1.441 0 0 1 1.453-1.428h95.029zm0 0" class="cls-2" data-name="Path 8491" transform="translate(-65.589 -69.405)"/>
            <path id="Path_8492" d="M99.6 242.108a72.021 72.021 0 0 1-28.068 5.581C32.372 247.6.467 216.126.5 177.627a68.752 68.752 0 0 1 8.167-32.51h89.478a1.441 1.441 0 0 1 1.453 1.428zm0 0" class="cls-3" data-name="Path 8492" transform="translate(-.5 -107.689)"/>
        </g>
        <g id="notice" transform="translate(75.222 8.902)">
            <path id="Path_8479" d="M151.37 125.263H90.195V88.447a30.588 30.588 0 1 1 61.175 0zm0 0" class="cls-4" data-name="Path 8479" transform="translate(-83.144 -46.791)"/>
            <path id="Path_8480" d="M230.961 13.3a30.864 30.864 0 0 1 4.527.334v-9.1a4.527 4.527 0 1 0-9.054 0v9.1a30.865 30.865 0 0 1 4.527-.334zm0 0" class="cls-5" data-name="Path 8480" transform="translate(-193.323)"/>
            <path id="Path_8481" d="M233.225.607a4.526 4.526 0 0 0-6.791 3.92v9.1a30.864 30.864 0 0 1 4.527-.334V4.527a4.524 4.524 0 0 1 2.263-3.92zm0 0" class="cls-6" data-name="Path 8481" transform="translate(-193.323)"/>
            <path id="Path_8482" d="M192.457 435.145a11.026 11.026 0 1 0 22.053 0 11.151 11.151 0 0 0-.15-1.813h-21.752a11.056 11.056 0 0 0-.151 1.813zm0 0" class="cls-7" data-name="Path 8482" transform="translate(-165.845 -350.442)"/>
            <path id="Path_8483" d="M199.488 435.145a11.066 11.066 0 0 1 .151-1.813h-7.031A11.025 11.025 0 0 0 207 445.6a11.029 11.029 0 0 1-7.512-10.455zm0 0" class="cls-8" data-name="Path 8483" transform="translate(-165.845 -350.442)"/>
            <path id="Path_8484" d="M151.37 125.263H90.195V88.447a30.588 30.588 0 1 1 61.175 0zm0 0" class="cls-9" data-name="Path 8484" transform="translate(-83.144 -46.791)"/>
            <path id="Path_8485" d="M127.814 58.673A30.608 30.608 0 0 0 90.2 88.447v36.816h14.063V88.447a30.6 30.6 0 0 1 23.556-29.774zm0 0" class="cls-10" data-name="Path 8485" transform="translate(-83.145 -46.792)"/>
            <path id="Path_8486" d="M124.051 404.224H57.9a4.563 4.563 0 1 1 0-9.126h66.151a4.563 4.563 0 1 1 0 9.126zm0 0" class="cls-5" data-name="Path 8486" transform="translate(-53.336 -319.521)"/>
            <path id="Path_8487" d="M70.483 399.661a4.563 4.563 0 0 1 4.563-4.563H57.9a4.563 4.563 0 0 0 0 9.126h17.146a4.563 4.563 0 0 1-4.563-4.563zm0 0" class="cls-6" data-name="Path 8487" transform="translate(-53.336 -319.52)"/>
        </g>
        <path id="Path_9210" d="M262.388 236.919h-40.114a2.857 2.857 0 0 1 0-5.714h40.114a2.857 2.857 0 0 1 0 5.714z" class="cls-11" data-name="Path 9210" transform="translate(-202.4 -148.942)"/>
        <path id="Path_9219" d="M262.388 236.919h-40.114a2.857 2.857 0 0 1 0-5.714h40.114a2.857 2.857 0 0 1 0 5.714z" class="cls-11" data-name="Path 9219" transform="translate(-202.4 -160.143)"/>
        <path id="Path_9220" d="M262.388 236.919h-40.114a2.857 2.857 0 0 1 0-5.714h40.114a2.857 2.857 0 0 1 0 5.714z" class="cls-11" data-name="Path 9220" transform="translate(-202.4 -137.743)"/>
        <path id="Path_9221" d="M262.388 236.919h-40.114a2.857 2.857 0 0 1 0-5.714h40.114a2.857 2.857 0 0 1 0 5.714z" class="cls-11" data-name="Path 9221" transform="translate(-202.4 -126.543)"/>
        <path id="Path_9222" d="M240.2 196.168h-17.927a2.857 2.857 0 0 1 0-5.714H240.2a2.857 2.857 0 0 1 0 5.714z" class="cls-11" data-name="Path 9222" transform="translate(-202.399 -136.133)"/>
    </g>
</svg>
