<svg xmlns="http://www.w3.org/2000/svg" width="40" height="40" viewBox="0 0 40 40">
    <defs>
        <style>
            .cls-1{fill:#845ffa}.cls-2{fill:#fff}
        </style>
    </defs>
    <g id="ic_viber" transform="translate(-682 -1617)">
        <g id="Group_2886" data-name="Group 2886" transform="translate(682 1617)">
            <circle id="Ellipse_269" cx="20" cy="20" r="20" class="cls-1" data-name="Ellipse 269"/>
            <g id="viber" transform="translate(11.333 11.333)">
                <path id="Path_10772" d="M256.272.119c.149-.119.239-.119.716-.119a6.8 6.8 0 0 1 .806.06 6.951 6.951 0 0 1 2.477.686 7.952 7.952 0 0 1 2.148 1.492 6.64 6.64 0 0 1 1.462 1.969 9.122 9.122 0 0 1 .925 3.819c.03.477 0 .6-.119.746a.535.535 0 0 1-.865-.09c-.06-.09-.06-.179-.089-.567a10.057 10.057 0 0 0-.149-1.462 6.63 6.63 0 0 0-2.656-4.326 6.709 6.709 0 0 0-3.849-1.313c-.567 0-.656 0-.776-.119a.531.531 0 0 1-.03-.776" class="cls-2" data-name="Path 10772" transform="translate(-247.483)"/>
                <path id="Path_10773" d="M265.488 65.869a5.633 5.633 0 0 0-2.208-.656.753.753 0 0 1-.537-.209.456.456 0 0 1-.06-.6c.149-.239.388-.269 1.074-.149a5.574 5.574 0 0 1 3.968 2.327 5.179 5.179 0 0 1 .9 2.477 5.971 5.971 0 0 1 0 1.044.475.475 0 0 1-.268.269.54.54 0 0 1-.477-.03c-.209-.119-.3-.269-.3-.746a4.188 4.188 0 0 0-.537-2.089 4.109 4.109 0 0 0-1.551-1.641" class="cls-2" data-name="Path 10773" transform="translate(-253.745 -62.02)"/>
                <path id="Path_10774" d="M278.962 135.165a.537.537 0 0 1-.656 0c-.149-.09-.179-.209-.209-.507a3.047 3.047 0 0 0-.209-.9 1.579 1.579 0 0 0-1.432-.9c-.358-.03-.448-.09-.567-.209a.519.519 0 0 1 .149-.776c.119-.06.149-.06.388-.03a2.319 2.319 0 0 1 .477.06 2.951 2.951 0 0 1 1.373.656 2.589 2.589 0 0 1 .835 1.731c.06.507.03.716-.149.865" class="cls-2" data-name="Path 10774" transform="translate(-266.473 -127.377)"/>
                <path id="Path_10775" d="M17.914 22.337a1 1 0 0 0-.269-.686 17.96 17.96 0 0 0-2-1.581c-.448-.3-1.134-.716-1.432-.865a1.614 1.614 0 0 0-1.223-.119 1.458 1.458 0 0 0-.209.09c-.179.09-.328.269-.686.686a4.889 4.889 0 0 1-.477.567.029.029 0 0 0-.03.03.991.991 0 0 1-.179.09c-.388.179-.9.06-1.731-.328A7.981 7.981 0 0 1 7.8 18.906a7.825 7.825 0 0 1-1.432-1.641 4.425 4.425 0 0 1-.717-1.965 1.4 1.4 0 0 1 .179-.627l.03-.03.03-.03c.03-.03.06-.06.09-.06.119-.089.269-.239.418-.358.686-.537.835-.716.925-1.014a1.653 1.653 0 0 0-.3-1.223 14.453 14.453 0 0 0-2.566-3.227c-.09-.06-.239-.119-.328-.179a2.216 2.216 0 0 0-.746-.06A4.538 4.538 0 0 0 2.04 9.3a6.348 6.348 0 0 0-1.193 1.132c-.328.567-.3 1.014.09 2.118a19.932 19.932 0 0 0 1.373 2.924l.03.03c.119.179.239.388.358.567 0 .03.03.03.03.06.119.179.239.388.358.567.06.06.09.149.149.209a3.619 3.619 0 0 0 .3.418c.149.209.3.418.477.627a22.709 22.709 0 0 0 6 5.46c.03.03.06.03.09.06l1.074.627c.06.03.09.06.149.09.358.209.746.388 1.134.567.03.03.09.03.119.06.388.179.806.358 1.223.537a1.9 1.9 0 0 0 1.074.209 1.394 1.394 0 0 0 .507-.09 2.293 2.293 0 0 0 .716-.358c.06-.03.09-.06.149-.089a.791.791 0 0 0 .179-.149 6.907 6.907 0 0 0 .985-1.074 3.5 3.5 0 0 0 .448-.746c.03-.3.06-.507.06-.716" class="cls-2" data-name="Path 10775" transform="translate(-.621 -8.194)"/>
            </g>
        </g>
    </g>
</svg>
