<svg xmlns="http://www.w3.org/2000/svg" width="52" height="52" viewBox="0 0 52 52">
    <defs>
        <linearGradient id="dw5610obxa" x1=".5" x2=".5" y2="1" gradientUnits="objectBoundingBox">
            <stop offset="0" stop-color="#61fd7d"/>
            <stop offset="1" stop-color="#25cf43"/>
        </linearGradient>
    </defs>
    <g>
        <circle cx="26" cy="26" r="26" fill="url(#dw5610obxa)"/>
        <path fill="#fff" d="M2.193 23.189a15.46 15.46 0 1 1 13.4 7.743h-.006A15.448 15.448 0 0 1 8.2 29.05L0 31.2zm6.851 3.341a12.828 12.828 0 0 0 6.54 1.791h.005A12.851 12.851 0 1 0 4.7 22.3l.305.486-1.3 4.742 4.863-1.276zm9.068-3.861a22.232 22.232 0 0 1-2.2-.814c-3.875-1.673-6.406-5.575-6.6-5.833a7.515 7.515 0 0 1-1.577-4A4.333 4.333 0 0 1 9.086 8.8a1.419 1.419 0 0 1 1.03-.483c.258 0 .515 0 .74.014h.087c.225 0 .506 0 .782.662.322.773 1.094 2.675 1.191 2.868a.711.711 0 0 1 .032.677 2.635 2.635 0 0 1-.386.644c-.193.226-.406.5-.579.677-.193.193-.395.4-.169.788a11.643 11.643 0 0 0 2.149 2.676 10.552 10.552 0 0 0 3.106 1.917c.386.193.612.161.837-.1s.966-1.128 1.223-1.515.515-.322.869-.193 2.253 1.064 2.64 1.257.644.29.74.451a3.229 3.229 0 0 1-.225 1.837 3.978 3.978 0 0 1-2.607 1.837 6.318 6.318 0 0 1-.937.074 4.9 4.9 0 0 1-1.496-.219z" transform="translate(10.395 9.579)"/>
    </g>
</svg>
