<svg xmlns="http://www.w3.org/2000/svg" width="40" height="40" viewBox="0 0 40 40">
    <defs>
        <style>
            .cls-1{fill:#55cd6c}.cls-2{fill:#fefefe}
        </style>
    </defs>
    <g id="ic_whatsapp" transform="translate(-852 -449)">
        <circle id="Ellipse_273" cx="20" cy="20" r="20" class="cls-1" data-name="Ellipse 273" transform="translate(852 449)"/>
        <path id="Path_10795" d="M133.85 135.126l-1.209-.064a1.445 1.445 0 0 0-1.018.382 5.273 5.273 0 0 0-1.782 2.737c-.445 1.909.255 4.2 1.909 6.491a19.286 19.286 0 0 0 10.437 7.573 5.17 5.17 0 0 0 4.327-.509 3.755 3.755 0 0 0 1.655-2.418l.191-.891a.64.64 0 0 0-.318-.7l-4.009-1.846a.607.607 0 0 0-.764.191l-1.591 2.036a.5.5 0 0 1-.509.127 12.368 12.368 0 0 1-6.682-5.728.48.48 0 0 1 .064-.509l1.527-1.718a.784.784 0 0 0 .127-.636l-1.846-4.137a.555.555 0 0 0-.509-.382" class="cls-2" data-name="Path 10795" transform="translate(732.957 325.271)"/>
    </g>
</svg>
