<?xml version="1.0" encoding="UTF-8"?>
<svg width="37px" height="35px" viewBox="0 0 37 35" version="1.1" xmlns="http://www.w3.org/2000/svg" xmlns:xlink="http://www.w3.org/1999/xlink">
    <!-- Generator: sketchtool 49 (51002) - http://www.bohemiancoding.com/sketch -->
    <title>CF4EED3B-4CEB-45E2-BAB7-A368B3598838</title>
    <desc>Created with sketchtool.</desc>
    <defs></defs>
    <g id="Page-1" stroke="none" stroke-width="1" fill="none" fill-rule="evenodd">
        <g id="popup-2" transform="translate(-162.000000, -259.000000)" fill="#FFFFFF" fill-rule="nonzero">
            <g id="modal-" transform="translate(24.000000, 220.000000)">
                <g id="icon-delete_selected" transform="translate(138.000000, 39.000000)">
                    <rect id="Rectangle-path" x="26.25" y="28.875" width="8.75" height="2.625"></rect>
                    <path d="M21.7561032,27.2764144 L16.2078849,25.375 C15.0441987,26.5460819 13.4765225,27.2941719 11.8127215,27.2941719 C10.1484775,27.2941719 8.58257317,26.5460819 7.41755808,25.375 L1.86756792,27.2764144 C0.839431028,27.6297424 0,28.8281435 0,29.9418551 L0,35 L23.625,35 L23.625,29.9418551 C23.625,28.8281435 22.7833541,27.6297424 21.7561032,27.2764144 Z" id="Shape"></path>
                    <path d="M20.45092,5.75600127 L21.227837,10.5465775 C21.5353125,12.4462273 23.316938,14 25.1877748,14 C27.0586115,14 28.8406701,12.4462273 29.1481456,10.5465775 L29.9246295,5.75600127 C30.4343459,2.58917542 28.3041038,0 25.1873417,0 C22.0705796,0 19.9390383,2.58917542 20.45092,5.75600127 Z" id="Shape"></path>
                    <path d="M37,18.3094753 C37,17.2196256 36.1740687,16.0459755 35.1669626,15.7000764 L29.7247661,13.8386398 C28.5834082,14.9842078 27.0462462,15.7174605 25.4139348,15.7174605 C23.7820579,15.7174605 22.2461994,14.9842078 21.1031035,13.8386398 L18.4384866,14.7492995 C17.8602044,12.7661742 16.1149303,11.375 13.8283041,11.375 C10.701409,11.375 8.56293776,13.9634488 9.07604921,17.1304763 L9.85505753,21.9222491 C10.1635327,23.8211284 11.9509505,25.375 13.8283041,25.375 C15.2368624,25.375 16.5945874,24.5 17.315811,23.261271 L37,23.261271 L37,18.3094753 Z" id="Shape"></path>
                </g>
            </g>
        </g>
    </g>
</svg>