<svg xmlns="http://www.w3.org/2000/svg" xmlns:xlink="http://www.w3.org/1999/xlink" width="661.98" height="571.584" viewBox="0 0 661.98 571.584">
    <defs>
        <style>
            .cls-1{fill:url(#linear-gradient)}.cls-2{fill:url(#linear-gradient-2)}.cls-3{fill:#071828}.cls-4{fill:url(#linear-gradient-6)}.cls-5{fill:#fff}.cls-6{fill:#9d7ada}.cls-13,.cls-7{fill:#6c63ff}.cls-16,.cls-7{opacity:.2}.cls-8{fill:url(#linear-gradient-35)}.cls-9{fill:url(#linear-gradient-36)}.cls-10{fill:#65617d}.cls-11{opacity:.1}.cls-12{fill:#fbbebe}.cls-14{fill:#3f3d56}.cls-15{fill:#e7effd}.cls-17{fill:url(#linear-gradient-38)}.cls-18{opacity:.8;fill:url(#linear-gradient-39)}.cls-19{fill:url(#linear-gradient-40)}.cls-20{fill:#be6f72}.cls-21{fill:#444053}.cls-22{fill:#f3f5f9}.cls-23{fill:#67647e}.cls-24{fill:none}.cls-25{fill:url(#linear-gradient-76)}.cls-26{opacity:.55}.cls-27{fill:url(#linear-gradient-81)}.cls-28{fill:#f0a}.cls-29{fill:#ec5569}.cls-30{fill:#fff5f5}.cls-31{fill:#dce6eb}.cls-32{opacity:.7}.cls-33{opacity:.85;fill:url(#linear-gradient-82)}.cls-34{filter:url(#Path_7582)}.cls-35{filter:url(#Path_7532)}.cls-36{filter:url(#Path_7528)}
        </style>
        <linearGradient id="linear-gradient" x1=".5" x2=".5" y2="1" gradientUnits="objectBoundingBox">
            <stop offset="0" stop-color="#3f3d56"/>
            <stop offset="1" stop-color="#0d0c11"/>
        </linearGradient>
        <linearGradient id="linear-gradient-2" x1=".5" x2=".5" y2="1" gradientUnits="objectBoundingBox">
            <stop offset="0" stop-color="#35e7c1"/>
            <stop offset="1" stop-color="#2e1ec0"/>
        </linearGradient>
        <linearGradient id="linear-gradient-6" x1=".5" x2=".5" y2="1" gradientUnits="objectBoundingBox">
            <stop offset="0" stop-color="#2e1ec0"/>
            <stop offset="1" stop-color="#35e7c1"/>
        </linearGradient>
        <filter id="Path_7528" width="210.256" height="141.568" x="345.766" y="0" filterUnits="userSpaceOnUse">
            <feOffset dy="10"/>
            <feGaussianBlur result="blur" stdDeviation="10"/>
            <feFlood flood-color="#2929cc" flood-opacity=".161"/>
            <feComposite in2="blur" operator="in"/>
            <feComposite in="SourceGraphic"/>
        </filter>
        <filter id="Path_7532" width="572.7" height="467.233" x="0" y="97.485" filterUnits="userSpaceOnUse">
            <feOffset dy="20"/>
            <feGaussianBlur result="blur-2" stdDeviation="25"/>
            <feFlood flood-color="#2929cc" flood-opacity=".161"/>
            <feComposite in2="blur-2" operator="in"/>
            <feComposite in="SourceGraphic"/>
        </filter>
        <linearGradient id="linear-gradient-35" x1=".008" x2="1" y2="1" gradientUnits="objectBoundingBox">
            <stop offset="0" stop-color="#9d7ada"/>
            <stop offset="1" stop-color="#8540ff"/>
        </linearGradient>
        <linearGradient id="linear-gradient-36" x1=".501" x2=".501" y1="1" gradientUnits="objectBoundingBox">
            <stop offset="0" stop-color="gray" stop-opacity=".251"/>
            <stop offset=".54" stop-color="gray" stop-opacity=".122"/>
            <stop offset="1" stop-color="gray" stop-opacity=".102"/>
        </linearGradient>
        <filter id="Path_7582" width="254.958" height="121.992" x="355.11" y="96.143" filterUnits="userSpaceOnUse">
            <feOffset dy="10"/>
            <feGaussianBlur result="blur-3" stdDeviation="10"/>
            <feFlood flood-color="#2929cc" flood-opacity=".161"/>
            <feComposite in2="blur-3" operator="in"/>
            <feComposite in="SourceGraphic"/>
        </filter>
        <linearGradient id="linear-gradient-38" x1="1" x2="0" y1="1" gradientUnits="objectBoundingBox">
            <stop offset="0" stop-color="#8540ff"/>
            <stop offset="1" stop-color="#9d7ada"/>
        </linearGradient>
        <linearGradient id="linear-gradient-39" x1=".5" x2=".5" y2="1" gradientUnits="objectBoundingBox">
            <stop offset="0" stop-color="#9d7ada"/>
            <stop offset="1" stop-color="#591ec0"/>
        </linearGradient>
        <linearGradient id="linear-gradient-40" x1="-4.618" x2="-4.618" y1="1" xlink:href="#linear-gradient-36"/>
        <linearGradient id="linear-gradient-76" x1=".097" x2=".681" y1=".323" y2=".902" xlink:href="#linear-gradient-39"/>
        <linearGradient id="linear-gradient-81" x1=".5" x2=".5" y1="1" gradientUnits="objectBoundingBox">
            <stop offset="0" stop-color="#ff416c"/>
            <stop offset="1" stop-color="#f08"/>
        </linearGradient>
        <linearGradient id="linear-gradient-82" y2="1" xlink:href="#linear-gradient-81"/>
    </defs>
    <g id="ill_feedback" transform="translate(-264.664 -8450.676)">
        <g id="Group_404" data-name="Group 404" transform="translate(273.958 8955.217)">
            <ellipse id="Ellipse_113" cx="107.448" cy="13.944" class="cls-1" data-name="Ellipse 113" rx="107.448" ry="13.944"/>
        </g>
        <g id="Group_414" data-name="Group 414" transform="translate(268.64 8860.86)">
            <path id="Path_7969" d="M380.6 84.474c0 22.578-13.423 30.462-29.981 30.462s-29.98-7.883-29.98-30.462 29.98-51.3 29.98-51.3S380.6 61.9 380.6 84.474z" class="cls-2" data-name="Path 7969" transform="translate(-320.635 -33.173)"/>
            <path id="Path_7970" d="M360.021 78.309l.307-18.9 12.778-23.377-12.73 20.417.139-8.5 8.806-16.913-8.77 14.664.248-15.281 9.431-13.465-9.391 11.066.154-28.02-.975 37.094.08-1.53-9.588-14.676 9.435 17.612-.893 17.066-.027-.453-11.053-15.443 11.02 17.045-.111 2.134-.02.032.009.175-2.267 43.3h3.028l.364-22.365 10.992-17z" class="cls-3" data-name="Path 7970" transform="translate(-331.133)"/>
        </g>
        <path id="Path_7492" d="M673.487 726.183s-9.26-6.113-18.437-1.764c0 0 2.826 5.45 14.444 4.929z" class="cls-2" data-name="Path 7492" transform="translate(105.333 8167.339)"/>
        <path id="Path_7493" d="M678.991 727.7s2.818 10.741-4.249 18.037c0 0-4.25-4.424 0-15.263z" class="cls-2" data-name="Path 7493" transform="translate(100.943 8166.147)"/>
        <path id="Path_7494" d="M689.385 711.806s-.678-9.128-21.285-6.1c0 0-.1 5.887 7.135 8.683s10.541.432 14.15-2.583z" class="cls-2" data-name="Path 7494" transform="translate(102.115 8171.714)"/>
        <path id="Path_7495" d="M696.024 714s8.71 2.8.942 22.13c0 0-5.749-1.281-6.781-8.969s2.071-10.395 5.839-13.161z" class="cls-4" data-name="Path 7495" transform="translate(96.72 8169.52)"/>
        <path id="Path_7496" d="M707.006 692.331s1.176-15.022-19.876-13.477c0 0-1.507 13.567 16.162 17.087z" class="cls-2" data-name="Path 7496" transform="translate(97.432 8178.204)"/>
        <path id="Path_7497" d="M724.168 670.058s-2.886-17.02-23.937-11.947c0 0-.075 14.713 20.5 16z" class="cls-2" data-name="Path 7497" transform="translate(94.194 8183.516)"/>
        <path id="Path_7498" d="M737.076 646.9s-4.83-16.582-25.686-11.615c0 0 4.966 14.909 24.307 14.675z" class="cls-2" data-name="Path 7498" transform="translate(91.443 8189.133)"/>
        <path id="Path_7499" d="M750.174 624.045s-4.732-17.215-24.864-12.06c0 0 6.713 16.349 23.531 14.969z" class="cls-2" data-name="Path 7499" transform="translate(88.011 8194.881)"/>
        <path id="Path_7500" d="M759.238 601.144s-3.632-21.052-22.408-16.393c0 0 5.455 19.145 21.029 19.454z" class="cls-2" data-name="Path 7500" transform="translate(85.171 8201.516)"/>
        <path id="Path_7501" d="M766.677 575.351s-4.363-21.21-23.357-15.075c0 0 7.452 20.049 22.016 17.977z" class="cls-2" data-name="Path 7501" transform="translate(83.571 8207.652)"/>
        <path id="Path_7502" d="M772.049 549.634s-6.924-21.21-21.609-20.634c0 0 7.075 22.4 20.344 24.873z" class="cls-2" data-name="Path 7502" transform="translate(81.816 8215.083)"/>
        <path id="Path_7503" d="M775.784 524.966S768.25 499.43 756.3 501.4c0 0 5.214 19.514 19.063 27.542z" class="cls-2" data-name="Path 7503" transform="translate(80.371 8221.901)"/>
        <path id="Path_7504" d="M777.727 497.192s-7.06-21.278-18.837-22.122c0 0 4.807 20.931 18.6 27.655z" class="cls-2" data-name="Path 7504" transform="translate(79.732 8228.358)"/>
        <path id="Path_7505" d="M780.366 470.973s-8.808-21.3-16.576-21.783c0 0 3.828 20.977 15.823 25.28z" class="cls-2" data-name="Path 7505" transform="translate(78.524 8234.731)"/>
        <path id="Path_7506" d="M782.768 445.384s-5.417-23.132-13.208-25.054c0 0 1.07 18.926 12.425 26.788z" class="cls-2" data-name="Path 7506" transform="translate(77.102 8241.84)"/>
        <path id="Path_7507" d="M787.068 414.548s-5.711-18.459-12.018-21.248c0 0 1.243 21.738 10.549 25.755z" class="cls-2" data-name="Path 7507" transform="translate(75.748 8248.496)"/>
        <path id="Path_7508" d="M792.66 389.786l1.145-32.516s-11.769 24.542-2.012 38.252z" class="cls-2" data-name="Path 7508" transform="translate(72.574 8257.37)"/>
        <path id="Path_7509" d="M804.789 349.352s8.491-23.743 10.548-25.062c0 0-16.644 15.4-15.024 35.215z" class="cls-2" data-name="Path 7509" transform="translate(69.547 8265.492)"/>
        <path id="Path_7510" d="M713.163 696.6s14.934-1.975 14.489 19.13c0 0-13.494 2.2-17.9-15.256z" class="cls-2" data-name="Path 7510" transform="translate(91.847 8173.816)"/>
        <path id="Path_7511" d="M731.806 673.52s17.254-.06 15.823 21.549c0 0-14.482 2.593-19.259-17.472z" class="cls-2" data-name="Path 7511" transform="translate(87.256 8179.489)"/>
        <path id="Path_7512" d="M745.256 652.412s15.665-7.349 25.686 11.615c0 0-14.466 6.128-27.072-8.555z" class="cls-2" data-name="Path 7512" transform="translate(83.435 8185.032)"/>
        <path id="Path_7513" d="M758.336 627.974s16.041-7.824 25.459 10.711c0 0-16.712 5.751-26.785-7.786z" class="cls-2" data-name="Path 7513" transform="translate(80.196 8191.109)"/>
        <path id="Path_7514" d="M766.068 605.194s15.438-14.751 27.758.166c0 0-15.77 12.143-28.466 3.12z" class="cls-2" data-name="Path 7514" transform="translate(78.137 8197.918)"/>
        <path id="Path_7515" d="M772.977 577.877s15.529-15.075 27.75.7c0 0-17.435 12.376-28.307 2.472z" class="cls-2" data-name="Path 7515" transform="translate(76.397 8204.642)"/>
        <path id="Path_7516" d="M777 550.6s11.965-18.843 26.055-14.63c0 0-12.417 19.944-25.919 19.054z" class="cls-2" data-name="Path 7516" transform="translate(75.267 8213.515)"/>
        <path id="Path_7517" d="M781.589 525.989s12.055-23.735 23.463-19.6c0 0-8.695 18.233-23.772 23.6z" class="cls-2" data-name="Path 7517" transform="translate(74.212 8220.766)"/>
        <path id="Path_7518" d="M782.4 497.4s12.4-18.687 24-16.4c0 0-10.127 18.941-25.2 21.806z" class="cls-2" data-name="Path 7518" transform="translate(74.232 8226.948)"/>
        <path id="Path_7519" d="M784.05 470.632s9.607-20.954 17.412-21.142c0 0-4.611 20.818-16.764 24.662z" class="cls-2" data-name="Path 7519" transform="translate(73.529 8234.66)"/>
        <path id="Path_7520" d="M786.58 446.051s10.677-21.225 18.693-21.271c0 0-5.463 18.15-18.339 23.14z" class="cls-2" data-name="Path 7520" transform="translate(72.906 8240.744)"/>
        <path id="Path_7521" d="M788.71 416.817s7.987-17.57 14.594-19.6c0 0-3.993 21.406-13.721 24.218z" class="cls-2" data-name="Path 7521" transform="translate(72.381 8247.532)"/>
        <path id="Path_7522" d="M794.617 390.712l17.849-27.2s-4.573 26.833-20.456 32.411z" class="cls-2" data-name="Path 7522" transform="translate(71.567 8255.832)"/>
        <path id="Path_7523" d="M808.9 355.005s20.743-14.321 21.5-16.635c0 0-10.548 20.065-30.138 23.607z" class="cls-2" data-name="Path 7523" transform="translate(69.533 8262.024)"/>
        <path id="Path_7525" d="M789 408.44l.874.105c4.475-35.041 11-55.777 18.369-58.317l-.286-.829c-7.806 2.714-14.357 23.133-18.957 59.041z" class="cls-3" data-name="Path 7525" transform="translate(72.309 8259.307)"/>
        <path id="Path_7526" d="M780.28 510.674l1.311.113c.279-3.279.49-6.625.633-9.957 1.251-29.011 3.187-55.641 5.734-75.615l-.753-.935c-2.554 20-5.033 47.486-6.284 76.49a249.622 249.622 0 0 1-.641 9.904z" class="cls-3" data-name="Path 7526" transform="translate(74.459 8240.867)"/>
        <path id="Path_7527" d="M646.828 696.732c.226-.1 23.3-10.409 47.257-35a190.1 190.1 0 0 0 34.546-48.993c11.076-22.552 17.827-50.282 20.087-77.213l-1.364.648c-5.086 60.442-32.595 101.755-54.468 124.246-23.718 24.38-46.54 34.58-46.766 34.68z" class="cls-3" data-name="Path 7527" transform="translate(107.534 8213.472)"/>
        <g class="cls-36" transform="translate(264.66 8450.68)">
            <path id="Path_7528-2" d="M586.784 185.456v52.878c0 3.9-2.9 7.085-6.487 7.085h-137.28c-3.583 0-6.487-3.181-6.487-7.085v-74c0-3.915 150.254 17.21 150.254 21.122z" class="cls-5" data-name="Path 7528" transform="translate(-60.76 -143.85)"/>
        </g>
        <path id="Rectangle_3006" d="M0 0h92.781v3.279H0z" class="cls-6" data-name="Rectangle 3006" transform="translate(681.292 8506.99)"/>
        <path id="Rectangle_3007" d="M0 0h92.781v3.279H0z" class="cls-7" data-name="Rectangle 3007" transform="translate(681.292 8514.979)"/>
        <path id="Rectangle_3008" d="M0 0h92.781v3.279H0z" class="cls-7" data-name="Rectangle 3008" transform="translate(681.292 8522.962)"/>
        <path id="Rectangle_3009" d="M0 0h92.781v3.279H0z" class="cls-7" data-name="Rectangle 3009" transform="translate(681.292 8530.945)"/>
        <g class="cls-35" transform="translate(264.66 8450.68)">
            <path id="Path_7532-2" d="M519.37 359.165V643.92c0 8.465-8.167 15.354-18.249 15.354h-386.2c-10.081 0-18.249-6.889-18.249-15.354V359.165c0-8.48 8.168-17.125 18.249-17.125h386.2c10.079-.03 18.249 8.645 18.249 17.125z" class="cls-5" data-name="Path 7532" transform="translate(-21.67 -189.55)"/>
        </g>
        <path id="Path_7533" d="M519.373 360.286v44.757H96.68v-44.757A18.245 18.245 0 0 1 114.921 342h386.2a18.245 18.245 0 0 1 18.249 18.286z" class="cls-8" data-name="Path 7533" transform="translate(242.992 8261.13)"/>
        <ellipse id="Ellipse_95" cx="12.199" cy="12.203" class="cls-5" data-name="Ellipse 95" rx="12.199" ry="12.203" transform="translate(350.65 8622.463)"/>
        <ellipse id="Ellipse_96" cx="12.199" cy="12.203" class="cls-5" data-name="Ellipse 96" rx="12.199" ry="12.203" transform="translate(386.153 8622.463)"/>
        <ellipse id="Ellipse_97" cx="12.199" cy="12.203" class="cls-5" data-name="Ellipse 97" rx="12.199" ry="12.203" transform="translate(421.648 8622.463)"/>
        <path id="Path_7536" d="M189.509 717.771s-11.792 2.842-16.463 8.193a16.007 16.007 0 0 1-6.284 3.995v-8.08c2.7-4.523 5.425-9.573 5.425-9.573.121-.249 1.1-3.724 1.1-3.724 2.215-1.741-.121-7.824-.121-7.824s1.349-3.852.618-4.6-.128-2.729.49-3.6a4.523 4.523 0 0 0 .49-2.736c0-.754-.98-1.862-2.577-2.48s.121-1.613 1.1-1.862 1.228-2.608.128-3.852.121-1.982.753-3.354-1.959-1.115-1.959-1.115v-12.527s-.753-4.1-1.507-11.306-3.564-7.945-3.564-7.945a31.929 31.929 0 0 1-4.423-1.741 30.614 30.614 0 0 0-4.671-1.734 23.841 23.841 0 0 1-6.028-.836 18.546 18.546 0 0 0-4.114-.889l-.422-.219a16.126 16.126 0 0 1-7.459-7.907c-.075-.166-.143-.339-.211-.505a18.008 18.008 0 0 0 1.967-2.608v1.458c1.967-3.467 7.648-4.259 8.19-8.208a4.38 4.38 0 0 0 .038-.543v-.4c-.075-1.108-.452-2.209-.527-3.324a6.782 6.782 0 0 1 0-.957c.249-3.068 2.569-5.736 3.624-8.721a10.9 10.9 0 0 0 .558-2.487c0-.256.045-.513.053-.754a1.579 1.579 0 0 1 0-.188v-.535a11.64 11.64 0 0 0-3.835-8.4c-1.959-1.7-4.521-2.774-5.907-5-.633-1.033-.942-2.261-1.635-3.256-1.3-1.877-3.684-2.646-5.937-2.917s-4.581-.181-6.744-.9c-1.507-.5-2.923-1.387-4.468-1.839A8.543 8.543 0 0 0 116 585.3c-.814 1.191-1.349 2.615-2.449 3.542-2.26 1.9-6.073 1.078-8.047 3.271a5.829 5.829 0 0 0-1.077 4.522v.829c.068.6.158 1.2.234 1.779v.264c0 .083.045.362.06.543a3.364 3.364 0 0 1 0 .392v.874a26.39 26.39 0 0 1-2.818 13.236c-1.854 3.656-4.619 7.017-5.1 11.1a11.233 11.233 0 0 0-.053 2.013v.6l.045.414v.241c0 .083.053.362.083.55v.113c.49 2.781 1.6 5.525 2.185 8.291A23.078 23.078 0 0 1 99.5 641a7.559 7.559 0 0 0 .045 1.01c.045.339 0 .912 0 1.364a22.74 22.74 0 0 1-2.871.882c-1.718.249-6.781 4.718-6.389 5.834s-2.26 8.954-2.328 9.181l-4.144 28.559s-2.193 2.111-1.507 3.475-.128 3.723-.128 3.723-3.7 1.613-2.878 2.608.445 2.857-.121 4.1-1.507 3.475 0 3.844.256 5.216.256 5.216 5.184-.6 4.807 2.487c-.121.98 3.624 3.678 5.191 4.756v14.834a44.948 44.948 0 0 1-6.148-2.088c-3.195-1.508-21.135-4.342-25.068 4.221s5.41 19.989 7.746 21.233a16.041 16.041 0 0 1 2.7 2.608c.5.867 3.323 1.116 3.323 1.116a21.282 21.282 0 0 1 3.684 2.11c.543.55 5.033 1.982 10.368 3.09s-4.295 9.9 2.72 9.09 10.435-4.274 15.386-4.274c1.974 0 5.643-.271 9.343-.6a23.9 23.9 0 0 1 2.75.648 35.577 35.577 0 0 0 6.389 1.365s5.53 3.015 8.476 2.261a1.932 1.932 0 0 0 .671-.354h.068a3.973 3.973 0 0 0 1.778-1.508c3.692.377 7.9.912 9.479 1.508 3.059 1.183 24.917-.452 24.917-.452s14.127.279 18.174 1.507 2.607-12.5-4.86-14.042a30.063 30.063 0 0 0-6.073-.535 14 14 0 0 0 1.409-1.719c2.69-.249 4.461-.4 4.461-.4s7.128-3.475 11.181-5.585a25.621 25.621 0 0 0 6.887-5.465s3.564-2.261 5.033-3.1 2.215-3.768 2.215-3.768c11.458-25.323-16.933-21.969-16.933-21.969zm-32-31.778v-1.251c.391.286.339.731 0 1.251zm.113 8.781c.3.392.588.754.8 1.018.753 1.017-.648 1.507-.542 3.226 0 .384.06.912.09 1.508-.152-2.451-.27-4.485-.348-5.752z" class="cls-9" data-name="Path 7536" transform="translate(252.709 8202.102)"/>
        <path id="Path_7537" d="M93.747 782.162a72.364 72.364 0 0 1-10.081-3.075c-3.195-1.478-21.135-4.3-25.068 4.183s5.41 19.793 7.746 21.022 25.068-15.618 25.068-15.618l17.94 7.537 3.443-11.743z" class="cls-10" data-name="Path 7537" transform="translate(252.616 8153.902)"/>
        <rect id="Rectangle_3018" width="78.074" height="27.172" class="cls-10" data-name="Rectangle 3018" rx="13.586" transform="translate(353.95 8938.393)"/>
        <path id="Path_7538" d="M193.7 800.385a13.565 13.565 0 0 1-13.562 13.567h-50.932a13.586 13.586 0 0 1 0-27.172h50.912a13.565 13.565 0 0 1 13.562 13.567z" class="cls-11" data-name="Path 7538" transform="translate(238.321 8151.599)"/>
        <path id="Path_7539" d="M145.884 805.88a64.87 64.87 0 0 1-14.218 1.922c-6.389-.09-36.272 12.331-36.272 12.331s-4.295 9.8 2.72 9S108.55 824.9 113.5 824.9s20.509-1.711 20.509-1.711l15.017-11.073z" class="cls-12" data-name="Path 7539" transform="translate(243.629 8146.895)"/>
        <path id="Path_7540" d="M157.267 671.611l-14.037 2.774-.912.181s-11.106-2.955-11.475-3.2-10.443-13.835-10.443-13.835a20.211 20.211 0 0 0 9.1-2.261 4.851 4.851 0 0 0 .422-.256 8.856 8.856 0 0 0 3.767-4.635c.068-.2.136-.414.2-.633a12.546 12.546 0 0 0-.121-6.03c-1.356-5.729 1.786-7.3 5.983-7.168 6.028.2 14.316 3.98 14.316 3.98a16.767 16.767 0 0 0 1.3 5.6c.068.173.143.339.211.505a16.029 16.029 0 0 0 7.459 7.824l.445.219a14.924 14.924 0 0 0 1.409.6c10.693 4.042-7.624 16.335-7.624 16.335z" class="cls-12" data-name="Path 7540" transform="translate(237.144 8188.597)"/>
        <path id="Path_7541" d="M159.861 646.612a17.694 17.694 0 0 1-21.85 3.769 11.913 11.913 0 0 0 .075-6.686c-3.315-14.012 20.276-3.188 20.276-3.188a17.123 17.123 0 0 0 1.5 6.105z" class="cls-11" data-name="Path 7541" transform="translate(232.862 8188.602)"/>
        <path id="Path_7542" d="M161.418 627.593a17.7 17.7 0 0 1-16.618 17.668h-1.07a17.705 17.705 0 1 1 17.691-17.668z" class="cls-12" data-name="Path 7542" transform="translate(235.758 8195.17)"/>
        <path id="Path_7543" d="M157.267 677.468l-14.037 2.774-.912.181s-11.106-2.955-11.475-3.2-10.443-13.835-10.443-13.835a20.211 20.211 0 0 0 9.1-2.261 4.9 4.9 0 0 0 .422-.256 16.5 16.5 0 0 0 11.98 5.276 17.288 17.288 0 0 0 2.5-.2c1.974-.3 3.963-.5 5.952-.7 3.8-.4 9.629-1.552 12.681-4.922l.444.219a14.961 14.961 0 0 0 1.409.6c10.696 4.03-7.621 16.324-7.621 16.324z" class="cls-11" data-name="Path 7543" transform="translate(237.144 8182.739)"/>
        <path id="Path_7544" d="M167.7 713.435c.121 2.706 2.087 33.165 2.087 33.165h-61.326l.414-19.2.332-15.354.113-5.035.49-17.457-1.771-1.523-9.659-8.517c.075-.234 2.69-8 2.328-9.1s4.671-5.533 6.389-5.774a22.749 22.749 0 0 0 2.886-.882c2.9-1.018 6.781-2.518 7.2-2.261.6.324 6.63-.234 6.887-.264a16.422 16.422 0 0 0 12.41 5.691 16.232 16.232 0 0 0 2.5-.2c1.974-.3 3.963-.5 5.952-.7 3.993-.422 10.209-1.673 13.125-5.442a18.749 18.749 0 0 1 4.114.882 24.056 24.056 0 0 0 6.028.829 30.648 30.648 0 0 1 4.671 1.719 32.471 32.471 0 0 0 4.423 1.718s2.825.754 3.564 7.869 1.507 11.193 1.507 11.193l-14.625 12.663s-.169 13.274-.039 15.98z" class="cls-13" data-name="Path 7544" transform="translate(242.572 8182.674)"/>
        <path id="Path_7545" d="M69.658 692.857l2.147 3.445 8.055 2.841 5.53-10.093-5.1-3.445-8.175-3.2-4.664 2.706z" class="cls-12" data-name="Path 7545" transform="translate(271.295 8224.514)"/>
        <path id="Path_7546" d="M189.2 776.723s11.43-.867 16.1-6.15 16.463-8.11 16.463-8.11 28.39-3.324 17.209 21.76c0 0-.753 2.827-2.215 3.686s-5.033 3.075-5.033 3.075L188.1 787.17z" class="cls-10" data-name="Path 7546" transform="translate(220.453 8157.622)"/>
        <path id="Path_7547" d="M204.3 801.533a13.57 13.57 0 0 1-2.26 7.537c-7.339.656-23.591 2.186-26.989 3.128-4.182 1.161-12.636-.859-13.562-1.086h-.089s-1.628-4.944-2.4-8.11c-.354-1.432-.527-2.5-.3-2.585.753-.241 7.535-2.088 7.376-1.048s20.276-7.929 20.276-7.929l.625 7.869c2.062 2.352 17.323-1.191 17.323 2.224z" class="cls-11" data-name="Path 7547" transform="translate(227.727 8150.451)"/>
        <path id="Path_7548" d="M225.551 795.076l-.859 3.2a25.542 25.542 0 0 1-6.887 5.4c-4.054 2.1-11.181 5.532-11.181 5.532s-26.175 2.216-30.606 3.445-13.638-1.078-13.638-1.078-3.443-10.447-2.7-10.7 7.5-2.088 7.376-1.04 20.276-7.929 20.276-7.929z" class="cls-10" data-name="Path 7548" transform="translate(227.486 8150.335)"/>
        <path id="Path_7549" d="M150.41 828.791s12.869.9 15.928 2.073 24.917-.452 24.917-.452 14.127.279 18.174 1.507 2.607-12.376-4.86-13.906-17.993.754-17.993.754l-13.314-1.786c-1.439-.181-10.925.09-10.925.09z" class="cls-12" data-name="Path 7549" transform="translate(229.745 8144.177)"/>
        <path id="Path_7550" d="M83.31 787.66s17.006 1.507 21.677 4.319z" class="cls-11" data-name="Path 7550" transform="translate(246.288 8151.382)"/>
        <path id="Path_7551" d="M218.018 772.85s-13.314 3.241-18.528 8.012z" class="cls-11" data-name="Path 7551" transform="translate(217.645 8155.028)"/>
        <path id="Path_7552" d="M84.62 782.52c.271.091 7.828 1.085 7.648 1.8s-7.648-1.8-7.648-1.8z" class="cls-11" data-name="Path 7552" transform="translate(245.965 8152.647)"/>
        <path id="Path_7553" d="M68.86 805.2l.98 3.686a15.657 15.657 0 0 1 2.7 2.585c.49.867 3.323 1.1 3.323 1.1a20.98 20.98 0 0 1 3.684 2.1c.738.739 8.725 3.068 16.222 4.055s21.383 2.826 24.337 3.769a35.234 35.234 0 0 0 6.389 1.357s5.53 2.947 8.476 2.208 7.987-14.132 7.987-14.132-19.417-4.523-20.027-6.03-19.311-8.314-19.311-8.314l-11.061.264z" class="cls-11" data-name="Path 7553" transform="translate(249.85 8148.938)"/>
        <path id="Path_7554" d="M67.88 803.639l.987 3.686a15.866 15.866 0 0 1 2.7 2.578c.5.867 3.323 1.108 3.323 1.108a20.991 20.991 0 0 1 3.684 2.1c.738.739 8.725 3.068 16.222 4.055s21.383 2.827 24.337 3.769a35.238 35.238 0 0 0 6.389 1.356s5.53 2.948 8.476 2.209 7.994-14.133 7.994-14.133-19.424-4.522-20.035-6.03-28.022-12.667-28.022-12.667l-8.635-1.93z" class="cls-10" data-name="Path 7554" transform="translate(250.092 8150.87)"/>
        <path id="Path_7555" d="M97.389 684.05l-2.147 1.228-4.142 28.281s-2.2 2.088-1.509 3.441-.128 3.693-.128 3.693-3.7 1.6-2.878 2.578.445 2.826-.121 4.055-1.507 3.445 0 3.814.256 5.163.256 5.163 5.184-.588 4.807 2.457c-.158 1.229 5.862 5.163 5.862 5.163s-6.841-12.422 8.484-10.7l1.319-6.995s1.319-3.942 0-5.17.3-7.07.3-7.07l.286-25.386z" class="cls-13" data-name="Path 7555" transform="translate(245.711 8176.896)"/>
        <path id="Path_7556" d="M96.8 732.5c.271.445 8.544 1.364 9.087 2.842S96.8 732.5 96.8 732.5z" class="cls-11" data-name="Path 7556" transform="translate(242.962 8164.965)"/>
        <path id="Path_7557" d="M93.34 740.845s1.123-3.513 3.767-2.88-3.767 2.88-3.767 2.88z" class="cls-11" data-name="Path 7557" transform="translate(243.815 8163.638)"/>
        <path id="Path_7558" d="M91.43 747.193s1.982-4.673 4.679-4.319-4.679 4.319-4.679 4.319z" class="cls-11" data-name="Path 7558" transform="translate(244.286 8162.416)"/>
        <path id="Path_7559" d="M203.088 746.591l-.859 5.163s-8.883 16.228-10.45 16.477-10.322-10.824-10.322-10.824l-2.336-10.816 9.192-1.741 4.084-4.04s10.321.99 10.691 5.781z" class="cls-12" data-name="Path 7559" transform="translate(222.667 8162.918)"/>
        <path id="Path_7560" d="M201.113 688.9l3.323 2.336v12.414s2.577-.249 1.959 1.108-1.838 2.088-.753 3.316.859 3.565-.128 3.814-2.7 1.229-1.1 1.839 2.577 1.726 2.577 2.465a4.433 4.433 0 0 1-.49 2.7c-.618.867-1.228 2.834-.49 3.565s-.618 4.523-.618 4.523 2.336 6.03.121 7.748c0 0-.979 3.437-1.1 3.686 0 0 1.545-11.969-13.916-6.9l-.392-6.256c-.106-1.688 1.334-2.186.542-3.188s-2.788-3.324-1.846-3.935.618-1.726.249-2.585-1.673-.859-.5-1.907 1.876-2.028 1.183-2.518-1.891-2.1-.934-2.826.987-11.434.987-11.434 3.949-15.715 11.326-7.965z" class="cls-13" data-name="Path 7560" transform="translate(220.46 8176.231)"/>
        <path id="Path_7561" d="M203.31 717.474s4.724-1.281 4.882 0-4.882 0-4.882 0z" class="cls-11" data-name="Path 7561" transform="translate(216.703 8168.806)"/>
        <path id="Path_7562" d="M196.26 722.075s6.48-1.621 7.286-.362-7.286.362-7.286.362z" class="cls-11" data-name="Path 7562" transform="translate(218.441 8167.739)"/>
        <path id="Path_7563" d="M194.35 726.734s9.72-1.349 10.345.633-10.345-.633-10.345-.633z" class="cls-11" data-name="Path 7563" transform="translate(218.912 8166.496)"/>
        <path id="Path_7564" d="M196.26 732.5c.362.083 9.358.754 9.539 2.427s-9.539-2.427-9.539-2.427z" class="cls-11" data-name="Path 7564" transform="translate(218.441 8164.965)"/>
        <rect id="Rectangle_3019" width="77.042" height="43.777" class="cls-14" data-name="Rectangle 3019" rx="10" transform="translate(342.429 8902.998)"/>
        <ellipse id="Ellipse_98" cx="2.841" cy="2.842" class="cls-15" data-name="Ellipse 98" rx="2.841" ry="2.842" transform="translate(378.113 8922.044)"/>
        <path id="Path_7565" d="M117.47 704.25s7.384 5.645 13.088 1.342c0-.023-9.675.882-13.088-1.342z" class="cls-11" data-name="Path 7565" transform="translate(237.866 8171.922)"/>
        <path id="Path_7524" d="M813.193 344.423s23.817-22.906 29.9-22.884c0 0-19.643.9-30.47 21.662z" class="cls-2" data-name="Path 7524" transform="translate(66.486 8266.168)"/>
        <path id="Path_7566" d="M167.09 706.27s7.384 5.645 13.1 1.341c-.005.001-9.657.875-13.1-1.341z" class="cls-11" data-name="Path 7566" transform="translate(225.633 8171.424)"/>
        <path id="Path_7567" d="M156.253 627.633a17.657 17.657 0 0 1-2.674 9.367 27.037 27.037 0 0 0-3.993-13.982c-2.456-3.769-9.916-10.387-15.069-8.54a3.662 3.662 0 0 0-2.26 2.412c-.5 1.93.987 2.736 1.936 4.274a13.111 13.111 0 0 1 1.792 8.836 10.98 10.98 0 0 1-.264 1.221c-.806 3.015-2.652 6.5-.753 8.992 1.334 1.734 4.189 2.329 4.581 4.485a2.73 2.73 0 0 1 0 .6c-.09 1.447-1.326 2.729-1.861 4.146a6.777 6.777 0 0 0 .377 5.02c.851 2.2 2.215 4.417 2.547 6.731a13.242 13.242 0 0 1-1.221 6.655 29.6 29.6 0 0 0-2.034 6.256c-.588 4.085.9 8.811-1.665 12.06a1.762 1.762 0 0 1-1.123.754c-1.65.173-1.364-2.781-2.69-3.769a11.648 11.648 0 0 1-.354 5.133c-.625 1.613-2.26 2.97-3.956 2.706-.2-1.289-.392-2.578-.58-3.867a11.248 11.248 0 0 1-4.1 2.563 29.945 29.945 0 0 1 4.272-11.57c-4.325 2.088-6.849 6.6-9.1 10.839-1.409 2.653-2.856 5.555-2.366 8.517.2 1.206.753 2.352.829 3.565s-.324 2.638-1.454 3.1a2.644 2.644 0 0 1-2.856-.882l-.121-.151-.2-.271a4.473 4.473 0 0 1-.324-.588 11.075 11.075 0 0 1-.693-2.261l-.083-.331c-1.138-5.028-2.17-10.206-1.334-15.294a28.581 28.581 0 0 0 .806-5.623 10.33 10.33 0 0 0-.64-3.143c-1-2.811-2.939-5.4-4.039-8.223a.242.242 0 0 1 0-.068c-.58-1.508-.866-3.369.2-4.575a9.157 9.157 0 0 1 2.049-1.387c2.14-1.394 3.1-4.04 3.489-6.565a22.133 22.133 0 0 0 .271-3.452c2.9-1.018 6.781-2.518 7.2-2.261.6.324 6.63-.234 6.887-.264a8.984 8.984 0 0 0 4.219-4.892c.068-.2.136-.414.2-.633a17.7 17.7 0 1 1 26.153-15.64z" class="cls-11" data-name="Path 7567" transform="translate(240.922 8195.13)"/>
        <path id="Path_7568" d="M135.733 624.019c-.806 3.015-2.652 6.5-.753 8.992 1.334 1.733 4.189 2.329 4.581 4.485.3 1.7-1.213 3.136-1.823 4.756-1.462 3.859 2.343 7.658 2.916 11.743.633 4.44-2.6 8.48-3.247 12.912-.588 4.085.9 8.811-1.665 12.06a1.8 1.8 0 0 1-1.123.754c-1.65.173-1.371-2.789-2.69-3.769a11.513 11.513 0 0 1-.354 5.126c-.625 1.613-2.26 2.977-3.956 2.706l-.58-3.867a11.248 11.248 0 0 1-4.1 2.563 29.983 29.983 0 0 1 4.272-11.57c-4.325 2.088-6.849 6.6-9.1 10.839-1.409 2.653-2.856 5.555-2.366 8.51.2 1.214.753 2.359.829 3.573s-.324 2.638-1.454 3.1a2.69 2.69 0 0 1-3.02-1.032 7.737 7.737 0 0 1-1.213-3.128c-1.175-5.126-2.26-10.424-1.416-15.625a28.584 28.584 0 0 0 .806-5.623c-.151-4.153-3.21-7.538-4.709-11.427-.58-1.507-.859-3.377.211-4.583a9.29 9.29 0 0 1 2.057-1.387c2.132-1.395 3.1-4.04 3.489-6.565a22.778 22.778 0 0 0-.234-8.208c-.866-4.048-2.841-7.989-2.351-12.06s3.247-7.364 5.1-10.982a25.959 25.959 0 0 0 2.637-15.188c-.324-2.42-.882-5.231.753-7.04 1.974-2.171 5.794-1.357 8.047-3.241 1.1-.919 1.635-2.329 2.449-3.512a8.6 8.6 0 0 1 9.185-3.279c1.545.445 2.938 1.326 4.468 1.824 2.162.7 4.483.61 6.743.882s4.641 1.033 5.937 2.894c.693.987 1 2.2 1.635 3.226 1.356 2.2 3.948 3.256 5.907 4.945a11.482 11.482 0 0 1 3.225 12.248c-1.168 3.264-3.873 6.143-3.647 9.6.1 1.424.7 2.812.5 4.221-.542 3.919-6.224 4.7-8.19 8.133.158-5.63-.919-11.427-3.993-16.138-2.456-3.769-9.916-10.386-15.069-8.547a3.662 3.662 0 0 0-2.26 2.412c-.5 1.93.979 2.736 1.936 4.274a13.014 13.014 0 0 1 1.62 9.995z" class="cls-14" data-name="Path 7568" transform="translate(240.926 8201.593)"/>
        <g id="Group_385" class="cls-16" data-name="Group 385" transform="translate(346.045 8798.611)">
            <path id="Path_7569" d="M112.826 657.925a22.878 22.878 0 0 0-.49-5.276c-.753-3.437-2.26-6.784-2.411-10.258-.2 3.844 1.6 7.537 2.411 11.367a22.622 22.622 0 0 1 .49 4.168z" data-name="Path 7569" transform="translate(-106.315 -611.457)"/>
            <path id="Path_7570" d="M129.745 699.541c.3-.55.61-1.093.942-1.621-4.325 2.08-6.849 6.6-9.1 10.839-1.3 2.45-2.637 5.118-2.441 7.854.166-2.344 1.319-4.628 2.441-6.783 2.085-3.89 4.398-8.043 8.158-10.289z" data-name="Path 7570" transform="translate(-108.587 -625.131)"/>
            <path id="Path_7571" d="M117.915 725.273a2.63 2.63 0 0 1-1.439 2.163 2.7 2.7 0 0 1-3.014-1.032 7.856 7.856 0 0 1-1.213-3.12 55.9 55.9 0 0 1-1.71-11.163 49.434 49.434 0 0 0 1.71 12.271 7.857 7.857 0 0 0 1.213 3.121 2.682 2.682 0 0 0 3.014 1.025 2.967 2.967 0 0 0 1.462-3.1z" data-name="Path 7571" transform="translate(-106.469 -628.628)"/>
            <path id="Path_7572" d="M145.653 632.27a11.874 11.874 0 0 1-.4 2.616c-.6 2.261-1.763 4.733-1.552 6.882.166-1.87 1.055-3.9 1.552-5.781a12.342 12.342 0 0 0 .4-3.717z" data-name="Path 7572" transform="translate(-114.64 -608.964)"/>
            <path id="Path_7573" d="M120.38 608.239a25.225 25.225 0 0 0-.211-3.92c-.128-.957-.286-1.975-.339-2.97a22.513 22.513 0 0 0 .339 4.078 25.069 25.069 0 0 1 .211 2.812z" data-name="Path 7573" transform="translate(-108.761 -601.35)"/>
            <path id="Path_7574" d="M150.162 655.053v-.083c-.264 1.281-1.319 2.45-1.8 3.731a5.218 5.218 0 0 0-.3 2.4 4.758 4.758 0 0 1 .3-1.3c.587-1.612 2.101-3.045 1.8-4.748z" data-name="Path 7574" transform="translate(-115.713 -614.555)"/>
            <path id="Path_7575" d="M110.346 694.379c-.151-4.153-3.21-7.537-4.7-11.427a7.352 7.352 0 0 1-.482-1.892 6.3 6.3 0 0 0 .482 3.015c1.507 3.806 4.445 7.16 4.687 11.223.013-.316.021-.618.013-.919z" data-name="Path 7575" transform="translate(-105.139 -620.979)"/>
            <path id="Path_7576" d="M158.425 621.964c-2.456-3.769-9.923-10.386-15.069-8.547a3.632 3.632 0 0 0-2.26 2.412 2.645 2.645 0 0 0-.045 1.3 1.381 1.381 0 0 1 .045-.188 3.632 3.632 0 0 1 2.26-2.412c5.131-1.839 12.6 4.771 15.069 8.547a27.291 27.291 0 0 1 3.993 14.54c.082-5.477-1.018-11.069-3.993-15.652z" data-name="Path 7576" transform="translate(-113.978 -604.244)"/>
            <path id="Path_7577" d="M177.615 635.463c-.535 3.912-6.2 4.7-8.175 8.11v1.127c1.967-3.43 7.648-4.214 8.19-8.133a4.988 4.988 0 0 0 0-1.161.308.308 0 0 1-.015.057z" data-name="Path 7577" transform="translate(-120.992 -609.737)"/>
            <path id="Path_7578" d="M183.262 616.146c-1.168 3.256-3.873 6.135-3.647 9.6v.151c.249-3.015 2.569-5.691 3.624-8.645a10.646 10.646 0 0 0 .6-4.206 10.454 10.454 0 0 1-.577 3.1z" data-name="Path 7578" transform="translate(-123.497 -604.229)"/>
            <path id="Path_7579" d="M144.543 706.822a1.785 1.785 0 0 1-1.123.754c-1.65.173-1.364-2.789-2.69-3.769 0 .392.06.754.083 1.183 1.221 1.063 1 3.874 2.607 3.708a1.786 1.786 0 0 0 1.123-.754c1.507-1.847 1.612-4.176 1.575-6.6a8.686 8.686 0 0 1-1.575 5.478z" data-name="Path 7579" transform="translate(-113.913 -625.976)"/>
            <path id="Path_7580" d="M137.435 710.619c-.618 1.613-2.26 3.015-3.948 2.706l-.588-3.867a11.214 11.214 0 0 1-3.888 2.487c-.075.392-.151.791-.211 1.183a11.245 11.245 0 0 0 4.1-2.563l.588 3.867c1.7.271 3.33-1.093 3.948-2.706a8.687 8.687 0 0 0 .46-3.5 7.351 7.351 0 0 1-.46 2.389z" data-name="Path 7580" transform="translate(-110.972 -627.67)"/>
            <path id="Path_7581" d="M147.947 688.986a19.474 19.474 0 0 0-.151 3.128 14.815 14.815 0 0 1 .151-2.02c.61-4.228 3.571-8.1 3.308-12.294-.234 3.776-2.743 7.334-3.308 11.186z" data-name="Path 7581" transform="translate(-115.653 -620.176)"/>
        </g>
        <g class="cls-34" transform="translate(264.66 8450.68)">
            <path id="Path_7582-2" d="M703.205 259.591v55.252c0 2.709-3.767 4.917-8.416 4.917H516.666c-4.649 0-8.416-2.207-8.416-4.917v-51.356c0-2.72 3.767-5.487 8.416-5.487h178.126c4.649 0 8.413-1.129 8.413 1.591z" class="cls-5" data-name="Path 7582" transform="translate(-123.14 -141.63)"/>
        </g>
        <path id="Path_7583" d="M703.208 266.419v20.645H508.25v-20.645a8.418 8.418 0 0 1 8.416-8.419h178.126a8.418 8.418 0 0 1 8.416 8.419z" class="cls-17" data-name="Path 7583" transform="translate(141.524 8281.816)"/>
        <ellipse id="Ellipse_99" cx="5.628" cy="5.63" class="cls-5" data-name="Ellipse 99" rx="5.628" ry="5.63" transform="translate(654.838 8548.718)"/>
        <ellipse id="Ellipse_100" cx="5.628" cy="5.63" class="cls-5" data-name="Ellipse 100" rx="5.628" ry="5.63" transform="translate(671.21 8548.718)"/>
        <ellipse id="Ellipse_101" cx="5.628" cy="5.63" class="cls-5" data-name="Ellipse 101" rx="5.628" ry="5.63" transform="translate(687.583 8548.718)"/>
        <ellipse id="Ellipse_102" cx="22.001" cy="22.009" class="cls-18" data-name="Ellipse 102" rx="22.001" ry="22.009" transform="translate(784.335 8576.356)"/>
        <path id="Rectangle_3020" d="M0 0h92.781v3.279H0z" class="cls-6" data-name="Rectangle 3020" transform="rotate(180 379.701 4293.413)"/>
        <path id="Rectangle_3021" d="M0 0h92.781v3.279H0z" class="cls-7" data-name="Rectangle 3021" transform="rotate(180 379.701 4297.408)"/>
        <path id="Rectangle_3022" d="M0 0h92.781v3.279H0z" class="cls-7" data-name="Rectangle 3022" transform="rotate(180 379.701 4301.404)"/>
        <path id="Rectangle_3023" d="M0 0h92.781v3.279H0z" class="cls-7" data-name="Rectangle 3023" transform="rotate(180 379.701 4305.389)"/>
        <path id="Path_7584" d="M291.151 392.913c5.191 3.482 13.065 1.824 13.065 1.824s11.882-5.63 15.4-5.63 12.055-3.482 12.055-3.482l-.286-2.344-.851-7.07c5.417 4.221 11.43 2.766 14.391 2.457 3.18-.332 20.178-10.439 21.805-11.1a4.273 4.273 0 0 0 1.507-1.507 38.124 38.124 0 0 0 2.871-5.276c1.07-.935 1.846-1.688 1.786-1.854a12.289 12.289 0 0 1 1.047-2.781 13.642 13.642 0 0 0 5.154-1.854 4.523 4.523 0 0 0 1.673-3.648s16.576-16.733 14.4-23.69 5.357-7.123 5.357-7.123 11.558-4.967 13.163-7.952c.995-1.832 9.659-5.857 16.177-8.691l.806-.347c2.532 5.555 15.386 1.281 17.917-1.07 2.675-2.48 10.549-3.641 10.549-3.641s.332-32.471 2.848-36.617c1.191-1.96 1.507-8.374 1.447-14.562v-.663c3.519-.686 11.89-2.261 15.777-2.661 2.464-.249 5.026-1.786 7-3.279l.226.294a4.858 4.858 0 0 0 2.147.354 3.352 3.352 0 0 0 1.876-.354c1.507-.829 7.03-2.487 9.042-3.316s-.339-6.784-1.846-7.952-2.509-2.646-1.673-3.309-2.012-2.322-3.684-2.653a54.592 54.592 0 0 1-6.7-2.653s-1.838-3.806-4.852-3.806-7.037-3.015-7.037-3.015c-.166-1.327-3.345-1.507-3.345-1.507s-12.055-9.271-14.067-8.118-7.535-1.817-7.535-1.817-6.781.754-8.371-.49a1.908 1.908 0 0 0-.407-1.123c-.362-1.123-2.11-2.661-3.767-3.942a15.563 15.563 0 0 0 .188-2.389 9.472 9.472 0 0 0-.038-1.04 1.341 1.341 0 0 0 0-.173c.083-.754.158-1.553.241-2.329a4.781 4.781 0 0 1 .58-2.193c.286-.437.7-.754 1.017-1.2a2.747 2.747 0 0 0 .2-.309l.053-.09c.045-.083.083-.166.121-.249a.408.408 0 0 0 .038-.083 3.485 3.485 0 0 0 .219-.708v-.06c0-.06.038-.219.045-.332v-.045a7.074 7.074 0 0 0-.377-2.842 18.991 18.991 0 0 1-1.371-4.711 15.308 15.308 0 0 0-.083-2.427c-.407-1.809-2.26-2.962-4.061-3.716a22.676 22.676 0 0 1-5.711-3.716c-1.688-1.312-4.476-.648-6.608-.513-4.852.309-9.652 1.771-14.218 3.286a14.119 14.119 0 0 0-4.973 2.465 5.5 5.5 0 0 0-1.816 3.075 3.925 3.925 0 0 0-.06.837v.075a1.18 1.18 0 0 0 .038.317.442.442 0 0 0 0 .106 3.558 3.558 0 0 0 .09.384c.189.611.55 1.161.754 1.771a4.156 4.156 0 0 1 .113.407v.045l.068.4c.181 1.507-.377 3.075-.618 4.613a6.378 6.378 0 0 0-.075.663 8.014 8.014 0 0 0 .226 2.646 1.229 1.229 0 0 0 .1.309l.045.136c0 .09.068.173.1.264a1.756 1.756 0 0 1 .075.173c0 .075.068.151.105.226s.068.128.1.188a2.079 2.079 0 0 0 .121.2l.121.2.121.181.151.188c.045.053.083.113.136.166l.173.181.136.143.211.173.143.121.256.173.128.083a3.2 3.2 0 0 0 .422.219c.964.445 2.17.6 2.758 1.44a2.04 2.04 0 0 1 .279.663v.317a13.354 13.354 0 0 0 .083 1.455 6.833 6.833 0 0 0 .038.754 2.444 2.444 0 0 0 .166.565 15.076 15.076 0 0 0 5.079 8.532c.053.256.105.558.173.9a16.681 16.681 0 0 1-4.875 2.548c-4.031 1.319-9.7 6.723-9.7 6.723s-2.825 20.351-3.5 22.861-1.183 12.1-1.183 12.1a27.905 27.905 0 0 1-1.673 5.962c-.708 1.4-.58 7.424 1.4 11.08a9.177 9.177 0 0 1-1.236 2c-4.016 4.643-16.071 4.477-20.095 4.477-3.7 0-4.845 2.261-5 2.6-7.361 2.088-31.193 8.894-34.019 10.13-3.345 1.462-5.191 15.927-5.191 15.927s-7.03 24.022-6.7 27.187-2.343 11.909-2.343 11.909 0 9.912-1.138 10.59h-.038c-1.168.5-1 5.276-1 5.276s.859.256 2.208.6a38.353 38.353 0 0 1-2.713 8.238c-.52-.663-1.032-.942-1.334-.166-.836 2.1-13.4 17.012-16.576 17.012-1.507 0-4.016 1.244-5.666 2.924-1.846 1.891-2.608 4.262.105 6.075zm57.6-86.341c14.233 1.327 29.476-1.01 29.476-1.01a34.171 34.171 0 0 1-2.178 5.811c-1 1.658-3.858 11.1-3.858 13.092s-4.521 19.047-5.854 19.876a4.968 4.968 0 0 0-1.462 2.11 19.877 19.877 0 0 0-.882 2.532 10.179 10.179 0 0 0 .113 1.221c-1 .92-2.057 1.884-3.014 2.736s-5.975 3.377-7.956 5.186-11.385 4.055-11.385 4.055a57.838 57.838 0 0 0-6.781 3.437c-2.9 1.756-5.809 3.98-6.57 6.173.332-3.7.866-8.155 1.221-11h.535c4.694-.286 3.993-4.771 3.767-5.879a2.136 2.136 0 0 0-.06-.249c3.353-3.648 10.888-30.813 9.878-33.8s.844-5.63 1.236-5.63.942-3.316.105-5.14 3.671-3.521 3.671-3.521zm115.1-73.113l-.889.219v-.188a4.6 4.6 0 0 0 .889.023zM415.2 208.465a12.79 12.79 0 0 1-.414.482l-.173.181v-.92zM398.429 240.6l.06.935s-.09.565-.264 1.507zm76.951-9.256l-2.923.5a14.46 14.46 0 0 0 1.221-.513 2.773 2.773 0 0 1 .927-.249 4.976 4.976 0 0 1 1.092.234 1.5 1.5 0 0 0-.316.083z" class="cls-19" data-name="Path 7584" transform="translate(195.484 8304.095)"/>
        <path id="Path_7585" d="M399.032 409.358s-3.36 6.965-3.195 7.454-7.233 6.414-7.233 6.414l-8.055-5.759.821-3.942s9.042-8.148 9.7-9.09 7.962 4.923 7.962 4.923z" class="cls-20" data-name="Path 7585" transform="translate(173.007 8245.78)"/>
        <path id="Path_7586" d="M343.765 435.02c5.591 5.427 12.168 3.769 15.288 3.452s19.8-10.356 21.406-11.02a4.265 4.265 0 0 0 1.462-1.507 37.627 37.627 0 0 0 2.826-5.216c-.113 0-5.576 1.59-6.954 0 0 0-2.306-2.826-2.8-2.826s-.038-4.952-.038-4.952-5.877 3.309-7.851 5.118-11.174 4.025-11.174 4.025a56.448 56.448 0 0 0-6.615 3.414c-4.36 2.675-8.722 6.429-5.55 9.512z" class="cls-14" data-name="Path 7586" transform="translate(182.344 8243.657)"/>
        <path id="Path_7587" d="M343.765 439.112c5.591 5.427 12.168 3.769 15.288 3.452s19.8-10.356 21.406-11.02a4.265 4.265 0 0 0 1.462-1.507c-1.944-1.161-14.647 6.919-18.2 8.4s-12.553.663-17.646-1.508c-2.547-1.063 0-4.342 3.247-7.357-4.367 2.704-8.729 6.458-5.557 9.54z" class="cls-11" data-name="Path 7587" transform="translate(182.344 8239.563)"/>
        <path id="Path_7588" d="M339.621 418.759s-2.343 17.592-1.748 19.9-14.693-7.892-14.693-7.892 5.35-11.027 3.767-13.567 12.674 1.559 12.674 1.559z" class="cls-20" data-name="Path 7588" transform="translate(187.151 8242.815)"/>
        <path id="Path_7589" d="M325.578 392.5s9.531 2.8 14.79 2.465c4.611-.286 3.918-4.733 3.677-5.834a2.123 2.123 0 0 0-.06-.249c3.293-3.618 10.684-30.579 9.7-33.541s.821-5.585 1.213-5.585.927-3.294.106-5.1 3.617-3.452 3.617-3.452c13.969 1.319 28.925-1 28.925-1a33.861 33.861 0 0 1-2.14 5.774c-.987 1.643-3.767 11.012-3.767 12.987s-4.438 18.911-5.749 19.733a4.915 4.915 0 0 0-1.432 2.088 19.679 19.679 0 0 0-.866 2.51c.49 11.02 12.982 6.746 14.79 5.276a4.8 4.8 0 0 0 .7-.716 4.576 4.576 0 0 0 .942-2.9s16.267-16.582 14.135-23.509 5.274-7.07 5.274-7.07 11.34-4.93 12.914-7.892c.972-1.816 9.479-5.811 15.883-8.623 4.008-1.756 7.2-3.015 7.2-3.015l-2.667-9.565-2.1-7.537-3.956-1.507-12.643-4.764-22.7-3.12-2.079.271-22.061 2.849s-32.241 9.173-35.5 10.628-5.093 15.829-5.093 15.829-6.9 23.841-6.578 26.976-2.328 11.773-2.328 11.773 0 9.8-1.115 10.5h-.038c-1.153.539-.994 5.32-.994 5.32z" class="cls-1" data-name="Path 7589" transform="translate(186.562 8269.417)"/>
        <path id="Path_7590" d="M369.43 347.675c13.969 1.319 28.926-1 28.926-1 .987-3.105 14.8-11.653 14.8-11.653-11.335-2.799-43.726 12.653-43.726 12.653z" class="cls-11" data-name="Path 7590" transform="translate(175.749 8262.932)"/>
        <path id="Path_7591" d="M389.28 406.945c.49 11.02 12.982 6.746 14.79 5.276a4.815 4.815 0 0 0 .7-.716c-4.37 1.613-12.108 2.849-14.625-7.055a19.686 19.686 0 0 0-.867 2.495z" class="cls-21" data-name="Path 7591" transform="translate(170.855 8245.75)"/>
        <path id="Path_7592" d="M325.578 418.274s9.531 2.8 14.79 2.465c4.611-.287 3.918-4.734 3.677-5.834-4.822-.151-13.133-.611-17.443-1.915h-.038c-1.145.498-.986 5.284-.986 5.284z" class="cls-21" data-name="Path 7592" transform="translate(186.562 8243.647)"/>
        <path id="Path_7593" d="M389.28 406.945c.49 11.02 12.982 6.746 14.79 5.276a4.815 4.815 0 0 0 .7-.716c-4.37 1.613-12.108 2.849-14.625-7.055a19.686 19.686 0 0 0-.867 2.495z" class="cls-11" data-name="Path 7593" transform="translate(170.855 8245.75)"/>
        <path id="Path_7594" d="M325.578 418.274s9.531 2.8 14.79 2.465c4.611-.287 3.918-4.734 3.677-5.834-4.822-.151-13.133-.611-17.443-1.915h-.038c-1.145.498-.986 5.284-.986 5.284z" class="cls-11" data-name="Path 7594" transform="translate(186.562 8243.647)"/>
        <path id="Path_7595" d="M293.819 457c5.093 3.452 12.809 1.809 12.809 1.809s11.664-5.593 15.114-5.593 11.852-3.429 11.852-3.429l-.286-2.329-1.356-11.158s-12.809-.324-13.314-1.508c0 0-2.306-5.661-3.127-3.573s-13.148 16.891-16.267 16.891c-1.507 0-3.948 1.228-5.568 2.894-1.77 1.84-2.524 4.184.143 5.996z" class="cls-14" data-name="Path 7595" transform="translate(194.819 8239.272)"/>
        <path id="Path_7596" d="M353.07 336.65s10.684 6.784 7.723 8.223-7.723-8.223-7.723-8.223z" class="cls-11" data-name="Path 7596" transform="translate(179.782 8262.448)"/>
        <path id="Path_7597" d="M347.18 353.89s9.2 8.736 5.749 8.97-5.749-8.97-5.749-8.97z" class="cls-11" data-name="Path 7597" transform="translate(181.234 8258.202)"/>
        <path id="Path_7598" d="M334.09 390.75s4.671 8.789 2.908 10.311-2.908-10.311-2.908-10.311z" class="cls-11" data-name="Path 7598" transform="translate(184.461 8249.125)"/>
        <path id="Path_7599" d="M402.324 400.644c-1.643 1.643 15.619-5.427 11.671-5.758s-11.671 5.758-11.671 5.758z" class="cls-11" data-name="Path 7599" transform="translate(167.666 8248.11)"/>
        <path id="Path_7600" d="M448.17 231.643l.55-.083c2.042-.309 9.456-1.47 16.1-2.917a106 106 0 0 0 4.626-1.1c5.093-1.334 8.507-2.774 6.337-3.95a11.646 11.646 0 0 1-5.207-6.859c-.075-.241-.151-.475-.211-.7a18.026 18.026 0 0 1-.671-3.769s-18.565-6.58-14.949 0c1.771 3.218.58 5.857-1.1 7.7a14.377 14.377 0 0 1-4 3.015z" class="cls-20" data-name="Path 7600" transform="translate(156.336 8293.8)"/>
        <path id="Path_7601" d="M461.3 232.17s-6.638 4.771-13.427.822-15.627 34.861-15.627 34.861l-9.207 22.688s-5.96 4.929 1.454 7.07 23.885-2.141 28.059 4.108 12.093 7.206 12.847 7.206 3.941-23.517 3.941-23.517l.814-34.031z" class="cls-11" data-name="Path 7601" transform="translate(163.091 8288.176)"/>
        <path id="Path_7602" d="M424.892 295.862c7.422 2.141 23.877-2.133 28.059 4.108a16.065 16.065 0 0 0 7.068 5.7 18.484 18.484 0 0 0 5.832 1.507c.105 0 .264-.43.445-1.176 1.153-4.756 3.5-22.333 3.5-22.333l.804-33.968-7.813-16.929-1.062-2.344a14.216 14.216 0 0 1-3.383 1.643 11.916 11.916 0 0 1-10.051-.822c-1.989-1.161-4.159 1.364-6.231 5.5-5 9.979-9.426 29.351-9.426 29.351l-9.2 22.688a7.871 7.871 0 0 0-.625.6c-1.309 1.38-3.757 4.787 2.083 6.475z" class="cls-22" data-name="Path 7602" transform="translate(162.993 8288.605)"/>
        <path id="Path_7603" d="M472.2 294.021a42.865 42.865 0 0 0-.219 8.66 101.655 101.655 0 0 0 1.507 12.226 4.535 4.535 0 0 0 .2.754c4.008-1.756 7.2-3.015 7.2-3.015l-2.667-9.565c1.153-4.756 3.5-22.333 3.5-22.333l.866-34.031-7.813-16.929c5.093-1.334 8.507-2.774 6.336-3.95-3.165-1.719-4.686-4.975-5.417-7.537a27.944 27.944 0 0 1-4.671 5.028l-.106.083-.588 5.736-.181 1.764-.384 3.663s1.808 43.234 3.127 45.707.655 7.228-.5 12.814c-.061.261-.121.586-.19.925z" class="cls-11" data-name="Path 7603" transform="translate(151.013 8291.592)"/>
        <path id="Path_7604" d="M473.294 288.967c-1.153 5.585-.166 14.8 1.145 21.858s15.288 2.465 17.917 0 10.353-3.618 10.353-3.618.332-32.222 2.8-36.338c1.168-1.945 1.454-8.291 1.424-14.457 0-5.517-.294-10.861-.4-12.678v-.648s10.684-18.09 10.548-19.4-3.285-1.507-3.285-1.507-11.837-9.211-13.811-8.057-7.392-1.809-7.392-1.809-6.871.754-8.288-.543a.754.754 0 0 1-.249-.61c.158-2.1-7.007-6.6-7.226-6.738 6.028 5.442-3.767 13.816-4.837 14.728l-.106.09-1.145 11.155s1.808 43.242 3.119 45.707.579 7.272-.567 12.865z" class="cls-23" data-name="Path 7604" transform="translate(150.772 8295.012)"/>
        <ellipse id="Ellipse_103" cx=".821" cy=".822" class="cls-21" data-name="Ellipse 103" rx=".821" ry=".822" transform="translate(623.878 8536.184)"/>
        <path id="Path_7605" d="M472.74 220.078l4.988 4.832 7.324-12.218a.754.754 0 0 1-.256-.6c.166-2.11-7-6.6-7.226-6.738 6.042 5.43-3.722 13.804-4.83 14.724z" class="cls-11" data-name="Path 7605" transform="translate(150.279 8294.78)"/>
        <ellipse id="Ellipse_104" cx=".821" cy=".822" class="cls-11" data-name="Ellipse 104" rx=".821" ry=".822" transform="translate(625.52 8562.488)"/>
        <ellipse id="Ellipse_105" cx=".821" cy=".822" class="cls-21" data-name="Ellipse 105" rx=".821" ry=".822" transform="translate(625.52 8562.156)"/>
        <path id="Path_7606" d="M472.3 219.188l5 4.839 7.316-12.218a.754.754 0 0 1-.249-.611c.158-2.1-7.007-6.6-7.226-6.738 6.031 5.45-3.733 13.824-4.841 14.728z" class="cls-23" data-name="Path 7606" transform="translate(150.387 8295.001)"/>
        <rect id="Rectangle_3024" width="11.438" height="24.18" class="cls-14" data-name="Rectangle 3024" rx="1.7" transform="rotate(-178.69 363.407 4276.642)"/>
        <path id="Path_9409" d="M1.7 0h8.04a1.7 1.7 0 0 1 1.7 1.7v20.781a1.7 1.7 0 0 1-1.7 1.7H1.7A1.7 1.7 0 0 1 0 22.48V1.7A1.7 1.7 0 0 1 1.7 0z" class="cls-11" data-name="Path 9409" transform="rotate(-178.69 363.407 4276.642)"/>
        <path id="Path_9408" d="M1.7 0h8.04a1.7 1.7 0 0 1 1.7 1.7v20.781a1.7 1.7 0 0 1-1.7 1.7H1.7A1.7 1.7 0 0 1 0 22.48V1.7A1.7 1.7 0 0 1 1.7 0z" class="cls-14" data-name="Path 9408" transform="rotate(-178.69 363.443 4276.908)"/>
        <ellipse id="Ellipse_106" cx="1.801" cy="1.801" class="cls-23" data-name="Ellipse 106" rx="1.801" ry="1.801" transform="translate(622.062 8541.993)"/>
        <path id="Path_7607" d="M391.68 291.009c4.106 1.809 31.058-2.955 35.006-4.108s9.7-10.032 6.9-16.439.987-12.663.987-12.663 5.915-12.655 7.226-15.128a115.707 115.707 0 0 0 4.438-10.846.965.965 0 0 0-.234-.754c-1.062-1.628-5.184-4.522-5.184-4.522-1.16.422-1.311-2.9-1.266-5.352 0-1.364.113-2.457.113-2.457s-.55.558-1.439 1.312c-.324.271-.693.58-1.108.889a17 17 0 0 1-5.176 2.834c-3.948 1.161-9.531 6.558-9.531 6.558l1.643 25.243s-3.767 23.75-7.731 28.348-15.778 4.44-19.718 4.44-4.926 2.645-4.926 2.645z" class="cls-11" data-name="Path 7607" transform="translate(170.263 8291.484)"/>
        <path id="Path_7608" d="M391.24 289.7c4.106 1.809 31.065-2.955 35.006-4.108s9.7-10.025 6.9-16.439.987-12.663.987-12.663 5.915-12.655 7.233-15.12a116.972 116.972 0 0 0 4.438-10.854 1 1 0 0 0-.233-.754c-1.07-1.628-5.191-4.522-5.191-4.522-1.16.422-1.3-2.9-1.258-5.344 0-1.372.105-2.465.105-2.465s-.542.558-1.432 1.312c-.332.279-.7.58-1.108.889a17.044 17.044 0 0 1-5.184 2.834c-3.941 1.168-9.531 6.558-9.531 6.558l1.643 25.25s-3.767 23.743-7.723 28.348-15.778 4.432-19.726 4.432-4.926 2.646-4.926 2.646z" class="cls-23" data-name="Path 7608" transform="translate(170.372 8291.807)"/>
        <path id="Path_7609" d="M450.57 218.33s.151.867.414 2.193c.881 4.522 3.014 14.374 4.521 14 1.093-.279 2.939-2.208 4.37-3.882-1.07-1.628-5.191-4.522-5.191-4.522-1.16.422-1.3-2.9-1.258-5.344l-1.326-1.146z" class="cls-11" data-name="Path 7609" transform="translate(155.744 8291.586)"/>
        <path id="Path_7610" d="M451 217.45s.151.867.414 2.2c.881 4.522 3.014 14.374 4.521 13.989 1.093-.271 2.939-2.2 4.37-3.874-1.07-1.628-5.191-4.522-5.191-4.522-1.16.422-1.3-2.9-1.258-5.344l-1.349-1.138z" class="cls-23" data-name="Path 7610" transform="translate(155.639 8291.801)"/>
        <path id="Path_7611" d="M434.678 278.436s8.213-1.643 10.548-5.276 17.948-6.746 16.041-2.962-16.079 16.168-16.079 16.168l-6.126 8.773-8.19-2.073-3.443-6.7z" class="cls-20" data-name="Path 7611" transform="translate(161.449 8279.237)"/>
        <path id="Path_7612" d="M459.823 294.13s-7.957 2.962-9.155 6.9 9.155-6.9 9.155-6.9z" class="cls-11" data-name="Path 7612" transform="translate(155.744 8272.92)"/>
        <path id="Path_7613" d="M466.3 300.23s.753 4.108-9.253 3.769z" class="cls-11" data-name="Path 7613" transform="translate(154.147 8271.416)"/>
        <path id="Path_7614" d="M522.664 230.322l3.617-.332s3.94 2.962 6.9 2.962 4.762 3.769 4.762 3.769a52.565 52.565 0 0 0 6.578 2.631c1.643.324 4.438 1.975 3.617 2.631s.158 2.141 1.642 3.294 3.767 7.07 1.808 7.892-7.4 2.465-8.876 3.286a4.075 4.075 0 0 1-3.285 0s-8.71-11.344-13.148-9.211-10.549 2.141-10.549 2.141L511 239.359z" class="cls-11" data-name="Path 7614" transform="translate(140.846 8288.714)"/>
        <path id="Path_7615" d="M425.4 285.117a4.407 4.407 0 0 0 3.059 2.133 23.212 23.212 0 0 0 9.577-.889s-16.576-5.276-.618-18.09h-4.272l-1.424-.543.656-3.407.934-30.707-3.473-.784s-2.78 20.223-3.443 22.688-1.16 12-1.16 12a27.619 27.619 0 0 1-1.643 5.917c-.729 1.484-.54 8.165 1.807 11.682z" class="cls-23" data-name="Path 7615" transform="translate(162.489 8288.014)"/>
        <path id="Path_7616" d="M427 296.519a4.423 4.423 0 0 0 3.067 2.133 23.192 23.192 0 0 0 9.569-.889s-16.576-5.276-.61-18.09h-4.28l-1.424-.543c-2.351 4.183-6.036 11.562-6.322 17.389z" class="cls-11" data-name="Path 7616" transform="translate(161.556 8276.612)"/>
        <path id="Path_7617" d="M426.11 296.519a4.408 4.408 0 0 0 3.059 2.133 23.215 23.215 0 0 0 9.577-.889s-16.576-5.276-.618-18.09h-4.272l-1.424-.543c-2.332 4.183-6.021 11.562-6.322 17.389z" class="cls-24" data-name="Path 7617" transform="translate(161.775 8276.612)"/>
        <path id="Path_7618" d="M426.11 296.519a4.408 4.408 0 0 0 3.059 2.133 23.215 23.215 0 0 0 9.577-.889s-16.576-5.276-.618-18.09h-4.272l-1.424-.543c-2.332 4.183-6.021 11.562-6.322 17.389z" class="cls-23" data-name="Path 7618" transform="translate(161.775 8276.612)"/>
        <path id="Path_7619" d="M455.44 219.953a14.975 14.975 0 0 0 16.93-3.218c-.075-.241-.151-.475-.211-.7a18.03 18.03 0 0 1-.671-3.769s-18.565-6.58-14.949 0a6.213 6.213 0 0 1-1.099 7.687z" class="cls-11" data-name="Path 7619" transform="translate(154.544 8293.8)"/>
        <path id="Path_7620" d="M443.81 199.591v.143a8.306 8.306 0 0 0 .083 1.44 13.575 13.575 0 0 0 .2 1.349 14.955 14.955 0 0 0 28.812 1.93c.1-.286.2-.58.271-.874a14.847 14.847 0 0 0 .542-3.987 9.418 9.418 0 0 0-.038-1.033 14.956 14.956 0 0 0-29.875 1.033z" class="cls-20" data-name="Path 7620" transform="translate(157.411 8299.878)"/>
        <path id="Path_7621" d="M443.81 199.729a6.478 6.478 0 0 1 .083 1.44 6.722 6.722 0 0 0 .038.754 2.2 2.2 0 0 0 .166.565c.6 1.417 2.577 2.337 3.873 1.425a4.152 4.152 0 0 0 1.168-1.508c1.386-2.57 3.308-5.525 6.329-5.578a15.529 15.529 0 0 1 3.767.844 3.985 3.985 0 0 0 3.662-.5c.708-.648 1.047-1.764 2.012-2s1.838.656 2.26 1.507a4.551 4.551 0 0 0 1.68 2.322c.4.2.859.249 1.251.46 1.786.98.965 4.409 2.818 4.967a1.58 1.58 0 0 0 .181.045l.09-.92c.166-1.673.339-3.339.5-5.02a14.956 14.956 0 0 0-29.875 1.033z" class="cls-11" data-name="Path 7621" transform="translate(157.411 8299.882)"/>
        <path id="Path_7622" d="M468.341 173.368c1.756.754 3.586 1.892 3.978 3.686a14.326 14.326 0 0 1 .083 2.412 19.327 19.327 0 0 0 1.349 4.673c.49 1.553.671 3.362-.316 4.681-.309.415-.716.754-.995 1.191a4.81 4.81 0 0 0-.573 2.178l-.814 8.088c-2.087-.384-1.16-4-3.014-5.012-.384-.211-.844-.264-1.243-.46-.889-.445-1.236-1.462-1.68-2.322s-1.3-1.741-2.26-1.507-1.3 1.342-2 2a4.038 4.038 0 0 1-3.662.49 14.743 14.743 0 0 0-3.767-.844c-3.014.053-4.95 3.015-6.329 5.578a4.093 4.093 0 0 1-1.168 1.507c-1.462 1.033-3.767-.264-4.039-1.99-.136-.965.158-2.043-.392-2.857s-1.763-.995-2.7-1.432c-2.4-1.108-3.149-4.108-2.75-6.625.286-1.809 1.01-3.678.422-5.419-.2-.6-.557-1.153-.753-1.756a4.747 4.747 0 0 1 1.688-4.764 13.794 13.794 0 0 1 4.883-2.45 55.79 55.79 0 0 1 13.954-3.264c2.087-.136 4.83-.791 6.487.512a21.6 21.6 0 0 0 5.611 3.706z" class="cls-1" data-name="Path 7622" transform="translate(159.447 8303.767)"/>
        <ellipse id="Ellipse_107" cx=".821" cy=".822" class="cls-11" data-name="Ellipse 107" rx=".821" ry=".822" transform="translate(623.056 8523.188)"/>
        <ellipse id="Ellipse_108" cx=".821" cy=".822" class="cls-21" data-name="Ellipse 108" rx=".821" ry=".822" transform="translate(623.056 8522.863)"/>
        <ellipse id="Ellipse_109" cx=".821" cy=".822" class="cls-11" data-name="Ellipse 109" rx=".821" ry=".822" transform="translate(628.316 8574.812)"/>
        <ellipse id="Ellipse_110" cx=".821" cy=".822" class="cls-21" data-name="Ellipse 110" rx=".821" ry=".822" transform="translate(628.316 8574.489)"/>
        <ellipse id="Ellipse_111" cx=".821" cy=".822" class="cls-11" data-name="Ellipse 111" rx=".821" ry=".822" transform="translate(625.52 8588.463)"/>
        <ellipse id="Ellipse_112" cx=".821" cy=".822" class="cls-21" data-name="Ellipse 112" rx=".821" ry=".822" transform="translate(625.52 8588.13)"/>
        <path id="Path_7623" d="M439.4 254.27s-1.808 12.278 0 14.419 0-14.419 0-14.419z" class="cls-11" data-name="Path 7623" transform="translate(158.697 8282.733)"/>
        <path id="Path_7624" d="M509.445 284.52s3.451 7.439 0 14.57-5.591 10.032-4.438 14.585 4.438-29.155 4.438-29.155z" class="cls-11" data-name="Path 7624" transform="translate(142.401 8275.283)"/>
        <path id="Path_7625" d="M293.819 462.452c5.093 3.452 12.809 1.809 12.809 1.809s11.664-5.593 15.114-5.593 11.852-3.43 11.852-3.43l-.286-2.329c-3.406.656-11.144 2.224-12.055 3.015-1.153.987-15.288 5.759-15.288 5.759s-9.622-1.206-12.3-5.163c-1.76 1.78-2.513 4.123.154 5.932z" class="cls-11" data-name="Path 7625" transform="translate(194.82 8233.817)"/>
        <path id="Path_7626" d="M484.46 181.005v.083a.3.3 0 0 0 0-.083z" data-name="Path 7626" transform="translate(147.389 8300.909)"/>
        <path id="Path_7627" d="M438.927 197.667c.942.43 2.132.588 2.7 1.425s.256 1.892.392 2.857c.256 1.726 2.577 3.015 4.039 2a4.114 4.114 0 0 0 1.168-1.507c1.379-2.563 3.308-5.517 6.329-5.57a15.871 15.871 0 0 1 3.767.837 4.006 4.006 0 0 0 3.662-.49c.708-.648 1.047-1.764 2-2s1.846.648 2.26 1.507a4.459 4.459 0 0 0 1.68 2.314c.4.2.859.256 1.243.467 1.846 1.01.919 4.621 3.014 5.012l.814-8.1a4.833 4.833 0 0 1 .573-2.178c.279-.43.686-.754.995-1.183a3.618 3.618 0 0 0 .671-1.741 4.17 4.17 0 0 1-.671 3.053c-.309.415-.716.754-.995 1.191a4.811 4.811 0 0 0-.573 2.178l-.814 8.088c-2.087-.384-1.16-4-3.014-5.012-.384-.211-.844-.264-1.243-.46-.889-.445-1.236-1.462-1.68-2.321s-1.3-1.741-2.26-1.508-1.3 1.342-2 2a4.039 4.039 0 0 1-3.662.49 14.74 14.74 0 0 0-3.767-.844c-3.014.053-4.95 3.015-6.329 5.578a4.093 4.093 0 0 1-1.168 1.507c-1.462 1.033-3.767-.264-4.039-1.99-.136-.965.158-2.043-.392-2.857s-1.763-.995-2.7-1.432c-2.2-1.01-3.014-3.61-2.826-5.97a5.381 5.381 0 0 0 2.826 4.659z" data-name="Path 7627" transform="translate(159.318 8298.236)"/>
        <path id="Path_7628" d="M435.729 181.29c.188.6.542 1.153.753 1.756a5.278 5.278 0 0 1 .188 2.163 4.719 4.719 0 0 0-.188-.844c-.2-.6-.558-1.153-.753-1.756a3.693 3.693 0 0 1-.1-1.719c.032.136.062.264.1.4z" data-name="Path 7628" transform="translate(159.442 8300.805)"/>
        <path id="Path_7629" d="M493.228 273.037c3.767-.829 12.651-3.452 12.651-3.452l1.59-.317c0-5.517-.294-10.861-.4-12.678s-7.535 2.465-9.366 3.769-7.4.987-7.4.987a25.316 25.316 0 0 0-15.943 8.547c-7.232 8.058 15.086 3.973 18.868 3.144z" class="cls-11" data-name="Path 7629" transform="translate(150.232 8282.164)"/>
        <path id="Path_7630" d="M530.151 257.446a2.194 2.194 0 0 1 .5 3.686c-2 1.658-4.928 3.641-7.715 3.927-4.656.467-15.823 2.713-16.975 2.94a.755.755 0 0 0-.173.045c-.927.271-9.042 2.638-12.568 3.415-3.767.829-26.138 4.944-18.9-3.113a25.546 25.546 0 0 1 15.823-8.54h.286c.844.045 5.621.2 7.271-.987a15.341 15.341 0 0 1 2.713-1.357 52.361 52.361 0 0 1 11.113-3.2l7.731-1.349a2.207 2.207 0 0 1 1.3.166z" class="cls-20" data-name="Path 7630" transform="translate(150.244 8283.077)"/>
        <path id="Path_7631" d="M523.521 230.322l3.617-.332s3.941 2.962 6.9 2.962 4.77 3.769 4.77 3.769a52.34 52.34 0 0 0 6.57 2.631c1.643.324 4.438 1.975 3.617 2.631s.166 2.141 1.642 3.294 3.768 7.07 1.809 7.892-7.4 2.457-8.846 3.294a4.075 4.075 0 0 1-3.285 0s-8.77-11.344-13.178-9.211-10.548 2.141-10.548 2.141l-4.769-10.032z" class="cls-23" data-name="Path 7631" transform="translate(140.644 8288.714)"/>
        <path id="Path_7632" d="M669.03 514.209s-6.54-1.507-10.82 2.9c0 0 2.758 2.487 9.222-.264z" class="cls-2" data-name="Path 7632" transform="translate(104.554 8218.782)"/>
        <path id="Path_7633" d="M672.91 514.22s3.865 5.48 1.417 11.11c0 0-3.345-1.606-3.247-8.638z" class="cls-2" data-name="Path 7633" transform="translate(101.381 8218.718)"/>
        <path id="Path_7634" d="M674.934 502.592s-2.313-5.027-13.344 1.055c0 0 1.191 3.354 5.877 3.4s6.065-1.982 7.467-4.455z" class="cls-2" data-name="Path 7634" transform="translate(103.72 8222.062)"/>
        <path id="Path_7635" d="M679.674 502.83s5.523-.256 5.214 12.331c0 0-3.526.49-5.726-3.648s-1.04-6.294.512-8.683z" class="cls-2" data-name="Path 7635" transform="translate(99.688 8221.524)"/>
        <path id="Path_7636" d="M680.755 488.14s-2.509-8.751-14.1-3.422c0 0 2.027 8.012 12.763 6.256z" class="cls-2" data-name="Path 7636" transform="translate(102.473 8226.407)"/>
        <path id="Path_7637" d="M685.806 471.676s-5.274-9.045-16.086-1.7c0 0 3.074 8.351 15 4.726z" class="cls-2" data-name="Path 7637" transform="translate(101.716 8230.322)"/>
        <path id="Path_7638" d="M688.226 455.813s-6.254-8.389-17.006-1.146c0 0 5.967 7.394 16.87 3.173z" class="cls-2" data-name="Path 7638" transform="translate(101.346 8234.109)"/>
        <path id="Path_7639" d="M690.809 440.135s-6.322-8.743-16.629-1.56c0 0 7.263 7.839 16.493 3.5z" class="cls-2" data-name="Path 7639" transform="translate(100.616 8238.044)"/>
        <path id="Path_7640" d="M691.074 425.435s-6.51-11.148-16.154-4.522c0 0 7.135 9.686 16.018 6.565z" class="cls-2" data-name="Path 7640" transform="translate(100.434 8242.215)"/>
        <path id="Path_7641" d="M689.865 409.177s-6.955-11.1-16.4-3.58c0 0 8.454 9.8 16.267 5.518z" class="cls-2" data-name="Path 7641" transform="translate(100.791 8246.112)"/>
        <path id="Path_7642" d="M687.386 393.89s-8.4-10.552-16.576-7.115c0 0 8.748 11.193 16.81 9.8z" class="cls-2" data-name="Path 7642" transform="translate(101.447 8250.273)"/>
        <path id="Path_7643" d="M684.289 379.164s-9.667-12.866-16.019-9.226c0 0 7.083 9.949 16.621 11.57z" class="cls-2" data-name="Path 7643" transform="translate(102.073 8254.409)"/>
        <path id="Path_7644" d="M679.5 363.126s-8.5-10.552-15.363-8.54c0 0 7.15 10.839 16.38 11.721z" class="cls-2" data-name="Path 7644" transform="translate(103.091 8258.094)"/>
        <path id="Path_7645" d="M675.414 347.767s-9.494-10.2-14.014-8.819c0 0 6.608 11.065 14.316 10.967z" class="cls-2" data-name="Path 7645" transform="translate(103.767 8261.913)"/>
        <path id="Path_7646" d="M671.389 332.8s-7.964-11.954-12.809-11.389c0 0 4.6 10.492 12.7 12.535z" class="cls-2" data-name="Path 7646" transform="translate(104.462 8266.204)"/>
        <path id="Path_7647" d="M667.3 314.437s-7.128-9.233-11.3-9.5c0 0 5.274 12.06 11.423 12.361z" class="cls-2" data-name="Path 7647" transform="translate(105.099 8270.256)"/>
        <path id="Path_7648" d="M666.289 298.825l-6.223-18.655s-1.507 16.386 6.947 22.084z" class="cls-2" data-name="Path 7648" transform="translate(104.122 8276.357)"/>
        <path id="Path_7649" d="M665.337 272.724s-.211-15.248.663-16.424c0 0-6.171 12.241-1.062 23.125z" class="cls-2" data-name="Path 7649" transform="translate(103.394 8282.233)"/>
        <path id="Path_7650" d="M685.408 489.341s8.047-4.266 12.259 7.786c0 0-7.18 4.1-13.366-4.854z" class="cls-2" data-name="Path 7650" transform="translate(98.121 8225.026)"/>
        <path id="Path_7651" d="M691.1 472.385s9.8-3.686 13.562 8.849c0 0-7.655 4.522-14.609-5.819z" class="cls-2" data-name="Path 7651" transform="translate(96.704 8229.145)"/>
        <path id="Path_7652" d="M694.266 457.167s7.316-7.477 17.006 1.146c0 0-6.9 6.527-17.141.882z" class="cls-2" data-name="Path 7652" transform="translate(95.698 8233.51)"/>
        <path id="Path_7653" d="M696.508 440.517s7.429-7.824 16.682.678c0 0-8.243 6.784-16.81 1.259z" class="cls-2" data-name="Path 7653" transform="translate(95.143 8237.679)"/>
        <path id="Path_7654" d="M696.33 425.575s5.628-11.623 15.762-5.781c0 0-6.367 10.213-15.469 7.794z" class="cls-2" data-name="Path 7654" transform="translate(95.155 8242.377)"/>
        <path id="Path_7655" d="M694.43 408.658s5.606-11.826 15.868-5.48c0 0-7.256 10.7-15.514 7.394z" class="cls-2" data-name="Path 7655" transform="translate(95.624 8246.526)"/>
        <path id="Path_7656" d="M691.45 391.921s2.8-13.2 11.664-13.8c0 0-2.81 13.929-10.646 16.281z" class="cls-2" data-name="Path 7656" transform="translate(96.359 8252.233)"/>
        <path id="Path_7657" d="M689.23 377.147s1.816-15.994 9.14-16.077c0 0-1.07 12.173-8.469 18.4z" class="cls-2" data-name="Path 7657" transform="translate(96.906 8256.433)"/>
        <path id="Path_7658" d="M683.56 360.636s3.074-13.206 10.127-14.366c0 0-1.725 12.866-9.66 17.683z" class="cls-2" data-name="Path 7658" transform="translate(98.304 8260.078)"/>
        <path id="Path_7659" d="M678.93 345.633s1-13.9 5.387-15.663c0 0 1.793 12.768-4.28 17.517z" class="cls-2" data-name="Path 7659" transform="translate(99.445 8264.092)"/>
        <path id="Path_7660" d="M675.16 331.072s1.56-14.283 6.088-16c0 0 .754 11.434-5.493 16.982z" class="cls-2" data-name="Path 7660" transform="translate(100.375 8267.763)"/>
        <path id="Path_7661" d="M670.07 314.373s.806-11.638 4.129-14.163c0 0 2.26 12.964-2.645 16.582z" class="cls-2" data-name="Path 7661" transform="translate(101.63 8271.421)"/>
        <path id="Path_7662" d="M668.777 297.925l4.355-19.175s3.089 16.16-4.732 22.665z" class="cls-2" data-name="Path 7662" transform="translate(102.041 8276.706)"/>
        <path id="Path_7663" d="M668.716 274s8.718-12.5 8.65-14c0 0-1.748 13.567-12.056 19.748z" class="cls-2" data-name="Path 7663" transform="translate(102.803 8281.323)"/>
        <path id="Path_7665" d="M669.808 309.251l.512-.121c-4.875-20.8-5.56-33.918-1.929-36.933l-.339-.407c-3.852 3.173-3.24 16.152 1.756 37.461z" class="cls-3" data-name="Path 7665" transform="translate(102.743 8278.42)"/>
        <path id="Path_7666" d="M685.078 369.827l.754-.211a144.744 144.744 0 0 0-1.748-5.774c-5.425-16.688-9.961-32.185-12.741-44.034l-.633-.369c2.788 11.871 7.18 27.934 12.62 44.652a140.874 140.874 0 0 1 1.748 5.736z" class="cls-3" data-name="Path 7666" transform="translate(101.472 8266.688)"/>
        <path id="Path_7664" d="M668.8 267.088s8.642-18.014 12.055-19.288c0 0-10.933 4.673-12.673 18.715z" class="cls-2" data-name="Path 7664" transform="translate(102.096 8284.327)"/>
        <path id="Path_7667" d="M658.628 496.825c.106-.106 10.993-10.824 19.357-29.818a115.125 115.125 0 0 0 9.215-35.041c1.507-15.12-.542-32.245-4.958-47.976l-.641.648c9.908 35.313 3.067 64.535-4.566 81.894-8.288 18.844-19.04 29.4-19.146 29.539z" class="cls-3" data-name="Path 7667" transform="translate(104.632 8250.79)"/>
        <path id="Path_7973" d="M339.642 86.671L314.8 61.82l-46.257 46.661 24.846 24.854zm0 0" class="cls-25" data-name="Path 7973" transform="translate(334.58 8649.232)"/>
        <path id="Path_7974" d="M210.8 235.852a5.857 5.857 0 0 0 7.664 7.658l29.736-15.389-22.031-22.039zm0 0" class="cls-25" data-name="Path 7974" transform="translate(370.068 8561.308)"/>
        <path id="Path_7975" d="M447.232 26.565a5.859 5.859 0 0 0 0-8.285l-16.56-16.564a5.854 5.854 0 0 0-8.281 0l-14.138 14.142 24.84 24.851zm0 0" class="cls-25" data-name="Path 7975" transform="translate(249.408 8686.913)"/>
        <path id="Path_7976" d="M18.066 238.153h5.855v29.679a5.855 5.855 0 0 0 10 4.142l33.808-33.82h68.232a17.59 17.59 0 0 0 17.566-17.573V162.42l-18.474 18.48a17.4 17.4 0 0 1-5.6 3.769l-33.526 17.39a18.483 18.483 0 0 1-7.669 1.78 17.3 17.3 0 0 1-5.047-.83H41.488a5.858 5.858 0 0 1 0-11.715h29.651a17.543 17.543 0 0 1 .933-11.8l18.07-35.106a16.015 16.015 0 0 1 3.391-4.793L112.119 121H18.066A17.59 17.59 0 0 0 .5 138.573v82.007a17.59 17.59 0 0 0 17.566 17.573zm0 0" class="cls-25" data-name="Path 7976" transform="translate(497.988 8613.163)"/>
        <path id="Path_9407" d="M8.994 0h132.312a9 9 0 0 1 8.994 9v20.991H0V9a9 9 0 0 1 8.994-9z" class="cls-17" data-name="Path 9407" transform="translate(640.395 8462.978)"/>
        <g id="Group_1884" class="cls-26" data-name="Group 1884">
            <path id="Path_8170" d="M24.345 30.624H5.636A5.635 5.635 0 0 1 0 24.99V12.717a5.64 5.64 0 0 1 5.64-5.639h2.685a.231.231 0 0 0 .231-.231V.792A.79.79 0 0 1 9.923.25L16.272 7a.231.231 0 0 0 .169.073h7.908a5.635 5.635 0 0 1 5.636 5.637v12.273a5.64 5.64 0 0 1-5.64 5.641z" class="cls-27" data-name="Path 8170" transform="rotate(150 -725.363 4560.38)"/>
            <path id="Path_8171" d="M10.927 9.181a.234.234 0 0 1-.224.244H8.1a5.715 5.715 0 0 0-5.458 5.938v12.924a6.434 6.434 0 0 0 .2 1.6A5.634 5.634 0 0 1 0 24.99V12.717a5.64 5.64 0 0 1 5.64-5.639h2.685a.231.231 0 0 0 .231-.231V.792A.79.79 0 0 1 9.923.25l1.006 1.07v7.861z" class="cls-28" data-name="Path 8171" transform="rotate(150 -725.363 4560.38)"/>
            <path id="Path_8172" d="M13.741 11.32a3.664 3.664 0 0 1-5.183 0l-.808-.808a.494.494 0 0 0-.7 0l-.8.8a3.664 3.664 0 0 1-5.183 0 3.666 3.666 0 0 1 0-5.184L7.054.145a.494.494 0 0 1 .7 0l5.99 5.992a3.666 3.666 0 0 1-.003 5.183z" class="cls-29" data-name="Path 8172" transform="rotate(150 -730.761 4555.402)"/>
            <path id="Path_8173" d="M13.741 11.32a3.664 3.664 0 0 1-5.183 0l-.808-.808a.494.494 0 0 0-.7 0l-.8.8a3.664 3.664 0 0 1-5.183 0 3.666 3.666 0 0 1 0-5.184L7.054.145a.494.494 0 0 1 .7 0l5.99 5.992a3.666 3.666 0 0 1-.003 5.183z" class="cls-30" data-name="Path 8173" transform="rotate(150 -730.761 4555.402)"/>
            <path id="Path_8174" d="M2.991 6.125a3.666 3.666 0 0 0 0 5.184 3.644 3.644 0 0 0 1.633.945 3.661 3.661 0 0 1-3.55-.945 3.666 3.666 0 0 1 0-5.184l5.98-5.98a.494.494 0 0 1 .7 0l.609.61z" class="cls-31" data-name="Path 8174" transform="rotate(150 -730.761 4555.402)"/>
        </g>
        <g id="Group_1883" class="cls-32" data-name="Group 1883">
            <path id="Path_8170-2" d="M40.575.005L9.394 0A9.392 9.392 0 0 0 0 9.4v20.45a9.4 9.4 0 0 0 9.4 9.4h4.475a.386.386 0 0 1 .386.386v10.09a1.317 1.317 0 0 0 2.276.9l10.584-11.253a.385.385 0 0 1 .281-.121h13.179a9.392 9.392 0 0 0 9.394-9.4V9.397a9.4 9.4 0 0 0-9.4-9.392z" class="cls-33" data-name="Path 8170" transform="rotate(30 -16296.614 6006.804)"/>
            <path id="Path_8171-2" d="M18.213 34.512a.391.391 0 0 0-.373-.406h-4.333c-5.023 0-9.1-4.432-9.1-9.9V2.666A10.723 10.723 0 0 1 4.741 0 9.39 9.39 0 0 0 0 8.165v20.454a9.4 9.4 0 0 0 9.4 9.4h4.475a.386.386 0 0 1 .386.386v10.09a1.317 1.317 0 0 0 2.276.9l1.676-1.783v-13.1z" class="cls-28" data-name="Path 8171" transform="rotate(30 -16298.912 6006.19)"/>
            <path id="Path_8172-2" d="M22.9 1.79a6.107 6.107 0 0 0-8.638 0l-1.346 1.346a.823.823 0 0 1-1.164 0L10.427 1.81a6.107 6.107 0 0 0-8.638 0 6.11 6.11 0 0 0 0 8.64l9.967 9.968a.823.823 0 0 0 1.164 0l9.98-9.988a6.11 6.11 0 0 0 0-8.64z" class="cls-29" data-name="Path 8172" transform="rotate(30 -16322.358 6025.189)"/>
            <path id="Path_8173-2" d="M22.9 1.79a6.107 6.107 0 0 0-8.638 0l-1.346 1.346a.823.823 0 0 1-1.164 0L10.427 1.81a6.107 6.107 0 0 0-8.638 0 6.11 6.11 0 0 0 0 8.64l9.967 9.968a.823.823 0 0 0 1.164 0l9.98-9.988a6.11 6.11 0 0 0 0-8.64z" class="cls-30" data-name="Path 8173" transform="rotate(30 -16322.358 6025.189)"/>
            <path id="Path_8174-2" d="M4.985 10.428a6.11 6.11 0 0 1 0-8.64A6.074 6.074 0 0 1 7.7.212a6.1 6.1 0 0 0-5.912 1.575 6.11 6.11 0 0 0 0 8.64l9.968 9.973a.823.823 0 0 0 1.164 0l1.016-1.016z" class="cls-31" data-name="Path 8174" transform="rotate(30 -16322.397 6025.177)"/>
        </g>
        <g id="Group_1882" class="cls-32" data-name="Group 1882">
            <path id="Path_8170-3" d="M60.862 76.559l-46.771.008A14.089 14.089 0 0 1 0 62.474V31.792a14.1 14.1 0 0 1 14.1-14.1h6.712a.578.578 0 0 0 .578-.578V1.979A1.975 1.975 0 0 1 24.807.626l15.874 16.882a.578.578 0 0 0 .421.182h19.769a14.089 14.089 0 0 1 14.091 14.09v30.682a14.1 14.1 0 0 1-14.1 14.097z" class="cls-27" data-name="Path 8170" transform="rotate(150 -892.305 4325.995)"/>
            <path id="Path_8171-3" d="M27.318 22.952a.586.586 0 0 1-.56.609h-6.5c-7.535 0-13.644 6.648-13.646 14.845l-.005 32.31a16.085 16.085 0 0 0 .5 4A14.086 14.086 0 0 1 0 62.474V31.792a14.1 14.1 0 0 1 14.1-14.1h6.712a.578.578 0 0 0 .578-.578V1.979A1.975 1.975 0 0 1 24.807.626L27.321 3.3v19.652z" class="cls-28" data-name="Path 8171" transform="rotate(150 -892.305 4325.995)"/>
            <path id="Path_8172-3" d="M34.352 28.3a9.161 9.161 0 0 1-12.957 0l-2.021-2.021a1.234 1.234 0 0 0-1.745 0l-1.989 1.99a9.161 9.161 0 0 1-12.957 0 9.165 9.165 0 0 1 0-12.96L17.634.361a1.234 1.234 0 0 1 1.745 0l14.975 14.98a9.165 9.165 0 0 1-.002 12.959z" class="cls-29" data-name="Path 8172" transform="rotate(150 -905.8 4313.552)"/>
            <path id="Path_8173-3" d="M34.352 28.3a9.161 9.161 0 0 1-12.957 0l-2.021-2.021a1.234 1.234 0 0 0-1.745 0l-1.989 1.99a9.161 9.161 0 0 1-12.957 0 9.165 9.165 0 0 1 0-12.96L17.634.361a1.234 1.234 0 0 1 1.745 0l14.975 14.98a9.165 9.165 0 0 1-.002 12.959z" class="cls-30" data-name="Path 8173" transform="rotate(150 -905.8 4313.552)"/>
            <path id="Path_8174-3" d="M7.477 15.313a9.165 9.165 0 0 0 0 12.96 9.111 9.111 0 0 0 4.082 2.363 9.153 9.153 0 0 1-8.875-2.362 9.165 9.165 0 0 1 0-12.96L17.634.361a1.234 1.234 0 0 1 1.745 0L20.9 1.885z" class="cls-31" data-name="Path 8174" transform="rotate(150 -905.8 4313.552)"/>
        </g>
    </g>
</svg>
