<svg xmlns="http://www.w3.org/2000/svg" width="149" height="145" viewBox="0 0 149 145">
    <defs>
        <linearGradient id="linear-gradient" x1=".175" x2=".971" y1=".826" y2=".03" gradientUnits="objectBoundingBox">
            <stop offset="0" stop-color="#a93aff"/>
            <stop offset="1" stop-color="#ff81ff"/>
        </linearGradient>
        <linearGradient id="linear-gradient-2" x1=".175" x2=".971" y1=".826" y2=".03" gradientUnits="objectBoundingBox">
            <stop offset="0" stop-color="#ffbef9"/>
            <stop offset="1" stop-color="#fff1ff"/>
        </linearGradient>
        <linearGradient id="linear-gradient-4" x1=".451" x2=".965" y1=".549" y2=".035" gradientUnits="objectBoundingBox">
            <stop offset="0" stop-color="#ffbef9"/>
            <stop offset=".503" stop-color="#fff1ff"/>
            <stop offset="1" stop-color="#fff1ff"/>
        </linearGradient>
        <filter id="shadow" width="118.189" height="122.189" x="13.811" y="16" filterUnits="userSpaceOnUse">
            <feOffset dx="-12" dy="16"/>
            <feGaussianBlur result="blur" stdDeviation="3"/>
            <feFlood flood-opacity=".2"/>
            <feComposite in2="blur" operator="in"/>
            <feComposite in="SourceGraphic"/>
        </filter>
        <style>
            .cls-1,.cls-2{fill:#fff}.cls-1{opacity:.16}.cls-2{opacity:.24}.cls-3{fill:url(#linear-gradient)}
        </style>
    </defs>
    <g id="ill_plane" transform="translate(-183 -838)">
        <g id="ic_clouds" transform="translate(183 838)">
            <path id="ic_cloud" d="M10.994 78.569a4.371 4.371 0 0 0-8.658.878c0 .1 0 .2.013.309a2.654 2.654 0 0 0 .279 5.29h8.167a3.243 3.243 0 0 0 .2-6.478z" class="cls-1" transform="translate(91 -75.047)"/>
            <path id="ic_cloud-2" d="M7.853 77.512a3.128 3.128 0 0 0-6.185.614c0 .07 0 .141.009.217a1.856 1.856 0 0 0 .2 3.7H7.71a2.269 2.269 0 0 0 .143-4.534z" class="cls-1" transform="translate(0 -70.047)"/>
            <path id="ic_cloud-3" d="M15.706 79.978a6.256 6.256 0 0 0-12.369 1.229c0 .139.006.282.018.433a3.712 3.712 0 0 0 .4 7.407H15.42a4.538 4.538 0 0 0 .286-9.069z" class="cls-1" transform="translate(22 -67.047)"/>
            <path id="ic_cloud-4" d="M23.559 82.444a9.384 9.384 0 0 0-18.553 1.843c0 .209.009.423.027.65a5.568 5.568 0 0 0 .6 11.11h17.5a6.807 6.807 0 0 0 .429-13.6z" class="cls-2" transform="translate(18 31.953)"/>
            <path id="ic_cloud-5" d="M34.554 86.318a13.763 13.763 0 0 0-16.26-10.973A14.055 14.055 0 0 0 7.342 89.127c0 .319.013.645.04.99a8.432 8.432 0 0 0-7.336 9.335 8.34 8.34 0 0 0 8.212 7.595h25.667a10.388 10.388 0 0 0 .629-20.729z" class="cls-2" transform="translate(105 37.954)"/>
        </g>
        <g id="ic_plane" transform="translate(217 854)">
            <g filter="url(#shadow)" transform="translate(-34 -16)">
                <path id="shadow-2" d="M35.118 97.164a2.677 2.677 0 0 1-2.1-1.369L21.264 76.3 1.4 64.544a2.714 2.714 0 0 1-1.369-2.1 2.791 2.791 0 0 1 .806-2.334l4.025-4.03a2.9 2.9 0 0 1 2.577-.8l18.018 3.543 16.718-19.55C4.854 18.494 6.311 19.442 5.806 18.936a2.668 2.668 0 0 1-.8-1.61 2.809 2.809 0 0 1 .8-2.417l4.027-4.027a2.987 2.987 0 0 1 2.5-.806l19.277 3.192 6.413-6.412a2.847 2.847 0 1 1 4.025 4.026l-3.529 3.529 6.913 1.145 6.683-6.687a2.849 2.849 0 0 1 4.031 4.031l-3.8 3.8 8.151 1.349v.005l7.972-9.184C72.858 3.838 80.1.211 86.184.009c6.767-.239 11.236 4.148 11 11.075-.244 6.123-3.867 13.369-8.822 17.677l-9.222 8.015 1.356 8.148 3.838-3.836a2.848 2.848 0 0 1 4.028 4.027l-6.713 6.718 1.148 6.9 3.551-3.552a2.848 2.848 0 0 1 4.03 4.027l-6.431 6.428L87.15 84.9a2.979 2.979 0 0 1-.806 2.5l-4.025 4.026a2.806 2.806 0 0 1-2.417.807 2.668 2.668 0 0 1-1.611-.807c-.5-.5.485 1.027-20.338-36.365L38.742 72.114l3.542 17.64a2.891 2.891 0 0 1-.808 2.577l-4.025 4.027a2.834 2.834 0 0 1-1.982.831 2.581 2.581 0 0 1-.351-.025z" class="cls-3" transform="translate(34.81 16)"/>
            </g>
            <g id="plane" transform="translate(0 .002)">
                <path id="Path_16589" fill="url(#linear-gradient-2)" d="M86.184.022c-6.081.2-13.329 3.826-17.718 8.86l-7.974 9.182-21.037 6.347 2.715 14.876-16.718 19.55-18.017-3.544a2.9 2.9 0 0 0-2.577.806L.83 60.125a2.807 2.807 0 0 0-.805 2.336 2.712 2.712 0 0 0 1.369 2.094l19.87 11.759 11.759 19.492a2.664 2.664 0 0 0 2.094 1.369 2.807 2.807 0 0 0 2.336-.806l4.027-4.027a2.9 2.9 0 0 0 .806-2.577l-3.545-17.639 19.214-17.052 15.185 2.45 6-20.733 9.222-8.014c4.953-4.309 8.577-11.558 8.819-17.679C97.42 4.17 92.95-.219 86.184.022zM48.376 20.677l7.767-7.767a2.848 2.848 0 0 0-4.027-4.027L44.35 16.65a2.848 2.848 0 0 0 4.027 4.027zm32.216 32.217l7.767-7.767a2.848 2.848 0 1 0-4.027-4.027l-7.767 7.767a2.848 2.848 0 0 0 4.027 4.027zm-46.021-34.52l7.478-7.474a2.848 2.848 0 1 0-4.027-4.027l-7.478 7.478a2.847 2.847 0 1 0 4.027 4.027zm51.774 36.82l-7.478 7.478a2.848 2.848 0 1 0 4.028 4.028l7.478-7.478a2.848 2.848 0 0 0-4.027-4.027z" transform="translate(0 .797)"/>
                <g id="Group_5924" transform="translate(.81)">
                    <g id="Group_5923">
                        <path id="Path_16365" d="M86.184.022c-6.081.2-13.329 3.826-17.718 8.86l-7.974 9.182-21.037 6.347 2.715 14.876-16.718 19.55-18.017-3.544a2.9 2.9 0 0 0-2.577.806L.83 60.125a2.807 2.807 0 0 0-.805 2.336 2.712 2.712 0 0 0 1.369 2.094l19.87 11.759 11.759 19.492a2.664 2.664 0 0 0 2.094 1.369 2.807 2.807 0 0 0 2.336-.806l4.027-4.027a2.9 2.9 0 0 0 .806-2.577l-3.545-17.639 19.214-17.052 15.185 2.45 6-20.733 9.222-8.014c4.953-4.309 8.577-11.558 8.819-17.679C97.42 4.17 92.95-.219 86.184.022zM48.376 20.677l7.767-7.767a2.848 2.848 0 0 0-4.027-4.027L44.35 16.65a2.848 2.848 0 0 0 4.027 4.027zm32.216 32.217l7.767-7.767a2.848 2.848 0 1 0-4.027-4.027l-7.767 7.767a2.848 2.848 0 0 0 4.027 4.027zm-46.021-34.52l7.478-7.474a2.848 2.848 0 1 0-4.027-4.027l-7.478 7.478a2.847 2.847 0 1 0 4.027 4.027zm51.774 36.82l-7.478 7.478a2.848 2.848 0 1 0 4.028 4.028l7.478-7.478a2.848 2.848 0 0 0-4.027-4.027z" class="cls-3" transform="translate(0 -.013)"/>
                    </g>
                </g>
                <g id="Group_5926" transform="translate(5.784 10.05)">
                    <g id="Group_5925">
                        <path id="Path_16366" fill="url(#linear-gradient-4)" d="M33.558 52.979a2.968 2.968 0 0 0-2.5.805l-4.027 4.027a2.806 2.806 0 0 0-.805 2.416 2.686 2.686 0 0 0 .805 1.611c.505.505-.953-.441 36.363 20.337l18.327-21.222zm74.82 74.824l-8.013-48.123-21.181 18.283C100 135.355 99.022 133.83 99.52 134.328a2.688 2.688 0 0 0 1.611.805 2.8 2.8 0 0 0 2.416-.805l4.027-4.027a2.969 2.969 0 0 0 .805-2.501zm-6.846-63.951l4.027-4.027a2.848 2.848 0 0 0-4.027-4.027l-4.027 4.027a2.848 2.848 0 0 0 4.027 4.027z" transform="translate(-26.202 -52.952)"/>
                    </g>
                </g>
            </g>
        </g>
    </g>
</svg>
