<svg xmlns="http://www.w3.org/2000/svg" width="117" height="24" viewBox="0 0 117 24">
    <defs>
        <style>
            .prefix__cls-1{fill:#fff}
        </style>
    </defs>
    <g id="prefix__logo" transform="translate(-197 -249)">
        <g id="prefix__logo-2" data-name="logo" transform="translate(197 249)">
            <g id="prefix__ic">
                <path id="prefix__Path_5" d="M1667.508 1516.665l-5.312 10.32a.552.552 0 0 0 .531.786h10.455a.553.553 0 0 0 .534-.78l-5.143-10.319a.608.608 0 0 0-1.065-.007z" class="prefix__cls-1" data-name="Path 5" transform="translate(-1657.078 -1516.354)"/>
                <path id="prefix__Path_6" d="M1587.594 1744.145l8.783-.022a.544.544 0 0 1 .294 1.025l-12.1 6.452a.572.572 0 0 1-.823-.714l3.314-6.43a.594.594 0 0 1 .532-.311z" class="prefix__cls-1" data-name="Path 6" transform="translate(-1583.69 -1730.433)"/>
                <path id="prefix__Path_7" d="M1635.058 1760.3l4.115 8.259a.552.552 0 0 1-.535.78l-19.577-.025a.544.544 0 0 1-.291-1.025l15.462-8.234a.609.609 0 0 1 .826.245z" class="prefix__cls-1" data-name="Path 7" transform="translate(-1616.229 -1745.336)"/>
            </g>
            <g id="prefix__lista" transform="translate(35 1)">
                <path id="prefix__Path_47" d="M152.676 106.388a5.457 5.457 0 0 1-4.091-1.855 6.406 6.406 0 0 1-1.685-4.453V86.3a1.775 1.775 0 0 1 .433-1.219 1.452 1.452 0 0 1 1.107-.477 1.528 1.528 0 0 1 1.107.477 1.775 1.775 0 0 1 .433 1.219v13.78a2.952 2.952 0 0 0 .77 2.067 2.429 2.429 0 0 0 1.877.848h9.481a1.452 1.452 0 0 1 1.107.477 1.933 1.933 0 0 1 0 2.439 1.452 1.452 0 0 1-1.107.477z" class="prefix__cls-1" data-name="Path 47" transform="translate(-146.9 -84.494)"/>
                <path id="prefix__Path_48" d="M191.433 105.864a1.775 1.775 0 0 1-.433-1.219V86.2a1.775 1.775 0 0 1 .433-1.219 1.523 1.523 0 0 1 2.214 0 1.775 1.775 0 0 1 .433 1.219v18.448a1.872 1.872 0 0 1-.433 1.219 1.523 1.523 0 0 1-2.214 0z" class="prefix__cls-1" data-name="Path 48" transform="translate(-169.775 -84.447)"/>
                <path id="prefix__Path_49" d="M212.608 93.771a8.016 8.016 0 0 1 5.342 1.855 5.652 5.652 0 0 1 2.166 4.506 5.727 5.727 0 0 1-2.166 4.506 8.016 8.016 0 0 1-5.342 1.855h-.048a7.182 7.182 0 0 1-1.829-.212 1.484 1.484 0 0 1-1.011-.742 1.7 1.7 0 0 1-.241-1.272 1.538 1.538 0 0 1 .674-1.06 1.326 1.326 0 0 1 1.155-.265 5.449 5.449 0 0 0 1.3.159 5.219 5.219 0 0 0 3.177-.954 2.163 2.163 0 0 0 0-3.923 7.881 7.881 0 0 0-2.5-.848 8.531 8.531 0 0 0-1.2-.106 7.893 7.893 0 0 1-4.813-1.8 5.652 5.652 0 0 1-2.166-4.506 5.727 5.727 0 0 1 2.166-4.506 8.016 8.016 0 0 1 5.342-1.855h.048a9.071 9.071 0 0 1 6.931 3.181A1.775 1.775 0 0 1 220.02 89a1.872 1.872 0 0 1-.433 1.219 1.452 1.452 0 0 1-1.107.477 1.528 1.528 0 0 1-1.107-.477 6.211 6.211 0 0 0-4.813-2.173h-.048a5.219 5.219 0 0 0-3.176.954 2.163 2.163 0 0 0 0 3.923 6.609 6.609 0 0 0 3.273.848zm-4.284 7.528a1.538 1.538 0 0 1 .529 1.166 1.7 1.7 0 0 1-.337 1.272 1.477 1.477 0 0 1-1.2.636 1.311 1.311 0 0 1-.963-.371 5.34 5.34 0 0 1-.77-.742 1.775 1.775 0 0 1-.433-1.219 1.872 1.872 0 0 1 .433-1.219 1.452 1.452 0 0 1 1.107-.477 1.528 1.528 0 0 1 1.107.477 5.257 5.257 0 0 0 .528.478z" class="prefix__cls-1" data-name="Path 49" transform="translate(-177.089 -84.494)"/>
                <path id="prefix__Path_50" d="M258.289 84.5a1.452 1.452 0 0 1 1.107.477 1.775 1.775 0 0 1 .433 1.219 1.872 1.872 0 0 1-.433 1.219 1.452 1.452 0 0 1-1.107.477h-2.118a4.35 4.35 0 0 0-3.321 1.537 5.269 5.269 0 0 0-1.4 3.658v11.5a1.775 1.775 0 0 1-.433 1.219 1.523 1.523 0 0 1-2.214 0 1.775 1.775 0 0 1-.433-1.219v-11.5a8.985 8.985 0 0 1 1.588-5.2h-8.418a1.452 1.452 0 0 1-1.107-.477 1.933 1.933 0 0 1 0-2.439 1.452 1.452 0 0 1 1.107-.477z" class="prefix__cls-1" data-name="Path 50" transform="translate(-195.192 -84.447)"/>
                <path id="prefix__Path_51" d="M295.838 103.855a1.678 1.678 0 0 1 .1 1.272 1.482 1.482 0 0 1-.77.954 1.567 1.567 0 0 1-.674.159 1.465 1.465 0 0 1-1.4-.954l-2.262-5.036a17.335 17.335 0 0 0-8.711 2.863 14.074 14.074 0 0 0-3.128 2.6 1.368 1.368 0 0 1-1.155.53 1.266 1.266 0 0 1-.866-.318 1.721 1.721 0 0 1-.626-.954 1.915 1.915 0 0 1 .1-1.166l8.326-18.448a1.422 1.422 0 0 1 1.4-.954 1.465 1.465 0 0 1 1.4.954l3.321 7.369a1.668 1.668 0 0 1 .036 1.274 1.734 1.734 0 0 1-.77 1.007 1.282 1.282 0 0 1-1.155.106 1.654 1.654 0 0 1-.914-.848l-1.925-4.347-4.236 9.382a20.048 20.048 0 0 1 9.818-2.545h.337l.1.053h.048l.1.053.048.053a.164.164 0 0 1 .1.053l.048.053.048.053.048.053.048.053.048.053.048.053.048.053.048.053.048.053.048.053.048.053.048.106z" class="prefix__cls-1" data-name="Path 51" transform="translate(-214.019 -84.4)"/>
            </g>
        </g>
    </g>
</svg>
