<svg xmlns="http://www.w3.org/2000/svg" width="20" height="20" viewBox="0 0 20 20">
    <defs>
        <linearGradient id="7qqa3p3vza" x1=".084" x2=".916" y1=".916" y2=".084" gradientUnits="objectBoundingBox">
            <stop offset="0" stop-color="#ffd600"/>
            <stop offset=".5" stop-color="#ff0100"/>
            <stop offset="1" stop-color="#d800b9"/>
        </linearGradient>
        <linearGradient id="dkpibpk1xb" x1=".146" x2=".854" y1=".854" y2=".146" gradientUnits="objectBoundingBox">
            <stop offset="0" stop-color="#ff6400"/>
            <stop offset=".5" stop-color="#ff0100"/>
            <stop offset="1" stop-color="#fd0056"/>
        </linearGradient>
        <linearGradient id="a0l43bzqhc" x1=".146" x2=".854" y1=".854" y2=".146" gradientUnits="objectBoundingBox">
            <stop offset="0" stop-color="#f30072"/>
            <stop offset="1" stop-color="#e50097"/>
        </linearGradient>
    </defs>
    <path fill="url(#7qqa3p3vza)" d="M19.94 5.877a7.342 7.342 0 0 0-.465-2.427 4.9 4.9 0 0 0-1.153-1.771A4.9 4.9 0 0 0 16.55.525 7.34 7.34 0 0 0 14.123.06C13.056.012 12.716 0 10 0S6.944.012 5.877.06A7.342 7.342 0 0 0 3.45.525a4.9 4.9 0 0 0-1.772 1.153A4.9 4.9 0 0 0 .525 3.45 7.341 7.341 0 0 0 .06 5.877C.012 6.944 0 7.284 0 10s.012 3.057.06 4.123a7.34 7.34 0 0 0 .465 2.427 4.9 4.9 0 0 0 1.153 1.771 4.9 4.9 0 0 0 1.772 1.154 7.338 7.338 0 0 0 2.427.465c1.067.048 1.407.06 4.123.06s3.056-.011 4.123-.06a7.338 7.338 0 0 0 2.427-.465 5.112 5.112 0 0 0 2.924-2.924 7.339 7.339 0 0 0 .465-2.427c.049-1.067.06-1.407.06-4.123s-.011-3.057-.059-4.124zm-1.8 8.164a5.533 5.533 0 0 1-.34 1.859 3.312 3.312 0 0 1-1.9 1.9 5.533 5.533 0 0 1-1.857.344c-1.054.048-1.371.058-4.041.058s-2.987-.01-4.041-.058A5.535 5.535 0 0 1 4.1 17.8a3.1 3.1 0 0 1-1.15-.748A3.1 3.1 0 0 1 2.2 15.9a5.533 5.533 0 0 1-.344-1.857C1.812 12.987 1.8 12.67 1.8 10s.01-2.986.058-4.041A5.537 5.537 0 0 1 2.2 4.1a3.1 3.1 0 0 1 .748-1.15A3.1 3.1 0 0 1 4.1 2.2a5.532 5.532 0 0 1 1.859-.34C7.014 1.812 7.33 1.8 10 1.8c2.67 0 2.986.01 4.041.058A5.534 5.534 0 0 1 15.9 2.2a3.1 3.1 0 0 1 1.15.748A3.1 3.1 0 0 1 17.8 4.1a5.528 5.528 0 0 1 .344 1.857c.044 1.057.056 1.373.056 4.043s-.012 2.986-.06 4.041zm0 0"/>
    <path fill="url(#dkpibpk1xb)" d="M129.674 124.539a5.135 5.135 0 1 0 5.135 5.135 5.135 5.135 0 0 0-5.135-5.135zm0 8.468a3.333 3.333 0 1 1 3.333-3.333 3.333 3.333 0 0 1-3.333 3.334zm0 0" transform="translate(-119.674 -119.674)"/>
    <path fill="url(#a0l43bzqhc)" d="M364.33 89.825a1.2 1.2 0 1 1-1.2-1.2 1.2 1.2 0 0 1 1.2 1.2zm0 0" transform="translate(-347.792 -85.163)"/>
</svg>
