<svg xmlns="http://www.w3.org/2000/svg" width="12" height="20" viewBox="0 0 12 20">
    <defs>
        <linearGradient id="jojxtbotsa" x1=".5" x2=".5" y2="1" gradientUnits="objectBoundingBox">
            <stop offset="0" stop-color="#71afff"/>
            <stop offset="1" stop-color="#1877f2"/>
        </linearGradient>
    </defs>
    <path fill="url(#jojxtbotsa)" d="M18 3.556A.55.55 0 0 0 17.455 3h-2.728a5.24 5.24 0 0 0-5.454 5v3H6.545a.55.55 0 0 0-.545.553v2.888a.55.55 0 0 0 .545.559h2.728v7.442a.55.55 0 0 0 .545.555h3.273a.55.55 0 0 0 .545-.555V15h2.858a.547.547 0 0 0 .535-.411l.785-2.888a.563.563 0 0 0-.093-.481.542.542 0 0 0-.43-.22h-3.655V8a1.1 1.1 0 0 1 1.091-1h2.727A.55.55 0 0 0 18 6.444z" transform="translate(-6 -2.994)"/>
</svg>
