<?xml version="1.0" encoding="UTF-8"?>
<svg width="30px" height="28px" viewBox="0 0 30 28" version="1.1" xmlns="http://www.w3.org/2000/svg" xmlns:xlink="http://www.w3.org/1999/xlink">
    <!-- Generator: sketchtool 49 (51002) - http://www.bohemiancoding.com/sketch -->
    <title>F00896F7-C1C7-4778-9D64-0B3CD2497135</title>
    <desc>Created with sketchtool.</desc>
    <defs></defs>
    <g id="customer-page-(corrected-design)" stroke="none" stroke-width="1" fill="none" fill-rule="evenodd">
        <g id="Customer-Page-(original-size)" transform="translate(-108.000000, -356.000000)" fill="#FFFFFF" fill-rule="nonzero">
            <g id="Group-2" transform="translate(-195.000000, 0.000000)">
                <g id="quick-links" transform="translate(195.000000, 327.000000)">
                    <g id="subscription" transform="translate(90.000000, 11.000000)">
                        <g id="ic-subscription" transform="translate(18.000000, 18.000000)">
                            <path d="M27.5,28 L5,28 C3.625,28 2.5,26.8 2.5,25.3333333 L2.5,9.2 C2.5,7.73333333 3.625,6.53333333 5,6.53333333 L27.5,6.53333333 C28.875,6.53333333 30,7.73333333 30,9.2 L30,25.3333333 C30,26.8 28.875,28 27.5,28 Z M5,7.86666667 C4.3125,7.86666667 3.75,8.46666667 3.75,9.2 L3.75,25.3333333 C3.75,26.0666667 4.3125,26.6666667 5,26.6666667 L27.5,26.6666667 C28.1875,26.6666667 28.75,26.0666667 28.75,25.3333333 L28.75,9.2 C28.75,8.46666667 28.1875,7.86666667 27.5,7.86666667 L5,7.86666667 Z" id="Shape"></path>
                            <rect id="Rectangle-path" x="6.875" y="20.6666667" width="3.75" height="1.33333333"></rect>
                            <rect id="Rectangle-path" x="11.875" y="20.6666667" width="3.75" height="1.33333333"></rect>
                            <rect id="Rectangle-path" x="16.875" y="20.6666667" width="3.75" height="1.33333333"></rect>
                            <rect id="Rectangle-path" x="21.875" y="20.6666667" width="3.75" height="1.33333333"></rect>
                            <path d="M10.625,18 L7.5,18 C6.8125,18 6.25,17.4 6.25,16.6666667 L6.25,14 C6.25,13.2666667 6.8125,12.6666667 7.5,12.6666667 L10.625,12.6666667 C11.3125,12.6666667 11.875,13.2666667 11.875,14 L11.875,16.6666667 C11.875,17.4 11.3125,18 10.625,18 Z M7.5,14 L7.5,16.6666667 L10.625,16.6666667 L10.625,14 L7.5,14 Z" id="Shape"></path>
                            <rect id="Rectangle-path" x="13.75" y="14.6666667" width="1.25" height="2.66666667"></rect>
                            <rect id="Rectangle-path" x="16.25" y="14.6666667" width="1.25" height="2.66666667"></rect>
                            <rect id="Rectangle-path" x="18.75" y="14.6666667" width="1.25" height="2.66666667"></rect>
                            <rect id="Rectangle-path" x="21.25" y="14.6666667" width="1.25" height="2.66666667"></rect>
                            <g id="Group">
                                <path d="M3.125,21.4666667 L2.5,21.4666667 C1.125,21.4666667 0,20.2666667 0,18.8 L0,2.66666667 C0,1.2 1.125,0 2.5,0 L25,0 C26.375,0 27.5,1.2 27.5,2.66666667 L27.5,7.33333333 L26.25,7.33333333 L26.25,2.66666667 C26.25,1.93333333 25.6875,1.33333333 25,1.33333333 L2.5,1.33333333 C1.8125,1.33333333 1.25,1.93333333 1.25,2.66666667 L1.25,18.8 C1.25,19.5333333 1.8125,20.1333333 2.5,20.1333333 L3.125,20.1333333 L3.125,21.4666667 Z" id="Shape"></path>
                                <path d="M26.875,5.33333333 L0.625,5.33333333 C0.25,5.33333333 0,5.06666667 0,4.66666667 C0,4.26666667 0.25,4 0.625,4 L26.875,4 C27.25,4 27.5,4.26666667 27.5,4.66666667 C27.5,5.06666667 27.25,5.33333333 26.875,5.33333333 Z" id="Shape"></path>
                            </g>
                        </g>
                    </g>
                </g>
            </g>
        </g>
    </g>
</svg>