<svg xmlns="http://www.w3.org/2000/svg" xmlns:xlink="http://www.w3.org/1999/xlink" width="254" height="540" viewBox="0 0 254 540"><defs><style>.a{fill:#e8e8e8;}.b{fill:none;}.c{clip-path:url(#a);}.d{fill:url(#b);}.e{fill:#272727;}.e,.f{opacity:0;}.f{fill:rgba(0,0,0,0);}.g{fill:url(#c);}.h{fill:#020000;}.i{fill:transparent;}.j{fill:#e7e7e7;}.k{fill:rgba(0,0,0,0.19);}.l{clip-path:url(#h);}.m{fill:url(#i);}.n{fill:url(#j);}.o{fill:#606060;}.p{fill:url(#k);}.q{fill:url(#l);}.r{filter:url(#f);}</style><clipPath id="a"><path class="a" d="M23.972,0H230.028A23.98,23.98,0,0,1,254,23.988V514.3a25.681,25.681,0,0,1-25.672,25.69H25.672A25.681,25.681,0,0,1,0,514.3V23.988A23.98,23.98,0,0,1,23.972,0Z"/></clipPath><linearGradient id="b" x1="0.207" y1="0.33" x2="0.888" y2="0.444" gradientUnits="objectBoundingBox"><stop offset="0" stop-color="#e8e8e8"/><stop offset="0.468" stop-color="#323232"/><stop offset="1" stop-color="#e8e8e8"/></linearGradient><linearGradient id="c" x1="0.207" y1="0.67" x2="0.888" y2="0.556" xlink:href="#b"/><filter id="f" x="1.7" y="4.083" width="250.599" height="534.822" filterUnits="userSpaceOnUse"><feOffset dy="3" input="SourceAlpha"/><feGaussianBlur result="g"/><feFlood flood-opacity="0.243"/><feComposite operator="in" in2="g"/><feComposite in="SourceGraphic"/></filter><clipPath id="h"><path class="b" d="M20.911,0H223.9a20.959,20.959,0,0,1,20.911,21.006V503.471a28.627,28.627,0,0,1-28.562,28.692H28.562A28.627,28.627,0,0,1,0,503.471V21.006A20.959,20.959,0,0,1,20.911,0Z" transform="translate(0)"/></clipPath><linearGradient id="i" y1="0.5" x2="1.578" y2="0.5" gradientUnits="objectBoundingBox"><stop offset="0" stop-color="#fff" stop-opacity="0"/><stop offset="1" stop-color="#fff" stop-opacity="0.902"/></linearGradient><linearGradient id="j" x1="-0.74" y1="0.5" x2="1" y2="0.5" gradientUnits="objectBoundingBox"><stop offset="0" stop-color="#fff" stop-opacity="0.902"/><stop offset="1" stop-color="#fff" stop-opacity="0"/></linearGradient><linearGradient id="k" x1="0.5" y1="0.165" x2="0.5" y2="1" gradientUnits="objectBoundingBox"><stop offset="0" stop-color="#020000"/><stop offset="1" stop-color="#606060"/></linearGradient><linearGradient id="l" x1="0.5" x2="0.5" y2="0.5" gradientUnits="objectBoundingBox"><stop offset="0" stop-color="#404040"/><stop offset="1" stop-color="#020000"/></linearGradient></defs><g transform="translate(0)"><path class="a" d="M23.972,0H230.028A23.98,23.98,0,0,1,254,23.988V514.3a25.681,25.681,0,0,1-25.672,25.689H25.672A25.681,25.681,0,0,1,0,514.3V23.988A23.98,23.98,0,0,1,23.972,0Z" transform="translate(0)"/><g class="c" transform="translate(0 0)"><path class="d" d="M1.078,0l47.4,4.028L47.055,25.975h0L0,20.414H0Z" transform="matrix(0.777, 0.629, -0.629, 0.777, 235.017, -17.046)"/><path class="e" d="M12.175,0,0,.865.217.893c1.52.195,1.595,4.339.083,4.594h0l9.908-1.171h0C8.96,3.885,9.166.635,10.458.361Z" transform="translate(238.901 532.34) rotate(-39)"/><path class="f" d="M12.175,0,0,.865.217.893c1.52.195,1.595,4.339.083,4.594h0l9.908-1.171h0C8.96,3.885,9.166.635,10.458.361Z" transform="translate(1.22 9.706) rotate(-39)"/><path class="e" d="M0,0,12.175.867,11.958.9c-1.52.195-1.595,4.339-.083,4.594h0L1.967,4.318h0C3.215,3.887,3.01.638,1.717.364Z" transform="translate(4.67 524.676) rotate(39)"/><path class="g" d="M1.073,25.964l47.4-4.028L47.05-.011h0L0,5.55H0Z" transform="translate(34.211 3.136) rotate(141)"/><path class="g" d="M1.11,25.906l47.4-3.947L47.043.011h0L0,5.491H0Z" transform="translate(-3.486 505.996) rotate(39)"/><path class="d" d="M1.1,0,48.5,3.947,47.037,25.9h0L0,20.416H0Z" transform="translate(272.677 526.133) rotate(141)"/></g><g class="r" transform="matrix(1, 0, 0, 1, 0, 0)"><path class="h" d="M21.082,0H229.518A21.089,21.089,0,0,1,250.6,21.1V508.855a22.96,22.96,0,0,1-22.952,22.967H22.952A22.96,22.96,0,0,1,0,508.855V21.1A21.089,21.089,0,0,1,21.082,0Z" transform="translate(1.7 4.08)"/></g></g><path class="i" d="M19.722,0H225.1a19.728,19.728,0,0,1,19.721,19.735V492.693A19.728,19.728,0,0,1,225.1,512.427H19.722A19.728,19.728,0,0,1,0,492.693V19.735A19.728,19.728,0,0,1,19.722,0Z" transform="translate(4.635 11.444)"/><g transform="translate(1.03 3.416)"><path class="b" d="M21.082,0H229.518A21.1,21.1,0,0,1,250.6,21.117V509.366a22.971,22.971,0,0,1-22.952,22.99H22.952A22.971,22.971,0,0,1,0,509.366V21.117A21.1,21.1,0,0,1,21.082,0Z" transform="translate(0.68 0.681)"/><path class="j" d="M17.762-3.319A21.1,21.1,0,0,0-3.32,17.8V506.047a22.971,22.971,0,0,0,22.952,22.99h204.7a22.971,22.971,0,0,0,22.952-22.99V17.8A21.1,21.1,0,0,0,226.2-3.319H17.762m0-.681H226.2a21.886,21.886,0,0,1,4.385.443,21.624,21.624,0,0,1,7.783,3.28A21.772,21.772,0,0,1,247.959,17.8V506.047a23.881,23.881,0,0,1-.48,4.77,23.568,23.568,0,0,1-3.556,8.466,23.7,23.7,0,0,1-10.4,8.576,23.487,23.487,0,0,1-4.437,1.38,23.78,23.78,0,0,1-4.762.481H19.632a23.779,23.779,0,0,1-4.762-.481,23.491,23.491,0,0,1-8.451-3.562A23.644,23.644,0,0,1-4,506.047V17.8a21.993,21.993,0,0,1,.442-4.392A21.735,21.735,0,0,1,17.762-4Z" transform="translate(4 4)"/><path class="k" d="M0,0H4.93V3.546H0Z" transform="translate(210.136 533.037)"/><path class="k" d="M0,0H4.93V3.546H0Z" transform="translate(36.893 533.037)"/><path class="b" d="M20.912,0h203a20.929,20.929,0,0,1,20.912,20.947v481.1a28.586,28.586,0,0,1-28.562,28.61H28.562A28.586,28.586,0,0,1,0,502.043V20.947A20.929,20.929,0,0,1,20.912,0Z" transform="translate(3.57 1.703)"/></g><g class="l" transform="translate(4.637 3.737)"><path class="m" d="M0,0H9.878V532.162H0Z" transform="translate(235.119 1.708)"/><path class="n" d="M0,0H9.878V532.162H0Z" transform="translate(0)"/><path class="o" d="M210.452-35.8H4.5a19.892,19.892,0,0,1-3.97-.4,19.653,19.653,0,0,1-3.7-1.145,19.761,19.761,0,0,1-3.349-1.812,19.925,19.925,0,0,1-2.922-2.4,19.943,19.943,0,0,1-2.415-2.912,19.826,19.826,0,0,1-1.83-3.343,19.733,19.733,0,0,1-1.166-3.7,19.974,19.974,0,0,1-.424-3.969A27.15,27.15,0,0,0-11.2-48.853,27.252,27.252,0,0,0-5.453-43.67a26.944,26.944,0,0,0,15.069,4.58H205.333a26.943,26.943,0,0,0,15.069-4.58,27.253,27.253,0,0,0,5.748-5.182,27.151,27.151,0,0,0,4.077-6.629,19.975,19.975,0,0,1-.424,3.97,19.727,19.727,0,0,1-1.166,3.7,19.819,19.819,0,0,1-1.83,3.343,19.952,19.952,0,0,1-2.415,2.912,19.931,19.931,0,0,1-2.921,2.4,19.766,19.766,0,0,1-3.35,1.813,19.652,19.652,0,0,1-3.7,1.145A19.889,19.889,0,0,1,210.452-35.8Z" transform="translate(14.507 567.966)"/><path class="p" d="M210.452-35.8H4.5a19.892,19.892,0,0,1-3.97-.4,19.653,19.653,0,0,1-3.7-1.145,19.761,19.761,0,0,1-3.349-1.812,19.925,19.925,0,0,1-2.922-2.4,19.943,19.943,0,0,1-2.415-2.912,19.826,19.826,0,0,1-1.83-3.343,19.733,19.733,0,0,1-1.166-3.7,19.974,19.974,0,0,1-.424-3.969A27.15,27.15,0,0,0-11.2-48.853,27.252,27.252,0,0,0-5.453-43.67a26.944,26.944,0,0,0,15.069,4.58H205.333a26.943,26.943,0,0,0,15.069-4.58,27.253,27.253,0,0,0,5.748-5.182,27.151,27.151,0,0,0,4.077-6.629,19.975,19.975,0,0,1-.424,3.97,19.727,19.727,0,0,1-1.166,3.7,19.819,19.819,0,0,1-1.83,3.343,19.952,19.952,0,0,1-2.415,2.912,19.931,19.931,0,0,1-2.921,2.4,19.766,19.766,0,0,1-3.35,1.813,19.652,19.652,0,0,1-3.7,1.145A19.889,19.889,0,0,1,210.452-35.8Z" transform="translate(14.507 567.966)"/><path class="o" d="M210.452-59.743H4.5a19.894,19.894,0,0,0-3.97.4,19.648,19.648,0,0,0-7.049,2.957,19.861,19.861,0,0,0-7.167,8.656,19.735,19.735,0,0,0-1.166,3.7,19.976,19.976,0,0,0-.424,3.969A27.114,27.114,0,0,1,9.616-56.456H205.333a26.943,26.943,0,0,1,15.069,4.58,27.25,27.25,0,0,1,9.825,11.812,19.972,19.972,0,0,0-.424-3.97,19.724,19.724,0,0,0-3-7.038,19.905,19.905,0,0,0-5.336-5.313,19.65,19.65,0,0,0-7.049-2.957A19.891,19.891,0,0,0,210.452-59.743Z" transform="translate(14.507 58.718)"/><path class="q" d="M210.452-59.743H4.5a19.894,19.894,0,0,0-3.97.4,19.648,19.648,0,0,0-7.049,2.957,19.861,19.861,0,0,0-7.167,8.656,19.735,19.735,0,0,0-1.166,3.7,19.976,19.976,0,0,0-.424,3.969A27.114,27.114,0,0,1,9.616-56.456H205.333a26.943,26.943,0,0,1,15.069,4.58,27.25,27.25,0,0,1,9.825,11.812,19.972,19.972,0,0,0-.424-3.97,19.724,19.724,0,0,0-3-7.038,19.905,19.905,0,0,0-5.336-5.313,19.65,19.65,0,0,0-7.049-2.957A19.891,19.891,0,0,0,210.452-59.743Z" transform="translate(14.507 58.718)"/></g></svg>