<svg xmlns="http://www.w3.org/2000/svg" xmlns:xlink="http://www.w3.org/1999/xlink" width="272" height="578" viewBox="0 0 272 578">
  <defs>
    <clipPath id="clip-path">
      <path id="Path_13737" data-name="Path 13737" d="M25.671,0H246.329A25.674,25.674,0,0,1,272,25.677V550.5A27.5,27.5,0,0,1,244.508,578H27.491A27.5,27.5,0,0,1,0,550.5V25.677A25.674,25.674,0,0,1,25.671,0Z" fill="#e8e8e8"/>
    </clipPath>
    <linearGradient id="linear-gradient" x1="0.207" y1="0.33" x2="0.888" y2="0.444" gradientUnits="objectBoundingBox">
      <stop offset="0" stop-color="#e8e8e8"/>
      <stop offset="0.468" stop-color="#323232"/>
      <stop offset="1" stop-color="#e8e8e8"/>
    </linearGradient>
    <linearGradient id="linear-gradient-2" x1="0.207" y1="0.67" x2="0.888" y2="0.556" xlink:href="#linear-gradient"/>
  </defs>
  <g id="phone_frame" data-name="phone frame" transform="translate(-905 -136)">
    <path id="Exclusion_1" data-name="Exclusion 1" d="M-14566-1836h-220a25.839,25.839,0,0,1-10.12-2.043,25.914,25.914,0,0,1-8.265-5.572,25.909,25.909,0,0,1-5.571-8.264A25.844,25.844,0,0,1-14812-1862v-526a25.842,25.842,0,0,1,2.043-10.12,25.91,25.91,0,0,1,5.571-8.264,25.911,25.911,0,0,1,8.265-5.572A25.836,25.836,0,0,1-14786-2414h220a25.836,25.836,0,0,1,10.12,2.043,25.911,25.911,0,0,1,8.265,5.572,25.913,25.913,0,0,1,5.571,8.264A25.842,25.842,0,0,1-14540-2388v526a25.844,25.844,0,0,1-2.043,10.12,25.912,25.912,0,0,1-5.571,8.264,25.914,25.914,0,0,1-8.265,5.572A25.839,25.839,0,0,1-14566-1836Zm-219.895-566a20.967,20.967,0,0,0-8.214,1.659,21.047,21.047,0,0,0-6.707,4.523,21.033,21.033,0,0,0-4.523,6.708,20.962,20.962,0,0,0-1.658,8.214V-1875.1a20.962,20.962,0,0,0,1.658,8.214,21.029,21.029,0,0,0,4.523,6.708,21.049,21.049,0,0,0,6.707,4.523,20.97,20.97,0,0,0,8.214,1.659h219.791a20.97,20.97,0,0,0,8.214-1.659,21.049,21.049,0,0,0,6.707-4.523,21.042,21.042,0,0,0,4.523-6.708,20.962,20.962,0,0,0,1.658-8.214V-2380.9a20.963,20.963,0,0,0-1.658-8.214,21.033,21.033,0,0,0-4.523-6.708,21.047,21.047,0,0,0-6.707-4.523,20.967,20.967,0,0,0-8.214-1.659Z" transform="translate(15717 2550)" fill="#e8e8e8"/>
    <g id="Mask_Group_186" data-name="Mask Group 186" transform="translate(905 136)" clip-path="url(#clip-path)">
      <path id="Path_13716" data-name="Path 13716" d="M1.154,0,51.908,4.3,50.375,27.8h0L27.384,18.432,0,21.855H0Z" transform="matrix(0.777, 0.629, -0.629, 0.777, 251.672, -18.246)" fill="url(#linear-gradient)"/>
      <path id="Path_13717" data-name="Path 13717" d="M13.036,0,0,.926l.233.03C1.86,1.165,1.941,5.6.323,5.873h0L10.931,4.622h0C9.594,4.161,9.813.682,11.2.389Z" transform="translate(255.831 569.814) rotate(-39)" fill="#272727" opacity="0"/>
      <path id="Path_13718" data-name="Path 13718" d="M13.036,0,0,.926l.233.03C1.86,1.165,1.941,5.6.323,5.873h0L10.931,4.622h0C9.594,4.161,9.813.682,11.2.389Z" transform="translate(1.306 10.389) rotate(-39)" fill="rgba(0,0,0,0)" opacity="0"/>
      <path id="Path_13719" data-name="Path 13719" d="M0,0,13.036.926,12.8.956c-1.628.209-1.709,4.645-.09,4.918h0L2.1,4.622h0C3.442,4.161,3.222.683,1.838.389Z" transform="translate(5 561.61) rotate(39)" fill="#272727" opacity="0"/>
      <path id="Path_13738" data-name="Path 13738" d="M1.154,27.8l50.754-4.3L50.375,0h0L26.628,9.462,0,5.942H0Z" transform="translate(36.635 3.356) rotate(141)" fill="url(#linear-gradient-2)"/>
      <path id="Path_13739" data-name="Path 13739" d="M1.182,27.735,51.931,23.5,50.368,0h0L0,5.878H0Z" transform="translate(-3.733 541.615) rotate(39)" fill="url(#linear-gradient-2)"/>
      <path id="Path_13740" data-name="Path 13740" d="M1.182,0,51.931,4.236l-1.563,23.5h0L0,21.856H0Z" transform="translate(292.001 563.17) rotate(141)" fill="url(#linear-gradient)"/>
    </g>
    <path id="black_border" data-name="black border" d="M-10260.219-1844.74h-219.2a24.418,24.418,0,0,1-9.567-1.932,24.5,24.5,0,0,1-7.813-5.269,24.5,24.5,0,0,1-5.267-7.815,24.433,24.433,0,0,1-1.932-9.569v-522.094a22.449,22.449,0,0,1,1.773-8.79,22.536,22.536,0,0,1,4.838-7.178,22.5,22.5,0,0,1,7.177-4.839,22.432,22.432,0,0,1,8.788-1.774h223.208a22.426,22.426,0,0,1,8.786,1.774,22.518,22.518,0,0,1,7.176,4.839,22.536,22.536,0,0,1,4.838,7.178,22.449,22.449,0,0,1,1.773,8.79v522.094a24.432,24.432,0,0,1-1.932,9.569,24.508,24.508,0,0,1-5.267,7.815,24.5,24.5,0,0,1-7.812,5.269A24.4,24.4,0,0,1-10260.219-1844.74Zm-219.5-561.63a20.982,20.982,0,0,0-8.215,1.658,21.028,21.028,0,0,0-6.708,4.523,21.026,21.026,0,0,0-4.523,6.708,20.982,20.982,0,0,0-1.659,8.216v505.789a20.982,20.982,0,0,0,1.659,8.216,21.015,21.015,0,0,0,4.523,6.708,21.032,21.032,0,0,0,6.708,4.523,20.979,20.979,0,0,0,8.215,1.658h219.789a20.977,20.977,0,0,0,8.216-1.658,21.034,21.034,0,0,0,6.708-4.523,21.039,21.039,0,0,0,4.523-6.708,20.969,20.969,0,0,0,1.658-8.216v-505.789a20.969,20.969,0,0,0-1.658-8.216,21.036,21.036,0,0,0-4.523-6.708,21.032,21.032,0,0,0-6.708-4.523,20.976,20.976,0,0,0-8.216-1.658Z" transform="translate(11410.82 2554.371)" fill="#020000"/>
  </g>
</svg>
