<svg xmlns="http://www.w3.org/2000/svg" width="40" height="40" viewBox="0 0 40 40">
    <defs>
        <style>
            .cls-1{fill:#fff;opacity:0}.cls-2{fill:#ffd45d}.cls-3{fill:#ff6500}.cls-4{fill:#ff9416}.cls-5{fill:#ffc13f}.cls-6{fill:#ff7b05}
        </style>
    </defs>
    <g id="ic_premium" transform="translate(.081 .081)">
        <path id="border" d="M0 0h40v40H0z" class="cls-1" transform="translate(-.081 -.082)"/>
        <g id="ic_premium-2" data-name="ic_premium" transform="translate(.919 2.918)">
            <path id="Path_10761" d="M27.92 32.2H10.08a1.156 1.156 0 0 0-1 .594L.156 48.609a1.212 1.212 0 0 0 0 1.188l8.92 15.812a1.156 1.156 0 0 0 1 .594H27.92a1.156 1.156 0 0 0 1-.594L37.845 49.8a1.212 1.212 0 0 0 0-1.188L28.925 32.8a1.156 1.156 0 0 0-1.005-.6z" class="cls-2" data-name="Path 10761" transform="translate(0 -32.203)"/>
            <path id="Path_10762" d="M346.063 256h-7.606l-5.7 10.1 3.8 6.741a1.174 1.174 0 0 0 .425-.435l8.92-15.812a1.209 1.209 0 0 0 .161-.594z" class="cls-3" data-name="Path 10762" transform="translate(-308.063 -239)"/>
            <path id="Path_10763" d="M143.2 388.953h-11.4l-3.8 6.741a1.139 1.139 0 0 0 .58.159h17.84a1.139 1.139 0 0 0 .58-.159z" class="cls-4" data-name="Path 10763" transform="translate(-118.5 -361.854)"/>
            <path id="Path_10764" d="M13.3 266.1L7.606 256H0a1.209 1.209 0 0 0 .155.594l8.92 15.812a1.174 1.174 0 0 0 .425.435z" class="cls-5" data-name="Path 10764" transform="translate(0 -239)"/>
            <path id="Path_10765" d="M13.3 41.039L9.5 34.3a1.173 1.173 0 0 0-.425.435L.155 50.544a1.208 1.208 0 0 0-.155.594h7.606z" class="cls-2" data-name="Path 10765" transform="translate(0 -34.138)"/>
            <path id="Path_10766" d="M131.8 39.1h11.4l3.8-6.742a1.139 1.139 0 0 0-.58-.159h-17.84a1.139 1.139 0 0 0-.58.159z" class="cls-5" data-name="Path 10766" transform="translate(-118.5 -32.202)"/>
            <path id="Path_10767" d="M332.76 41.039l5.7 10.1h7.606a1.208 1.208 0 0 0-.155-.594l-8.92-15.812a1.173 1.173 0 0 0-.425-.435z" class="cls-4" data-name="Path 10767" transform="translate(-308.063 -34.138)"/>
            <path id="Path_10768" d="M119.57 123.047h-11.394l-5.7 10.1 5.7 10.1h11.394l5.7-10.1z" class="cls-6" data-name="Path 10768" transform="translate(-94.873 -116.146)"/>
        </g>
    </g>
</svg>
