<svg xmlns="http://www.w3.org/2000/svg" width="65.112" height="75.754" viewBox="0 0 65.112 75.754">
    <defs>
        <style>
            .cls-1{fill:url(#linear-gradient)}
        </style>
        <linearGradient id="linear-gradient" x1=".5" x2=".5" y2="1" gradientUnits="objectBoundingBox">
            <stop offset="0" stop-color="#fff" stop-opacity=".302"/>
            <stop offset="1" stop-color="#fff"/>
        </linearGradient>
    </defs>
    <path id="ic_question" d="M130.03 76l-.025-.694a7.713 7.713 0 0 1 1.186-6.062 10.505 10.505 0 0 1 4.208-3.507 13.5 13.5 0 0 0 4.292-3 5.159 5.159 0 0 0 1.419-4.675 5.713 5.713 0 0 0-2.32-4.012 6.972 6.972 0 0 0-5.09-.769 9.107 9.107 0 0 0-4.6 1.705 4.233 4.233 0 0 0-1.547 2.273l-.093 1.051a9.871 9.871 0 0 1-1.279 3.615 3.519 3.519 0 0 1-2.519 1.555 13.406 13.406 0 0 1-4.528-.336q-5.557-1.13-6.031-4a7.008 7.008 0 0 1 .1-2.654c.2-.922.376-1.7.509-2.327a19.33 19.33 0 0 1 1.366-3.369 19.579 19.579 0 0 1 2.857-4.375 19.89 19.89 0 0 1 5.037-3.894 21.755 21.755 0 0 1 7.708-2.618q9.247-1.428 16.041 3.4a18.57 18.57 0 0 1 8.05 12.422 16.639 16.639 0 0 1-.242 6.918A14.411 14.411 0 0 1 152.061 68a21.833 21.833 0 0 1-6.373 5.828l-1.329.64a13.278 13.278 0 0 1 .23 2.213 4.026 4.026 0 0 1-.509 1.766 3.71 3.71 0 0 1-1.972 1.6 17.825 17.825 0 0 1-3.994 1.009 16.083 16.083 0 0 1-4.127.2 3.51 3.51 0 0 1-2.376-1.1 5.414 5.414 0 0 1-1.04-1.7A17.152 17.152 0 0 1 130.03 76zm2.14 15.1a4.07 4.07 0 0 1 2.174-2.279 19.427 19.427 0 0 1 5.525-1.462q3.843-.594 5.814.79t2.755 6.1a11.311 11.311 0 0 1-.04 5.156 4.346 4.346 0 0 1-2.3 2.6 20.552 20.552 0 0 1-5.447 1.4 8.605 8.605 0 0 1-6.053-.88q-1.714-1.2-2.292-4.666l-.22-1.348a25.894 25.894 0 0 1-.36-2.973 7.04 7.04 0 0 1 .444-2.438z" class="cls-1" transform="rotate(25 159.302 -174.113)"/>
</svg>
