<svg xmlns="http://www.w3.org/2000/svg" width="126.002" height="73.001" viewBox="0 0 126.002 73.001">
    <defs>
        <filter id="Union_15" width="126" height="58.002" x="0" y="0" filterUnits="userSpaceOnUse">
            <feOffset dy="-3"/>
            <feGaussianBlur result="blur" stdDeviation="3"/>
            <feFlood flood-opacity=".239"/>
            <feComposite in2="blur" operator="in"/>
            <feComposite in="SourceGraphic"/>
        </filter>
        <filter id="Path_16541" width="40.136" height="27" x=".003" y="6.001" filterUnits="userSpaceOnUse">
            <feOffset dy="3"/>
            <feGaussianBlur result="blur-2" stdDeviation="3"/>
            <feFlood flood-color="#b91d73" flood-opacity=".349"/>
            <feComposite in2="blur-2" operator="in"/>
            <feComposite in="SourceGraphic"/>
        </filter>
        <filter id="Path_16542" width="40.135" height="27" x="85.866" y="6.001" filterUnits="userSpaceOnUse">
            <feOffset dy="3"/>
            <feGaussianBlur result="blur-3" stdDeviation="3"/>
            <feFlood flood-color="#b91d73" flood-opacity=".349"/>
            <feComposite in2="blur-3" operator="in"/>
            <feComposite in="SourceGraphic"/>
        </filter>
        <filter id="Path_16543" width="120.927" height="70" x="2.539" y="3.001" filterUnits="userSpaceOnUse">
            <feOffset dy="6"/>
            <feGaussianBlur result="blur-4" stdDeviation="5"/>
            <feFlood flood-color="#b91d73" flood-opacity=".349"/>
            <feComposite in2="blur-4" operator="in"/>
            <feComposite in="SourceGraphic"/>
        </filter>
        <linearGradient id="linear-gradient" x1=".5" x2=".5" y2="1" gradientUnits="objectBoundingBox">
            <stop offset="0" stop-color="#d6108b"/>
            <stop offset="1" stop-color="#670546"/>
        </linearGradient>
        <linearGradient id="linear-gradient-4" x1=".5" x2=".5" y2="1" gradientUnits="objectBoundingBox">
            <stop offset="0" stop-color="#fc2db6"/>
            <stop offset=".448" stop-color="#da138e"/>
            <stop offset="1" stop-color="#8e0560"/>
        </linearGradient>
        <style>
            .cls-1{fill:url(#linear-gradient)}
        </style>
    </defs>
    <g id="tag" transform="translate(-1057.773 -2729.516) translate(1057.77 2729.52)">
        <g filter="url(#Union_15)">
            <path id="Union_15-2" d="M-17904.256 8874.618l-31.133-8.233a4.572 4.572 0 0 1-3.484-4.357c0-4.731-.01-13.19-.014-17.8h-.041V8844H-17956a8.784 8.784 0 0 1 8.539-9h90.926a8.781 8.781 0 0 1 8.535 9h-17.07v.221h-.041c0 4.628-.008 13.118-.018 17.841a4.551 4.551 0 0 1-3.434 4.344l-29.721 8.184a11.378 11.378 0 0 1-3.033.409 11.472 11.472 0 0 1-2.939-.381zm47.467-39.611c.086 0 .166-.009.252-.009h-.252zm-90.42 0h-.254c.082-.007.168-.007.254 0z" class="cls-1" transform="translate(17965 -8823)"/>
        </g>
        <g id="Group_6082">
            <g filter="url(#Path_16541)">
                <path id="Path_16541-2" d="M1075.312 2741.517c.085 0 .169 0 .253.007v-.007h13.347v9h-22.136a8.777 8.777 0 0 1 8.536-9z" class="cls-1" transform="translate(-1057.77 -2729.52)"/>
            </g>
            <g filter="url(#Path_16542)">
                <path id="Path_16542-2" d="M1755.94 2741.517c-.085 0-.168 0-.253.007v-.007h-13.346v9h22.135a8.778 8.778 0 0 0-8.536-9z" class="cls-1" transform="translate(-1647.47 -2729.52)"/>
            </g>
            <g filter="url(#Path_16543)">
                <path id="Path_16543-2" fill="url(#linear-gradient-4)" d="M1201.036 2741.517h-67.1a8.34 8.34 0 0 1 8.536 8.128v1.094h.04c0 4.616.011 13.073.016 17.806a4.566 4.566 0 0 0 3.483 4.357l31.135 8.234a11.476 11.476 0 0 0 5.971-.03l29.719-8.18a4.562 4.562 0 0 0 3.435-4.344c0-4.725.012-13.216.015-17.844h.04v-1.094a8.34 8.34 0 0 1 8.536-8.128z" transform="translate(-1116.4 -2729.52)"/>
            </g>
        </g>
    </g>
</svg>
