<svg xmlns="http://www.w3.org/2000/svg" xmlns:xlink="http://www.w3.org/1999/xlink" width="24" height="24" viewBox="0 0 24 24">
    <defs>
        <path id="a" d="M17 5h4a1 1 0 0 1 0 2h-1v13a3 3 0 0 1-3 3H7a3 3 0 0 1-3-3V7H3a1 1 0 1 1 0-2h4V4a3 3 0 0 1 3-3h4a3 3 0 0 1 3 3v1zm-2 0V4a1 1 0 0 0-1-1h-4a1 1 0 0 0-1 1v1h6zm3 2H6v13a1 1 0 0 0 1 1h10a1 1 0 0 0 1-1V7zm-9 4a1 1 0 0 1 2 0v6a1 1 0 0 1-2 0v-6zm4 0a1 1 0 0 1 2 0v6a1 1 0 0 1-2 0v-6z"/>
    </defs>
    <g fill="none" fill-rule="evenodd">
        <mask id="b" fill="#fff">
            <use xlink:href="#a"/>
        </mask>
        <use fill="#FFF" fill-rule="nonzero" xlink:href="#a"/>
        <g fill="#FFF" mask="url(#b)">
            <path d="M0 0h24v24H0z"/>
        </g>
    </g>
</svg>
