<svg xmlns="http://www.w3.org/2000/svg" width="520" height="600" viewBox="0 0 520 600">
    <defs>
        <clipPath id="prefix__clip-path">
            <path id="prefix__mask" d="M0 0H520V600H0z" transform="translate(1400)" style="opacity:0;fill:none"/>
        </clipPath>
        <style>
            .prefix__cls-4{fill:none;stroke:#fff;stroke-miterlimit:10}
        </style>
    </defs>
    <g id="prefix__wave_3" transform="translate(-1400)">
        <g id="prefix__wave_3-2" data-name="wave_3" transform="translate(624.001 -279.999)" style="opacity:.4">
            <path id="prefix__Path_1" d="M2446 260.781S2340.463-91.359 1916.49 22.76 1264.223 503.008 879.386 395.41 470.9 99.475 324.96 260.781C181.461 419.388 719.581 1003.028 0 720.52" class="prefix__cls-4" data-name="Path 1" transform="translate(0 403.398)"/>
            <path id="prefix__Path_2" d="M2446 244.443S2334.391-90.99 1916.431 24.013c-119.162 32.779-223.408 85.59-320.341 142.539-240.99 141.4-434.935 307.507-704.141 239.4-374.44-94.726-403.27-270.45-550.171-117.5C317.8 313.414 312.211 349 314.327 390.037 324.861 594.458 584.838 931.851 0 713.093" class="prefix__cls-4" data-name="Path 2" transform="translate(0 388.109)"/>
            <path id="prefix__Path_3" d="M2446 228.211S2328.318-90.515 1916.375 25.368c-117.395 33.01-220.873 85.58-317.471 142.76C1360.658 308.809 1167.922 475.88 904.511 416.6 540.56 334.7 506.4 171.64 358.594 316.227c-24.274 23.747-30.279 57.252-30.833 95.71C325.031 601.255 568.864 907.405 0 705.772" class="prefix__cls-4" data-name="Path 3" transform="translate(0 372.714)"/>
            <path id="prefix__Path_4" d="M2446 212.095S2322.246-89.928 1916.317 26.843c-115.625 33.235-218.336 85.564-314.6 142.975-235.5 139.963-426.951 307.973-684.642 257.552-353.375-69.147-393.018-219.484-541.663-83.252-24.587 22.53-30.96 54.08-34.218 89.835C325.256 609.058 552.891 883.079 0 698.57" class="prefix__cls-4" data-name="Path 4" transform="translate(0 357.202)"/>
            <path id="prefix__Path_5" d="M2446 196.11S2316.173-89.205 1916.261 28.449C1802.4 61.912 1700.459 114 1604.527 171.643c-232.762 139.242-422.842 308.152-674.891 266.623-342.691-56.466-387.984-194.02-537.405-66.128-24.906 21.321-31.658 51.06-37.6 83.963C325.377 618.1 536.916 858.881 0 691.5" class="prefix__cls-4" data-name="Path 5" transform="translate(0 341.56)"/>
            <path id="prefix__Path_6" d="M2446 180.277S2310.1-88.331 1916.2 30.2c-112.089 33.695-213.265 85.537-308.865 143.416C1377.323 312.138 1188.687 481.9 942.2 449.312c-331.912-43.877-383.02-168.577-533.153-49-25.236 20.1-32.44 48.207-40.981 78.084C325.138 628.585 520.94 834.838 0 684.575" class="prefix__cls-4" data-name="Path 6" transform="translate(0 325.765)"/>
            <path id="prefix__Path_7" d="M2446 164.614s-141.973-251.9-529.856-132.483c-110.318 33.923-210.728 85.521-305.995 143.631-227.272 137.8-414.381 308.351-655.388 284.771-321.033-31.412-378.125-143.165-528.9-31.875-25.578 18.882-38.6 43.939-44.364 72.208C299.022 627.415 504.965 810.962 0 677.826" class="prefix__cls-4" data-name="Path 7" transform="translate(0 309.8)"/>
            <path id="prefix__Path_8" d="M2446 149.149S2297.955-86.045 1916.089 34.257c-108.554 34.148-208.2 85.5-303.128 143.849-224.526 137.081-410.035 308.338-645.637 293.842-310.051-19.074-373.295-117.788-524.64-14.748-25.931 17.653-40.238 40.607-47.75 66.333C294.72 634.47 488.991 787.283 0 671.272" class="prefix__cls-4" data-name="Path 8" transform="translate(0 293.638)"/>
            <path id="prefix__Path_9" d="M2446 133.912s-154.117-218.487-529.97-97.3c-106.783 34.376-204.594 87.249-300.258 144.064C1392.977 313 1206.9 494.1 979.887 483.594c-298.738-13.821-368.534-92.46-520.385 2.377-26.3 16.42-41.876 37.271-51.132 60.457C290.422 641.758 473.014 763.836 0 664.947" class="prefix__cls-4" data-name="Path 9" transform="translate(0 277.248)"/>
            <path id="prefix__Path_10" d="M2446 118.945s-160.193-201.783-530.025-79.714C1810.96 73.838 1714 126.594 1618.583 183.517c-219.311 130.836-402.126 311.419-626.13 311.99-287.868.734-363.841-67.187-516.135 19.5-26.668 15.181-43.507 33.939-54.514 54.582C286.12 649.311 457.04 740.655 0 658.894" class="prefix__cls-4" data-name="Path 10" transform="translate(0 260.587)"/>
            <path id="prefix__Path_11" d="M2446 104.288s-166.266-185.076-530.084-62.124C1812.672 77 1715.328 127.63 1621.395 186.669 1405.1 321.588 1224.843 494.313 1005.016 507.73c-276.594 16.886-359.2-41.976-511.879 36.632-27.053 13.926-45.141 30.607-57.9 48.706C281.818 657.174 441.066 717.788 0 653.147" class="prefix__cls-4" data-name="Path 11" transform="translate(0 243.617)"/>
            <path id="prefix__Path_12" d="M2446 90s-172.339-168.368-530.143-44.531c-101.477 35.061-198.051 85.449-291.652 144.72-213.549 134.2-391.953 307.122-606.627 330.138-265.316 28.445-354.618-16.847-507.623 53.757-27.448 12.664-46.778 27.275-61.281 42.828-171.157 48.5-23.582 78.376-448.674 30.86" class="prefix__cls-4" data-name="Path 12" transform="translate(0 226.276)"/>
            <path id="prefix__Path_13" d="M2446 76.158S2267.589-75.5 1915.8 49.216c-99.708 35.289-195.517 85.433-288.784 144.939-210.806 133.481-387.332 306.411-596.876 339.209-254.019 39.759-350.075 8.207-503.371 70.885-27.845 11.383-48.408 23.942-64.659 36.952-188.9 32.889-53 32.035-462.111 1.64" class="prefix__cls-4" data-name="Path 13" transform="translate(0 208.492)"/>
            <path id="prefix__Path_14" d="M2446 62.851S2261.516-72.1 1915.743 53.5c-97.938 35.521-192.979 85.423-285.914 145.16C1421.765 331.417 1247.1 504.151 1042.7 546.94c-242.735 50.813-345.564 33.166-499.114 88.006-28.253 10.091-50.042 20.61-68.045 31.08C268.913 683.3 393.141 651.715 0 638.447" class="prefix__cls-4" data-name="Path 14" transform="translate(0 190.172)"/>
            <path id="prefix__Path_15" d="M2446 50.2s-190.557-118.247-530.316 8.239c-96.17 35.749-190.442 85.407-283.044 145.375-205.317 132.04-378.158 304.354-577.374 357.358C823.76 622.763 714.19 619.209 560.408 666.3c-28.664 8.777-51.679 17.278-71.43 25.2C269.605 676.657 377.167 630.853 0 634.707" class="prefix__cls-4" data-name="Path 15" transform="translate(0 171.196)"/>
            <path id="prefix__Path_16" d="M2446 38.35s-196.629-101.54-530.371 25.83c-94.4 35.974-187.911 85.391-280.174 145.594-202.578 131.319-373.69 302.971-567.625 366.432-220.378 72.11-336.6 82.815-490.606 122.258-29.075 7.447-53.127 23.923-74.808 19.329-237.229-50.3-141.222-107-502.415-86.02" class="prefix__cls-4" data-name="Path 16" transform="translate(0 151.415)"/>
            <path id="prefix__Path_17" d="M2446 27.515s-202.7-84.834-530.43 43.418c-92.632 36.205-185.374 85.381-277.3 145.815-199.832 130.6-369.356 301.344-557.874 375.5-209.4 82.375-332.1 107.5-486.35 139.386-29.486 6.1-55.394 18.8-78.194 13.45C261.259 685.313 345.215 591.745 0 629.848" class="prefix__cls-4" data-name="Path 17" transform="translate(0 130.622)"/>
            <path id="prefix__Path_18" d="M2446 17.958s-208.774-68.126-530.486 61.008C1824.651 115.4 1732.675 164.331 1641.077 225c-197.089 129.881-365.214 299.479-548.123 384.576-198.635 92.417-327.6 132.088-482.094 156.513-29.9 4.728-57.34 13.707-81.576 7.574C256.654 704.677 326.629 589.54 0 629.205" class="prefix__cls-4" data-name="Path 18" transform="translate(0 108.552)"/>
            <path id="prefix__Path_19" d="M2446 10.029s-214.847-51.419-530.544 78.6c-89.1 36.662-180.3 85.348-271.568 146.249-194.343 129.157-361.317 297.4-538.372 393.651C917.4 730.8 782.466 785.117 627.676 802.166c-30.3 3.336-58.394 5.533-84.958 1.7C244.313 760.78 313.268 557.836 0 630.188" class="prefix__cls-4" data-name="Path 19" transform="translate(0 84.853)"/>
            <path id="prefix__Path_20" d="M2446 4.17s-220.92-34.715-530.6 96.187c-87.326 36.89-177.766 85.339-268.7 146.468-191.6 128.44-357.709 295.133-528.62 402.725-177.9 112-318.459 181.01-473.585 190.765-30.692 1.93-60.041 1.647-88.339-4.177C240.534 771.19 297.29 543.766 0 633.24" class="prefix__cls-4" data-name="Path 20" transform="translate(0 59.085)"/>
            <path id="prefix__Path_21" d="M2446 .83s-226.992-18.008-530.658 113.777c-85.558 37.118-175.232 85.322-265.831 146.686-188.854 127.72-354.425 292.73-518.869 411.8-168.011 121.65-313.809 205.356-469.328 207.889-31.078.505-61.607-2.217-91.725-10.052C237.318 784.466 281.317 532.213 0 638.814" class="prefix__cls-4" data-name="Path 21" transform="translate(0 30.798)"/>
            <path id="prefix__Path_22" d="M2446 0s-382.75-2.136-793.678 278.272S931.544 1015.828 583.025 908.23 265.342 523.174 0 646.9" class="prefix__cls-4" data-name="Path 22"/>
        </g>
    </g>
</svg>
