<svg xmlns="http://www.w3.org/2000/svg" xmlns:xlink="http://www.w3.org/1999/xlink" width="315" height="370" viewBox="0 0 315 370"><defs><style>.a{fill:#fff;opacity:0;}.b{fill:url(#a);}.c{clip-path:url(#v);}.d{opacity:0.35;}.e{clip-path:url(#w);}.f{clip-path:url(#y);}.g{clip-path:url(#aa);}.h{clip-path:url(#ac);}.i{clip-path:url(#ae);}.j{clip-path:url(#ag);}.k{clip-path:url(#ai);}.l{clip-path:url(#ak);}.m{clip-path:url(#am);}.n{clip-path:url(#ao);}.o{clip-path:url(#aq);}.p{clip-path:url(#as);}.q{clip-path:url(#au);}.r{clip-path:url(#aw);}.s{clip-path:url(#ay);}.t{clip-path:url(#ba);}.u{clip-path:url(#bc);}.v{clip-path:url(#be);}.w{clip-path:url(#bg);}.x{clip-path:url(#bi);}.y{clip-path:url(#bk);}</style><linearGradient id="a" x1="0.5" x2="0.5" y2="1" gradientUnits="objectBoundingBox"><stop offset="0" stop-color="#fff" stop-opacity="0"/><stop offset="1" stop-color="#fff" stop-opacity="0.549"/></linearGradient><clipPath id="v"><rect class="a" width="315" height="370" transform="translate(0 199)"/></clipPath><clipPath id="w"><path class="b" d="M0-617.39v-17.58l9.067-62.951L0-705.1v-3.2L6.577-703.1l5.076,4.795c0,.007,0,.014,0,.022L0-617.39" transform="translate(0 708.303)"/></clipPath><clipPath id="y"><path class="b" d="M0-592.412V-603.4l20.828-88.943-9.175-8.667-5.076-4.8L0-712.022v-3.452l19.863,18.762,3.6,4.049a1.259,1.259,0,0,1-.029.185L0-592.412" transform="translate(0 715.474)"/></clipPath><clipPath id="aa"><path class="b" d="M0-579.756V-587.8L32.529-686.94l-9.068-10.2-3.6-4.049L0-723.537v-3.777l32.978,37.1,2.22,2.986a1.264,1.264,0,0,1-.062.384L0-579.756" transform="translate(0 727.314)"/></clipPath><clipPath id="ac"><path class="b" d="M0-573.015v-6.378L44.018-682.332,35.2-694.192l-2.22-2.986L0-741.524v-4.2l45.726,61.49.97,1.573a1.261,1.261,0,0,1-.091.659L0-573.015" transform="translate(0 745.729)"/></clipPath><clipPath id="ae"><path class="b" d="M0-571.257v-5.318L55.123-679.634,46.7-693.31l-.97-1.573L0-769.088v-4.782l57.634,93.529a1.261,1.261,0,0,1,.039,1.257L0-571.257" transform="translate(0 773.87)"/></clipPath><clipPath id="ag"><path class="b" d="M0-575.695v-4.588l65.66-100.6L0-811.712V-817.3L68.224-681.366a1.261,1.261,0,0,1-.072,1.254L0-575.695" transform="translate(0 817.304)"/></clipPath><clipPath id="ai"><path class="b" d="M0-579.322v-4.065l75.424-96.1L5.544-855.419,0-856.218v-2.54l6.618.954a1.254,1.254,0,0,1,.826.492,1.3,1.3,0,0,1,.16.287L78.02-679.742a1.259,1.259,0,0,1-.179,1.243L0-579.322" transform="translate(0 858.758)"/></clipPath><clipPath id="ak"><path class="b" d="M0-569.055v-3.672L84.192-662.62,26.363-855.661,0-861.856v-2.583l27.641,6.5a1.259,1.259,0,0,1,.718.473,1.266,1.266,0,0,1,.2.39L86.8-662.649a1.259,1.259,0,0,1-.287,1.222L0-569.055" transform="translate(0 864.44)"/></clipPath><clipPath id="am"><path class="b" d="M0-559.58v-3.372l91.726-82.229L48.257-855.232,0-871.135v-2.647l49.728,16.388a1.252,1.252,0,0,1,.613.442,1.268,1.268,0,0,1,.223.5L94.326-644.982a1.257,1.257,0,0,1-.392,1.194L0-559.58" transform="translate(0 873.782)"/></clipPath><clipPath id="ao"><path class="b" d="M0-550.939v-3.14l97.768-73.331L71.1-854.156,0-884.706v-2.736l72.751,31.26a1.26,1.26,0,0,1,.511.4,1.271,1.271,0,0,1,.241.605l26.84,228.189a1.26,1.26,0,0,1-.495,1.154L0-550.939" transform="translate(0 887.442)"/></clipPath><clipPath id="aq"><path class="b" d="M0-543.287v-2.959L102.05-609.68,94.734-852.556,0-903.487v-2.852l96.557,51.911a1.236,1.236,0,0,1,.411.355,1.257,1.257,0,0,1,.25.714l7.36,244.328a1.257,1.257,0,0,1-.592,1.107L0-543.287" transform="translate(0 906.339)"/></clipPath><clipPath id="as"><path class="b" d="M0-536.907v-2.817L104.285-592.53,118.977-850.7,0-928.768v-3.005l120.955,79.367a1.272,1.272,0,0,1,.318.3,1.266,1.266,0,0,1,.247.824l-14.774,259.62a1.258,1.258,0,0,1-.686,1.051L0-536.907" transform="translate(0 931.773)"/></clipPath><clipPath id="au"><path class="b" d="M0-532.268v-2.707l104.176-41.763,39.437-272.326L0-962.39v-3.2l145.732,115a1.255,1.255,0,0,1,.229.236,1.261,1.261,0,0,1,.236.933L106.552-575.657a1.255,1.255,0,0,1-.776.986L0-532.268" transform="translate(0 965.589)"/></clipPath><clipPath id="aw"><path class="b" d="M0-530.119v-2.626l101.413-30.679L168.39-848.452,0-1007.023v-3.45L170.633-849.789l.146.165a1.264,1.264,0,0,1,.216,1.042l-67.31,286.442a1.256,1.256,0,0,1-.858.915L0-530.119" transform="translate(0 1010.473)"/></clipPath><clipPath id="ay"><path class="b" d="M0-530.243v-2.569L95.681-552.83l97.346-295.923L0-1065.245v-1.42H2.1L195.378-849.887l.069.085a1.258,1.258,0,0,1,.186,1.147l-97.8,297.3a1.25,1.25,0,0,1-.934.836L0-530.243" transform="translate(0 1066.664)"/></clipPath><clipPath id="ba"><path class="b" d="M0-506.74v-2.533l86.657-10.333L217.2-824.246,36.35-1066.664h3.13L219.642-825.172v0a1.262,1.262,0,0,1,.148,1.249L88.674-517.945a1.252,1.252,0,0,1-1,.753L0-506.74" transform="translate(0 1066.664)"/></clipPath><clipPath id="bc"><path class="b" d="M0-480.41v-2.517l74.017-2.3L240.556-796.019,73.2-1066.664h2.949L243.067-796.727a1.258,1.258,0,0,1,.04,1.258L75.882-483.4a1.251,1.251,0,0,1-1.064.661L0-480.41" transform="translate(0 1066.664)"/></clipPath><clipPath id="be"><path class="b" d="M58.092-447.418l-.072,0L0-450.7v-2.518l57.439,3.246L262.7-763.922,110.175-1066.664h2.808L265.264-764.408a1.263,1.263,0,0,1-.07,1.258L59.139-447.984a1.253,1.253,0,0,1-1.047.566" transform="translate(0 1066.664)"/></clipPath><clipPath id="bg"><path class="b" d="M37.143-411.538a1.216,1.216,0,0,1-.181-.013L0-416.912v-2.542l36.605,5.309L283.2-727.837,148.017-1066.664h2.7L285.8-728.1a1.26,1.26,0,0,1-.179,1.246L38.125-412.017a1.248,1.248,0,0,1-.982.479" transform="translate(0 1066.664)"/></clipPath><clipPath id="bi"><path class="b" d="M59.9-403.452H56.453L323.069-687.68,208.9-1066.664h2.619L325.677-687.713a1.262,1.262,0,0,1-.287,1.227L59.9-403.452" transform="translate(-56.453 1066.664)"/></clipPath><clipPath id="bk"><path class="b" d="M83.32-403.452H79.556L347.636-643.4l-88.27-423.26h2.56l1.149,5.51a5.709,5.709,0,0,0-.425-.623,2.253,2.253,0,0,0-1.063-.769c-.045,0-.072.019-.077.058a4.188,4.188,0,0,0,.383.974,7.8,7.8,0,0,0,1.242.65l2.122,10.177a.356.356,0,0,0-.148-.065.042.042,0,0,0-.019,0c-.025.013.09.174.222.326l84.924,407.214a1.26,1.26,0,0,1-.392,1.195L83.32-403.452m183.436-634.717c.14.2.273.392.426.589l.209.137c-.134-.184-.259-.368-.406-.552a1.39,1.39,0,0,0-.23-.174m-3.589-11.679c.175.192.336.389.53.575s.4.338.743.613c-.344-.358-.549-.591-.743-.771s-.354-.28-.53-.417" transform="translate(-79.556 1066.664)"/></clipPath></defs><g class="c" transform="translate(0 -199)"><g class="d" transform="translate(0.001 199)"><g transform="translate(0 222.816)"><g class="e" transform="translate(0)"><path class="b" d="M0-617.39v-17.58l9.067-62.951L0-705.1v-3.2L6.577-703.1l5.076,4.795c0,.007,0,.014,0,.022L0-617.39" transform="translate(0 708.303)"/></g></g><g transform="translate(0 218.357)"><g class="f" transform="translate(0 0)"><path class="b" d="M0-592.412V-603.4l20.828-88.943-9.175-8.667-5.076-4.8L0-712.022v-3.452l19.863,18.762,3.6,4.049a1.259,1.259,0,0,1-.029.185L0-592.412" transform="translate(0 715.474)"/></g></g><g transform="translate(0 210.995)"><g class="g"><path class="b" d="M0-579.756V-587.8L32.529-686.94l-9.068-10.2-3.6-4.049L0-723.537v-3.777l32.978,37.1,2.22,2.986a1.264,1.264,0,0,1-.062.384L0-579.756" transform="translate(0 727.314)"/></g></g><g class="h" transform="translate(0 199.546)"><path class="b" d="M0-573.015v-6.378L44.018-682.332,35.2-694.192l-2.22-2.986L0-741.524v-4.2l45.726,61.49.97,1.573a1.261,1.261,0,0,1-.091.659L0-573.015" transform="translate(0 745.729)"/></g><g class="i" transform="translate(0 182.049)"><path class="b" d="M0-571.257v-5.318L55.123-679.634,46.7-693.31l-.97-1.573L0-769.088v-4.782l57.634,93.529a1.261,1.261,0,0,1,.039,1.257L0-571.257" transform="translate(0 773.87)"/></g><g class="j" transform="translate(0 155.043)"><path class="b" d="M0-575.695v-4.588l65.66-100.6L0-811.712V-817.3L68.224-681.366a1.261,1.261,0,0,1-.072,1.254L0-575.695" transform="translate(0 817.304)"/></g><g class="k" transform="translate(0 129.268)"><path class="b" d="M0-579.322v-4.065l75.424-96.1L5.544-855.419,0-856.218v-2.54l6.618.954a1.254,1.254,0,0,1,.826.492,1.3,1.3,0,0,1,.16.287L78.02-679.742a1.259,1.259,0,0,1-.179,1.243L0-579.322" transform="translate(0 858.758)"/></g><g class="l" transform="translate(0 125.736)"><path class="b" d="M0-569.055v-3.672L84.192-662.62,26.363-855.661,0-861.856v-2.583l27.641,6.5a1.259,1.259,0,0,1,.718.473,1.266,1.266,0,0,1,.2.39L86.8-662.649a1.259,1.259,0,0,1-.287,1.222L0-569.055" transform="translate(0 864.44)"/></g><g class="m" transform="translate(0 119.927)"><path class="b" d="M0-559.58v-3.372l91.726-82.229L48.257-855.232,0-871.135v-2.647l49.728,16.388a1.252,1.252,0,0,1,.613.442,1.268,1.268,0,0,1,.223.5L94.326-644.982a1.257,1.257,0,0,1-.392,1.194L0-559.58" transform="translate(0 873.782)"/></g><g class="n" transform="translate(0 111.434)"><path class="b" d="M0-550.939v-3.14l97.768-73.331L71.1-854.156,0-884.706v-2.736l72.751,31.26a1.26,1.26,0,0,1,.511.4,1.271,1.271,0,0,1,.241.605l26.84,228.189a1.26,1.26,0,0,1-.495,1.154L0-550.939" transform="translate(0 887.442)"/></g><g class="o" transform="translate(0 99.684)"><path class="b" d="M0-543.287v-2.959L102.05-609.68,94.734-852.556,0-903.487v-2.852l96.557,51.911a1.236,1.236,0,0,1,.411.355,1.257,1.257,0,0,1,.25.714l7.36,244.328a1.257,1.257,0,0,1-.592,1.107L0-543.287" transform="translate(0 906.339)"/></g><g class="p" transform="translate(0 83.871)"><path class="b" d="M0-536.907v-2.817L104.285-592.53,118.977-850.7,0-928.768v-3.005l120.955,79.367a1.272,1.272,0,0,1,.318.3,1.266,1.266,0,0,1,.247.824l-14.774,259.62a1.258,1.258,0,0,1-.686,1.051L0-536.907" transform="translate(0 931.773)"/></g><g class="q" transform="translate(0 62.845)"><path class="b" d="M0-532.268v-2.707l104.176-41.763,39.437-272.326L0-962.39v-3.2l145.732,115a1.255,1.255,0,0,1,.229.236,1.261,1.261,0,0,1,.236.933L106.552-575.657a1.255,1.255,0,0,1-.776.986L0-532.268" transform="translate(0 965.589)"/></g><g class="r" transform="translate(0 34.938)"><path class="b" d="M0-530.119v-2.626l101.413-30.679L168.39-848.452,0-1007.023v-3.45L170.633-849.789l.146.165a1.264,1.264,0,0,1,.216,1.042l-67.31,286.442a1.256,1.256,0,0,1-.858.915L0-530.119" transform="translate(0 1010.473)"/></g><g class="s" transform="translate(0 0)"><path class="b" d="M0-530.243v-2.569L95.681-552.83l97.346-295.923L0-1065.245v-1.42H2.1L195.378-849.887l.069.085a1.258,1.258,0,0,1,.186,1.147l-97.8,297.3a1.25,1.25,0,0,1-.934.836L0-530.243" transform="translate(0 1066.664)"/></g><g class="t" transform="translate(0 0)"><path class="b" d="M0-506.74v-2.533l86.657-10.333L217.2-824.246,36.35-1066.664h3.13L219.642-825.172v0a1.262,1.262,0,0,1,.148,1.249L88.674-517.945a1.252,1.252,0,0,1-1,.753L0-506.74" transform="translate(0 1066.664)"/></g><g class="u" transform="translate(0 0)"><path class="b" d="M0-480.41v-2.517l74.017-2.3L240.556-796.019,73.2-1066.664h2.949L243.067-796.727a1.258,1.258,0,0,1,.04,1.258L75.882-483.4a1.251,1.251,0,0,1-1.064.661L0-480.41" transform="translate(0 1066.664)"/></g><g class="v" transform="translate(0 0)"><path class="b" d="M58.092-447.418l-.072,0L0-450.7v-2.518l57.439,3.246L262.7-763.922,110.175-1066.664h2.808L265.264-764.408a1.263,1.263,0,0,1-.07,1.258L59.139-447.984a1.253,1.253,0,0,1-1.047.566" transform="translate(0 1066.664)"/></g><g class="w" transform="translate(0 0)"><path class="b" d="M37.143-411.538a1.216,1.216,0,0,1-.181-.013L0-416.912v-2.542l36.605,5.309L283.2-727.837,148.017-1066.664h2.7L285.8-728.1a1.26,1.26,0,0,1-.179,1.246L38.125-412.017a1.248,1.248,0,0,1-.982.479" transform="translate(0 1066.664)"/></g><g class="x" transform="translate(34.978 0)"><path class="b" d="M59.9-403.452H56.453L323.069-687.68,208.9-1066.664h2.619L325.677-687.713a1.262,1.262,0,0,1-.287,1.227L59.9-403.452" transform="translate(-56.453 1066.664)"/></g><g class="y" transform="translate(49.292 0)"><path class="b" d="M83.32-403.452H79.556L347.636-643.4l-88.27-423.26h2.56l1.149,5.51a5.709,5.709,0,0,0-.425-.623,2.253,2.253,0,0,0-1.063-.769c-.045,0-.072.019-.077.058a4.188,4.188,0,0,0,.383.974,7.8,7.8,0,0,0,1.242.65l2.122,10.177a.356.356,0,0,0-.148-.065.042.042,0,0,0-.019,0c-.025.013.09.174.222.326l84.924,407.214a1.26,1.26,0,0,1-.392,1.195L83.32-403.452m183.436-634.717c.14.2.273.392.426.589l.209.137c-.134-.184-.259-.368-.406-.552a1.39,1.39,0,0,0-.23-.174m-3.589-11.679c.175.192.336.389.53.575s.4.338.743.613c-.344-.358-.549-.591-.743-.771s-.354-.28-.53-.417" transform="translate(-79.556 1066.664)"/></g></g></g></svg>