<svg xmlns="http://www.w3.org/2000/svg" xmlns:xlink="http://www.w3.org/1999/xlink" width="315" height="370" viewBox="0 0 315 370"><defs><style>.a{fill:#fff;opacity:0;}.b{fill:url(#a);}.c{clip-path:url(#v);}.d{opacity:0.35;}.e{clip-path:url(#w);}.f{clip-path:url(#y);}.g{clip-path:url(#aa);}.h{clip-path:url(#ac);}.i{clip-path:url(#ae);}.j{clip-path:url(#ag);}.k{clip-path:url(#ai);}.l{clip-path:url(#ak);}.m{clip-path:url(#am);}.n{clip-path:url(#ao);}.o{clip-path:url(#aq);}.p{clip-path:url(#as);}.q{clip-path:url(#au);}.r{clip-path:url(#aw);}.s{clip-path:url(#ay);}.t{clip-path:url(#ba);}.u{clip-path:url(#bc);}.v{clip-path:url(#be);}.w{clip-path:url(#bg);}.x{clip-path:url(#bi);}.y{clip-path:url(#bk);}</style><linearGradient id="a" x1="0.5" x2="0.5" y2="1" gradientUnits="objectBoundingBox"><stop offset="0" stop-color="#fff" stop-opacity="0"/><stop offset="1" stop-color="#fff" stop-opacity="0.549"/></linearGradient><clipPath id="v"><rect class="a" width="315" height="370" transform="translate(1051 199)"/></clipPath><clipPath id="w"><path class="b" d="M11.653-617.39v-17.58L2.586-697.921l9.067-7.178v-3.2L5.076-703.1,0-698.3c0,.007,0,.014,0,.022l11.65,80.89" transform="translate(0 708.302)"/></clipPath><clipPath id="y"><path class="b" d="M23.462-592.412V-603.4L2.634-692.347l9.175-8.667,5.076-4.8,6.577-6.213v-3.453L3.6-696.712,0-692.663a1.258,1.258,0,0,0,.029.185L23.462-592.412" transform="translate(0 715.474)"/></clipPath><clipPath id="aa"><path class="b" d="M35.2-579.756V-587.8L2.669-686.939l9.068-10.2,3.6-4.049L35.2-723.537v-3.777L2.22-690.212,0-687.226a1.262,1.262,0,0,0,.062.384L35.2-579.756" transform="translate(0 727.314)"/></clipPath><clipPath id="ac"><path class="b" d="M46.707-573.015v-6.378L2.689-682.332l8.819-11.86,2.22-2.986,32.978-44.347v-4.2L.98-684.239l-.97,1.573a1.26,1.26,0,0,0,.091.659L46.707-573.015" transform="translate(0 745.729)"/></clipPath><clipPath id="ae"><path class="b" d="M57.822-571.257v-5.318L2.7-679.634l8.427-13.676.97-1.573,45.726-74.205v-4.782L.188-680.341a1.261,1.261,0,0,0-.039,1.257L57.822-571.257" transform="translate(0 773.87)"/></clipPath><clipPath id="ag"><path class="b" d="M68.358-575.694v-4.589L2.7-680.881l65.66-130.83V-817.3L.134-681.365a1.261,1.261,0,0,0,.072,1.254L68.358-575.694" transform="translate(0 817.303)"/></clipPath><clipPath id="ai"><path class="b" d="M78.109-579.321v-4.065l-75.424-96.1,69.88-175.934,5.544-.8v-2.54l-6.618.954a1.255,1.255,0,0,0-.826.492,1.3,1.3,0,0,0-.16.287L.089-679.742A1.259,1.259,0,0,0,.269-678.5l77.84,99.178" transform="translate(0 858.758)"/></clipPath><clipPath id="ak"><path class="b" d="M86.854-569.055v-3.672L2.662-662.62,60.49-855.661l26.363-6.2v-2.583l-27.641,6.5a1.26,1.26,0,0,0-.718.473,1.266,1.266,0,0,0-.2.391L.053-662.649a1.259,1.259,0,0,0,.287,1.222l86.513,92.372" transform="translate(0 864.439)"/></clipPath><clipPath id="am"><path class="b" d="M94.353-559.579v-3.372L2.626-645.181,46.1-855.232l48.257-15.9v-2.647L44.625-857.395a1.252,1.252,0,0,0-.613.442,1.268,1.268,0,0,0-.223.5L.027-644.982a1.256,1.256,0,0,0,.392,1.194l93.934,84.209" transform="translate(0 873.782)"/></clipPath><clipPath id="ao"><path class="b" d="M100.351-550.939v-3.14L2.583-627.411l26.67-226.746,71.1-30.55v-2.736L27.6-856.182a1.259,1.259,0,0,0-.511.4,1.27,1.27,0,0,0-.241.605L.009-626.984A1.259,1.259,0,0,0,.5-625.83l99.848,74.892" transform="translate(0 887.442)"/></clipPath><clipPath id="aq"><path class="b" d="M104.578-543.287v-2.959L2.528-609.68,9.844-852.556l94.734-50.931v-2.853L8.021-854.428a1.237,1.237,0,0,0-.411.355,1.257,1.257,0,0,0-.249.714L0-609.031a1.257,1.257,0,0,0,.592,1.107l103.985,64.637" transform="translate(0 906.339)"/></clipPath><clipPath id="as"><path class="b" d="M121.522-536.906v-2.817L17.237-592.53,2.546-850.7l118.977-78.068v-3.005L.567-852.406a1.271,1.271,0,0,0-.318.3,1.265,1.265,0,0,0-.247.824l14.774,259.62a1.258,1.258,0,0,0,.687,1.051l106.059,53.705" transform="translate(0 931.772)"/></clipPath><clipPath id="au"><path class="b" d="M146.21-532.267v-2.707L42.034-576.737,2.6-849.063,146.21-962.389v-3.2L.478-850.591a1.251,1.251,0,0,0-.229.236,1.26,1.26,0,0,0-.236.933L39.658-575.657a1.255,1.255,0,0,0,.776.986l105.776,42.4" transform="translate(0 965.588)"/></clipPath><clipPath id="aw"><path class="b" d="M171.029-530.119v-2.626L69.616-563.423,2.639-848.452l168.39-158.571v-3.449L.4-849.789l-.146.165a1.265,1.265,0,0,0-.216,1.042l67.31,286.441a1.256,1.256,0,0,0,.858.915l102.828,31.107" transform="translate(0 1010.472)"/></clipPath><clipPath id="ay"><path class="b" d="M195.7-530.243v-2.569L100.016-552.83,2.67-848.753,195.7-1065.244v-1.42h-2.1L.319-849.887.25-849.8a1.257,1.257,0,0,0-.186,1.147l97.8,297.3a1.25,1.25,0,0,0,.934.837l96.9,20.272" transform="translate(0 1066.664)"/></clipPath><clipPath id="ba"><path class="b" d="M219.892-506.74v-2.533l-86.657-10.333L2.69-824.246l180.851-242.418h-3.13L.25-825.172v0A1.261,1.261,0,0,0,.1-823.922L131.218-517.945a1.252,1.252,0,0,0,1,.753l87.671,10.453" transform="translate(0 1066.664)"/></clipPath><clipPath id="bc"><path class="b" d="M243.256-480.41v-2.517l-74.017-2.3L2.7-796.019l167.352-270.645H167.1L.189-796.727a1.258,1.258,0,0,0-.04,1.258L167.374-483.4a1.251,1.251,0,0,0,1.064.662l74.818,2.328" transform="translate(0 1066.664)"/></clipPath><clipPath id="be"><path class="b" d="M207.307-447.418l.072,0,58.02-3.28v-2.518l-57.439,3.246L2.7-763.922l152.526-302.742h-2.808L.135-764.408a1.264,1.264,0,0,0,.07,1.258L206.261-447.984a1.253,1.253,0,0,0,1.047.566" transform="translate(0 1066.664)"/></clipPath><clipPath id="bg"><path class="b" d="M248.745-411.538a1.22,1.22,0,0,0,.181-.013l36.962-5.36v-2.542l-36.605,5.309L2.686-727.837l135.185-338.828h-2.7L.09-728.1a1.259,1.259,0,0,0,.179,1.246L247.763-412.017a1.248,1.248,0,0,0,.982.479" transform="translate(0 1066.664)"/></clipPath><clipPath id="bi"><path class="b" d="M322.288-403.452h3.443L59.115-687.68l114.168-378.984h-2.619L56.507-687.713a1.262,1.262,0,0,0,.287,1.227L322.288-403.452" transform="translate(-56.453 1066.664)"/></clipPath><clipPath id="bk"><path class="b" d="M346.5-403.452h3.764L82.184-643.4l88.27-423.26h-2.56l-1.149,5.51a5.72,5.72,0,0,1,.425-.623,2.253,2.253,0,0,1,1.063-.769c.045,0,.072.018.077.058a4.187,4.187,0,0,1-.383.974,7.8,7.8,0,0,1-1.242.65l-2.122,10.177a.352.352,0,0,1,.148-.065.04.04,0,0,1,.019,0c.025.013-.09.174-.222.326L79.583-643.207a1.261,1.261,0,0,0,.392,1.195L346.5-403.452M163.063-1038.168c-.14.2-.273.392-.426.589l-.209.137c.134-.184.259-.368.406-.551a1.384,1.384,0,0,1,.23-.174m3.589-11.679c-.175.192-.336.389-.53.575s-.4.338-.743.613c.344-.359.549-.591.744-.771s.354-.28.53-.417" transform="translate(-79.556 1066.664)"/></clipPath></defs><g class="c" transform="translate(-1051 -199)"><g class="d" transform="translate(1046 199)"><g transform="translate(308.347 222.816)"><g class="e" transform="translate(0)"><path class="b" d="M11.653-617.39v-17.58L2.586-697.921l9.067-7.178v-3.2L5.076-703.1,0-698.3c0,.007,0,.014,0,.022l11.65,80.89" transform="translate(0 708.302)"/></g></g><g transform="translate(296.538 218.357)"><g class="f" transform="translate(0 0)"><path class="b" d="M23.462-592.412V-603.4L2.634-692.347l9.175-8.667,5.076-4.8,6.577-6.213v-3.453L3.6-696.712,0-692.663a1.258,1.258,0,0,0,.029.185L23.462-592.412" transform="translate(0 715.474)"/></g></g><g transform="translate(284.802 210.995)"><g class="g"><path class="b" d="M35.2-579.756V-587.8L2.669-686.939l9.068-10.2,3.6-4.049L35.2-723.537v-3.777L2.22-690.212,0-687.226a1.262,1.262,0,0,0,.062.384L35.2-579.756" transform="translate(0 727.314)"/></g></g><g class="h" transform="translate(273.293 199.546)"><path class="b" d="M46.707-573.015v-6.378L2.689-682.332l8.819-11.86,2.22-2.986,32.978-44.347v-4.2L.98-684.239l-.97,1.573a1.26,1.26,0,0,0,.091.659L46.707-573.015" transform="translate(0 745.729)"/></g><g class="i" transform="translate(262.178 182.049)"><path class="b" d="M57.822-571.257v-5.318L2.7-679.634l8.427-13.676.97-1.573,45.726-74.205v-4.782L.188-680.341a1.261,1.261,0,0,0-.039,1.257L57.822-571.257" transform="translate(0 773.87)"/></g><g class="j" transform="translate(251.642 155.043)"><path class="b" d="M68.358-575.694v-4.589L2.7-680.881l65.66-130.83V-817.3L.134-681.365a1.261,1.261,0,0,0,.072,1.254L68.358-575.694" transform="translate(0 817.303)"/></g><g class="k" transform="translate(241.891 129.268)"><path class="b" d="M78.109-579.321v-4.065l-75.424-96.1,69.88-175.934,5.544-.8v-2.54l-6.618.954a1.255,1.255,0,0,0-.826.492,1.3,1.3,0,0,0-.16.287L.089-679.742A1.259,1.259,0,0,0,.269-678.5l77.84,99.178" transform="translate(0 858.758)"/></g><g class="l" transform="translate(233.146 125.736)"><path class="b" d="M86.854-569.055v-3.672L2.662-662.62,60.49-855.661l26.363-6.2v-2.583l-27.641,6.5a1.26,1.26,0,0,0-.718.473,1.266,1.266,0,0,0-.2.391L.053-662.649a1.259,1.259,0,0,0,.287,1.222l86.513,92.372" transform="translate(0 864.439)"/></g><g class="m" transform="translate(225.647 119.927)"><path class="b" d="M94.353-559.579v-3.372L2.626-645.181,46.1-855.232l48.257-15.9v-2.647L44.625-857.395a1.252,1.252,0,0,0-.613.442,1.268,1.268,0,0,0-.223.5L.027-644.982a1.256,1.256,0,0,0,.392,1.194l93.934,84.209" transform="translate(0 873.782)"/></g><g class="n" transform="translate(219.649 111.434)"><path class="b" d="M100.351-550.939v-3.14L2.583-627.411l26.67-226.746,71.1-30.55v-2.736L27.6-856.182a1.259,1.259,0,0,0-.511.4,1.27,1.27,0,0,0-.241.605L.009-626.984A1.259,1.259,0,0,0,.5-625.83l99.848,74.892" transform="translate(0 887.442)"/></g><g class="o" transform="translate(215.422 99.684)"><path class="b" d="M104.578-543.287v-2.959L2.528-609.68,9.844-852.556l94.734-50.931v-2.853L8.021-854.428a1.237,1.237,0,0,0-.411.355,1.257,1.257,0,0,0-.249.714L0-609.031a1.257,1.257,0,0,0,.592,1.107l103.985,64.637" transform="translate(0 906.339)"/></g><g class="p" transform="translate(198.478 83.871)"><path class="b" d="M121.522-536.906v-2.817L17.237-592.53,2.546-850.7l118.977-78.068v-3.005L.567-852.406a1.271,1.271,0,0,0-.318.3,1.265,1.265,0,0,0-.247.824l14.774,259.62a1.258,1.258,0,0,0,.687,1.051l106.059,53.705" transform="translate(0 931.772)"/></g><g class="q" transform="translate(173.79 62.845)"><path class="b" d="M146.21-532.267v-2.707L42.034-576.737,2.6-849.063,146.21-962.389v-3.2L.478-850.591a1.251,1.251,0,0,0-.229.236,1.26,1.26,0,0,0-.236.933L39.658-575.657a1.255,1.255,0,0,0,.776.986l105.776,42.4" transform="translate(0 965.588)"/></g><g class="r" transform="translate(148.971 34.938)"><path class="b" d="M171.029-530.119v-2.626L69.616-563.423,2.639-848.452l168.39-158.571v-3.449L.4-849.789l-.146.165a1.265,1.265,0,0,0-.216,1.042l67.31,286.441a1.256,1.256,0,0,0,.858.915l102.828,31.107" transform="translate(0 1010.472)"/></g><g class="s" transform="translate(124.303 0)"><path class="b" d="M195.7-530.243v-2.569L100.016-552.83,2.67-848.753,195.7-1065.244v-1.42h-2.1L.319-849.887.25-849.8a1.257,1.257,0,0,0-.186,1.147l97.8,297.3a1.25,1.25,0,0,0,.934.837l96.9,20.272" transform="translate(0 1066.664)"/></g><g class="t" transform="translate(100.108 0)"><path class="b" d="M219.892-506.74v-2.533l-86.657-10.333L2.69-824.246l180.851-242.418h-3.13L.25-825.172v0A1.261,1.261,0,0,0,.1-823.922L131.218-517.945a1.252,1.252,0,0,0,1,.753l87.671,10.453" transform="translate(0 1066.664)"/></g><g class="u" transform="translate(76.744 0)"><path class="b" d="M243.256-480.41v-2.517l-74.017-2.3L2.7-796.019l167.352-270.645H167.1L.189-796.727a1.258,1.258,0,0,0-.04,1.258L167.374-483.4a1.251,1.251,0,0,0,1.064.662l74.818,2.328" transform="translate(0 1066.664)"/></g><g class="v" transform="translate(54.601 0)"><path class="b" d="M207.307-447.418l.072,0,58.02-3.28v-2.518l-57.439,3.246L2.7-763.922l152.526-302.742h-2.808L.135-764.408a1.264,1.264,0,0,0,.07,1.258L206.261-447.984a1.253,1.253,0,0,0,1.047.566" transform="translate(0 1066.664)"/></g><g class="w" transform="translate(34.112 0)"><path class="b" d="M248.745-411.538a1.22,1.22,0,0,0,.181-.013l36.962-5.36v-2.542l-36.605,5.309L2.686-727.837l135.185-338.828h-2.7L.09-728.1a1.259,1.259,0,0,0,.179,1.246L247.763-412.017a1.248,1.248,0,0,0,.982.479" transform="translate(0 1066.664)"/></g><g class="x" transform="translate(15.744 0)"><path class="b" d="M322.288-403.452h3.443L59.115-687.68l114.168-378.984h-2.619L56.507-687.713a1.262,1.262,0,0,0,.287,1.227L322.288-403.452" transform="translate(-56.453 1066.664)"/></g><g class="y" transform="translate(0 0)"><path class="b" d="M346.5-403.452h3.764L82.184-643.4l88.27-423.26h-2.56l-1.149,5.51a5.72,5.72,0,0,1,.425-.623,2.253,2.253,0,0,1,1.063-.769c.045,0,.072.018.077.058a4.187,4.187,0,0,1-.383.974,7.8,7.8,0,0,1-1.242.65l-2.122,10.177a.352.352,0,0,1,.148-.065.04.04,0,0,1,.019,0c.025.013-.09.174-.222.326L79.583-643.207a1.261,1.261,0,0,0,.392,1.195L346.5-403.452M163.063-1038.168c-.14.2-.273.392-.426.589l-.209.137c.134-.184.259-.368.406-.551a1.384,1.384,0,0,1,.23-.174m3.589-11.679c-.175.192-.336.389-.53.575s-.4.338-.743.613c.344-.359.549-.591.744-.771s.354-.28.53-.417" transform="translate(-79.556 1066.664)"/></g></g></g></svg>