<svg xmlns="http://www.w3.org/2000/svg" width="1920.544" height="500.99" viewBox="0 0 1920.544 500.99">
    <defs>
        <style>
            .cls-1{opacity:.3}.cls-2{fill:none;stroke:#fff;stroke-miterlimit:10}
        </style>
    </defs>
    <g id="wave_1" class="cls-1" transform="translate(.12 .502)">
        <path id="Path_1" d="M1903.971 88.635c-36.71-38.207-145.02-115.526-399.612-79.151-332.8 47.55-512 200.1-814.08 155.271s-320.642-123.306-435.2-56.1C142.438 174.746 564.838 417.929 0 300.218" class="cls-2" data-name="Path 1" transform="translate(0 168.082)"/>
        <path id="Path_2" d="M1920 101.851s-87.608-139.764-415.688-91.846c-93.537 13.658-175.365 35.662-251.453 59.391-189.166 58.917-341.4 128.128-552.719 99.751-293.919-39.468-316.55-112.687-431.86-48.959-18.821 10.4-23.209 25.227-21.548 42.328C255 247.691 459.072 388.271 0 297.122" class="cls-2" data-name="Path 2" transform="translate(0 161.712)"/>
        <path id="Path_3" d="M1920 95.088s-92.375-132.8-415.732-84.518c-92.15 13.754-173.376 35.658-249.2 59.484C1068.055 128.67 916.767 198.283 710 173.584c-285.685-34.125-312.5-102.067-428.52-41.823-19.054 9.894-23.767 23.855-24.2 39.879C255.135 250.523 446.533 378.085 0 294.072" class="cls-2" data-name="Path 3" transform="translate(0 155.297)"/>
        <path id="Path_4" d="M1920 88.373s-97.142-125.843-415.777-77.189c-90.76 13.848-171.384 35.652-246.948 59.573-184.86 58.318-335.137 128.322-537.413 107.313-277.381-28.811-308.5-91.452-425.18-34.688-19.3 9.388-24.3 22.533-26.859 37.431C255.311 253.774 433.994 367.949 0 291.071" class="cls-2" data-name="Path 4" transform="translate(0 148.834)"/>
        <path id="Path_5" d="M1920 81.712s-101.908-118.881-415.821-69.858C1414.8 25.8 1334.784 47.5 1259.482 71.518c-182.707 58.018-331.912 128.4-529.759 111.093-269-23.526-304.55-80.842-421.839-27.553-19.551 8.884-24.85 21.275-29.514 34.984C255.406 257.541 421.455 357.867 0 288.124" class="cls-2" data-name="Path 5" transform="translate(0 142.317)"/>
        <path id="Path_6" d="M1920 75.115S1813.325-36.8 1504.133 12.585c-87.985 14.039-167.4 35.641-242.445 59.757-180.552 57.716-328.622 128.45-522.1 114.872-260.536-18.282-300.654-70.241-418.5-20.417-19.809 8.376-25.464 20.086-32.169 32.535-33.7 62.578 120 148.517-288.914 85.908" class="cls-2" data-name="Path 6" transform="translate(0 135.735)"/>
        <path id="Path_7" d="M1920 68.589s-111.442-104.959-415.913-55.2c-86.594 14.135-165.412 35.634-240.192 59.846-178.4 57.417-325.271 128.48-514.45 118.654-252-13.088-296.811-59.652-415.16-13.281-20.078 7.867-30.3 18.308-34.824 30.087C234.719 261.423 396.375 337.9 0 282.428" class="cls-2" data-name="Path 7" transform="translate(0 129.084)"/>
        <path id="Path_8" d="M1920 62.145s-116.209-98-415.956-47.872C1418.834 28.5 1340.619 49.9 1266.1 74.211c-176.243 57.117-321.859 128.474-506.8 122.434-243.37-7.945-293.014-49.078-411.813-6.145-20.354 7.355-31.585 16.92-37.481 27.639C231.342 264.363 383.836 328.034 0 279.7" class="cls-2" data-name="Path 8" transform="translate(0 122.349)"/>
        <path id="Path_9" d="M1920 55.8s-120.975-91.04-416-40.546c-83.82 14.323-160.6 36.354-235.689 60.027-174.886 55.135-320.945 130.593-499.144 126.219-234.5-5.759-289.283-38.525-408.478.99-20.641 6.842-32.871 15.53-40.136 25.191C227.968 267.4 371.295 318.265 0 277.061" class="cls-2" data-name="Path 9" transform="translate(0 115.52)"/>
        <path id="Path_10" d="M1920 49.56s-125.745-84.076-416.046-33.214c-82.432 14.42-158.541 36.4-233.439 60.119-172.15 54.515-315.651 129.758-491.484 130-225.964.306-285.6-27.995-405.143 8.127-20.933 6.325-34.151 14.141-42.791 22.742C224.591 270.546 358.756 308.606 0 274.539" class="cls-2" data-name="Path 10" transform="translate(0 108.578)"/>
        <path id="Path_11" d="M1920 43.453s-130.512-77.115-416.092-25.885c-81.042 14.515-157.453 35.611-231.186 60.21-169.782 56.216-311.276 128.185-483.83 133.775-217.114 7.036-281.959-17.49-401.8 15.264-21.235 5.8-35.433 12.753-45.445 20.294-120.432 26.712 4.57 51.967-341.647 25.034" class="cls-2" data-name="Path 11" transform="translate(0 101.507)"/>
        <path id="Path_12" d="M1920 37.5s-135.278-70.154-416.139-18.555c-79.654 14.609-155.461 35.6-228.933 60.3C1107.3 135.162 967.263 207.212 798.753 216.8c-208.261 11.852-278.359-7.02-398.461 22.4-21.545 5.277-36.718 11.364-48.1 17.845C217.838 277.255 333.678 289.7 0 269.9" class="cls-2" data-name="Path 12" transform="translate(0 94.282)"/>
        <path id="Path_13" d="M1920 31.732s-140.045-63.192-416.182-11.226c-78.267 14.7-153.472 35.6-226.683 60.391-165.473 55.617-304.035 127.672-468.521 141.338-199.393 16.566-274.793 3.42-395.123 29.535-21.857 4.743-38 9.976-50.755 15.4-148.275 13.7-41.6 13.348-362.737.683" class="cls-2" data-name="Path 13" transform="translate(0 86.872)"/>
        <path id="Path_14" d="M1920 26.188s-144.812-56.231-416.228-3.9c-76.877 14.8-151.48 35.593-224.43 60.483-163.32 55.317-300.421 127.29-460.866 145.118-190.536 21.172-271.253 13.819-391.783 36.669a486.239 486.239 0 0 0-53.412 12.95C211.085 284.709 308.6 271.548 0 266.02" class="cls-2" data-name="Path 14" transform="translate(0 79.238)"/>
        <path id="Path_15" d="M1920 20.915s-149.579-49.27-416.274 3.433c-75.489 14.9-149.489 35.586-222.177 60.573-161.165 55.017-296.837 126.814-453.212 148.9C646.615 259.485 560.607 258 439.9 277.626c-22.5 3.657-40.566 7.2-56.069 10.5C211.628 281.94 296.059 262.855 0 264.461" class="cls-2" data-name="Path 15" transform="translate(0 71.332)"/>
        <path id="Path_16" d="M1920 15.979s-154.345-42.308-416.318 10.763c-74.1 14.989-147.5 35.579-219.924 60.664-159.015 54.716-293.33 126.238-445.561 152.68-172.987 30.046-264.212 34.506-385.1 50.941-22.822 3.1-41.7 9.968-58.721 8.054C208.159 278.123 283.52 254.5 0 263.238" class="cls-2" data-name="Path 16" transform="translate(0 63.089)"/>
        <path id="Path_17" d="M1920 11.465s-159.112-35.347-416.364 18.091a1726.29 1726.29 0 0 0-217.671 60.756c-156.859 54.416-289.928 125.56-437.906 156.459-164.373 34.323-260.688 44.791-381.759 58.077-23.145 2.54-43.481 7.835-61.378 5.6C205.077 285.547 270.978 246.56 0 262.437" class="cls-2" data-name="Path 17" transform="translate(0 54.426)"/>
        <path id="Path_18" d="M1920 7.482S1756.122-20.9 1503.593 32.9a1748.706 1748.706 0 0 0-215.421 60.846c-154.706 54.117-286.677 124.783-430.252 160.24C702 292.5 600.771 309.026 479.5 319.2c-23.467 1.97-45.009 5.711-64.033 3.156-214-28.743-159.076-76.717-415.465-60.19" class="cls-2" data-name="Path 18" transform="translate(0 45.23)"/>
        <path id="Path_19" d="M1920 4.179s-168.645-21.425-416.453 32.75a1774.056 1774.056 0 0 0-213.168 60.937c-152.551 53.816-283.618 123.915-422.6 164.021C720.115 304.5 614.2 327.132 492.7 334.236c-23.782 1.39-45.837 2.305-66.688.708C191.775 316.991 245.9 232.432 0 262.578" class="cls-2" data-name="Path 19" transform="translate(0 35.355)"/>
        <path id="Path_20" d="M1920 1.737s-173.412-14.465-416.5 40.078a1803.659 1803.659 0 0 0-210.916 61.028c-150.4 53.517-280.786 122.972-414.943 167.8C738 317.311 627.666 346.066 505.9 350.131c-24.092.8-47.129.686-69.342-1.74C188.808 321.329 233.359 226.569 0 263.85" class="cls-2" data-name="Path 20" transform="translate(0 24.619)"/>
        <path id="Path_21" d="M1920 .346s-178.178-7.5-416.543 47.407a1836.834 1836.834 0 0 0-208.666 61.119C1146.55 162.088 1016.584 230.843 887.5 280.455c-131.881 50.688-246.326 85.565-368.4 86.621a494.182 494.182 0 0 1-72-4.188C186.283 326.861 220.821 221.755 0 266.172" class="cls-2" data-name="Path 21" transform="translate(0 12.832)"/>
        <path id="Path_22" d="M1920 0s-300.442-.89-623 115.947-565.78 307.315-839.351 262.482S208.282 217.989 0 269.54" class="cls-2" data-name="Path 22"/>
    </g>
</svg>
