<svg xmlns="http://www.w3.org/2000/svg" width="2688.378" height="1802.97" viewBox="0 0 2688.378 1802.97">
    <defs>
        <style>
            .cls-1{opacity:.4}.cls-2{fill:none;stroke:#fff;stroke-miterlimit:10}
        </style>
    </defs>
    <g id="wave_2" class="cls-1" transform="rotate(14.98 151.958 1186.589)">
        <path id="Path_1" d="M-.1 538.523s106.046 353.9 532.345 239.124 655.9-482.788 1042.81-374.717 410.652 297.352 557.416 135.206c144.31-159.436-396.629-745.917 326.811-462.116" class="cls-2" data-name="Path 1"/>
        <path id="Path_2" d="M-.1 542.439s112.155 337.1 532.408 221.445c119.816-32.966 224.638-86.062 322.108-143.316 242.326-142.158 437.355-309.136 708.013-240.739 376.458 95.135 405.413 271.741 553.14 118 24.113-25.093 29.739-60.856 27.618-102.1-10.554-205.45-271.883-544.5 316.095-324.743" class="cls-2" data-name="Path 2" transform="translate(-.005 27.871)"/>
        <path id="Path_3" d="M-.1 546.447s118.265 320.312 532.468 203.769c118.039-33.2 222.09-86.051 319.223-143.538 239.567-141.433 433.38-309.378 698.209-249.854 365.915 82.249 400.234 246.125 548.867 100.783 24.411-23.871 30.454-57.546 31.018-96.2 2.78-190.273-242.324-497.923 329.6-295.377" class="cls-2" data-name="Path 3" transform="translate(-.01 55.65)"/>
        <path id="Path_4" d="M-.1 550.584s124.373 303.523 532.529 186.09c116.259-33.424 219.539-86.035 316.337-143.754 236.81-140.711 429.328-309.6 688.41-258.975 355.28 69.431 395.113 220.519 544.591 83.573 24.725-22.648 31.138-54.358 34.42-90.294 16.057-175.991-212.766-451.352 343.1-266.014" class="cls-2" data-name="Path 4" transform="translate(-.015 83.299)"/>
        <path id="Path_5" d="M-.1 554.888S130.38 841.619 532.487 723.3c114.484-33.653 216.99-86.018 313.455-143.973 234.052-139.987 425.2-309.783 678.608-268.09 344.544 56.685 390.058 194.927 540.315 66.363 25.046-21.433 31.839-51.324 37.82-84.393 29.443-162.82-183.2-404.778 356.6-236.648" class="cls-2" data-name="Path 5" transform="translate(-.02 110.782)"/>
        <path id="Path_6" d="M-.1 559.416S136.488 829.354 532.548 710.15c112.7-33.885 214.44-86.008 310.57-144.2 231.291-139.259 420.983-309.91 668.8-277.2 333.708 44.038 385.072 169.358 536.042 49.15 25.377-20.207 32.626-48.456 41.219-78.485 43.187-150.953-153.641-358.211 370.1-207.285" class="cls-2" data-name="Path 6" transform="translate(-.025 138.041)"/>
        <path id="Path_7" d="M-.1 562.357S142.6 815.5 532.61 695.412C643.534 661.3 744.5 609.421 840.295 551c228.533-138.537 416.69-309.981 659-286.326 322.772 31.512 380.155 143.818 531.766 31.94 25.721-18.982 38.822-44.168 44.618-72.58C2158.631 96.832 1951.6-87.6 2459.288 46.112" class="cls-2" data-name="Path 7" transform="translate(-.03 166.887)"/>
        <path id="Path_8" d="M-.1 566.428S148.7 802.781 532.668 681.8c109.15-34.34 209.344-85.974 304.8-144.63 225.772-137.813 412.32-309.968 649.2-295.441 311.733 19.114 375.3 118.314 527.49 14.726 26.075-17.746 40.465-40.819 48.022-66.676 100.78-111.512-94.519-265.06 397.109-148.553" class="cls-2" data-name="Path 8" transform="translate(-.035 194.603)"/>
        <path id="Path_9" d="M-.1 570.575s154.915 219.561 532.833 97.7C640.1 633.7 738.451 580.544 834.646 523.425c224.03-133.031 411.147-315.076 639.4-304.562 300.359 13.837 370.52 92.859 523.214-2.484 26.442-16.508 42.11-37.467 51.42-60.772 118.608-95.831-64.954-218.492 410.613-119.19" class="cls-2" data-name="Path 9" transform="translate(-.04 222.243)"/>
        <path id="Path_10" d="M-.1 574.857s161.027 202.771 532.892 80.019c105.592-34.8 203.088-87.841 299.034-145.068 220.528-131.536 404.369-313.063 629.591-313.677 289.433-.79 365.807 67.46 518.944-19.7 26.816-15.263 43.749-34.118 54.82-54.867 136.436-80.144-35.4-171.918 424.113-89.827" class="cls-2" data-name="Path 10" transform="translate(-.045 249.748)"/>
        <path id="Path_11" d="M-.105 579.414s167.137 185.979 532.954 62.34C636.661 606.724 734.544 555.821 829 496.467c217.5-135.638 398.764-309.267 619.788-322.792 278.1-17.022 361.148 42.123 514.668-36.91 27.2-14 45.392-30.769 58.219-48.962 154.269-64.457-5.834-125.348 437.618-60.461" class="cls-2" data-name="Path 11" transform="translate(-.05 276.978)"/>
        <path id="Path_12" d="M-.106 584.678s173.245 169.186 533.017 44.66c102.034-35.256 199.143-85.916 293.263-145.5 214.734-134.917 394.14-308.742 609.985-331.914 266.764-28.637 356.543 16.868 510.392-54.12 27.6-12.733 47.037-27.421 61.622-43.055 172.1-48.777 23.724-78.777 451.119-31.1" class="cls-2" data-name="Path 12" transform="translate(-.055 303.5)"/>
        <path id="Path_13" d="M-.107 592.568s179.354 152.394 533.076 26.981c100.257-35.485 196.595-85.9 290.38-145.722C1035.325 339.635 1212.843 165.8 1423.531 132.8c255.407-40.006 351.98-8.312 506.12-71.334 28-11.445 48.675-24.072 65.017-37.15 189.929-33.09 53.291-32.206 464.624-1.733" class="cls-2" data-name="Path 13" transform="translate(-.059 327.398)"/>
        <path id="Path_14" d="M-.111 611.285s185.462 135.6 533.138 9.305c98.477-35.718 194.044-85.889 287.5-145.944 209.219-133.468 384.86-307.105 590.38-350.147 244.064-51.113 347.449-33.4 501.844-88.54 28.409-10.147 50.318-20.723 68.42-31.249 207.758-17.4 82.849 14.368 478.125 27.63" class="cls-2" data-name="Path 14" transform="translate(-.062 340.467)"/>
        <path id="Path_15" d="M-.117 644.544s191.571 118.809 533.2-8.378c96.7-35.947 191.493-85.873 284.61-146.16 206.458-132.743 380.27-305.958 580.577-359.265 232.776-61.948 342.941-58.4 497.567-105.754 28.822-8.827 51.963-17.374 71.823-25.344 220.563 14.883 112.409 60.938 491.626 57" class="cls-2" data-name="Path 15" transform="translate(-.061 338.999)"/>
        <path id="Path_16" d="M-.124 683.668s197.679 102.017 533.259-26.057c94.922-36.172 188.948-85.856 281.724-146.379 203.7-132.018 375.777-304.567 570.778-368.383 221.589-72.514 338.441-83.294 493.3-122.964 29.234-7.49 53.421-24.053 75.219-19.44 238.51 50.508 141.971 107.512 505.13 86.362" class="cls-2" data-name="Path 16" transform="translate(-.06 331.662)"/>
        <path id="Path_17" d="M-.131 722.482s203.788 85.224 533.322-43.733c93.142-36.4 186.4-85.845 278.838-146.6C1012.971 400.854 1183.448 229.216 1373 154.65c210.557-82.828 333.93-108.1 489.019-140.177 29.647-6.133 55.7-18.908 78.621-13.532 255.962 60.028 171.533 154.083 518.631 115.725" class="cls-2" data-name="Path 17" transform="translate(-.059 324.634)"/>
        <path id="Path_18" d="M-.138 761.6s209.9 68.432 533.38-61.413c91.365-36.637 183.85-85.832 275.958-146.82 198.184-130.572 367.254-301.056 551.172-386.615 199.732-92.919 329.4-132.814 484.743-157.39 30.06-4.757 57.654-13.787 82.021-7.627 274.1 69.282 203.724 185.012 532.135 145.088" class="cls-2" data-name="Path 18" transform="translate(-.058 317.307)"/>
        <path id="Path_19" d="M-.145 799.876S215.86 851.515 533.3 720.784c89.588-36.863 181.3-85.812 273.071-147.036 195.42-129.848 363.329-298.961 541.367-395.734C1536.9 75.2 1672.574 20.577 1828.208 3.413c30.463-3.358 58.713-5.572 85.42-1.723 300.02 43.248 230.654 247.228 545.637 174.454" class="cls-2" data-name="Path 19" transform="translate(-.056 310.815)"/>
        <path id="Path_20" d="M-.153 841.437s222.114 34.85 533.5-96.768c87.807-37.092 178.748-85.8 270.186-147.255C996.2 468.291 1163.245 300.727 1335.1 192.562 1513.994 79.968 1655.328 10.581 1811.3.748c30.859-1.946 60.367-1.666 88.819 4.182 317.326 65.217 260.219 293.8 559.141 203.82" class="cls-2" data-name="Path 20" transform="translate(-.055 301.04)"/>
        <path id="Path_21" d="M-.16 884.649S228.062 902.707 533.4 770.2c86.03-37.321 176.2-85.784 267.3-147.474 189.9-128.4 356.405-294.271 521.764-413.97C1491.417 86.462 1638.022 2.308 1794.388-.266c31.247-.514 61.941 2.217 92.222 10.086 334.061 86.839 289.777 340.372 572.642 233.18" class="cls-2" data-name="Path 21" transform="translate(-.052 289.615)"/>
        <path id="Path_22" d="M-.168 928.975s384.83 2.077 798.043-279.82S1522.705-92.251 1873.1 15.827s319.34 386.939 586.147 262.545" class="cls-2" data-name="Path 22" transform="translate(-.05 277.076)"/>
    </g>
</svg>
