<svg xmlns="http://www.w3.org/2000/svg" xmlns:xlink="http://www.w3.org/1999/xlink" width="1933.5" height="812.001" viewBox="0 0 1933.5 812.001">
    <defs>
        <style>
            .cls-1{opacity:.5}.cls-1,.cls-2{fill:url(#linear-gradient)}.cls-3{fill:url(#linear-gradient-5)}.cls-4{fill:url(#linear-gradient-6)}.cls-5{fill:#d8c4ff}.cls-6,.cls-7{fill:#fff}.cls-7{opacity:.95}.cls-8{filter:url(#Ellipse_225)}.cls-9{filter:url(#Ellipse_229)}.cls-10{filter:url(#Ellipse_231)}.cls-11{filter:url(#Ellipse_222)}.cls-12{filter:url(#Ellipse_230)}
        </style>
        <linearGradient id="linear-gradient" x1=".806" x2=".5" y1=".121" y2="1" gradientUnits="objectBoundingBox">
            <stop offset="0" stop-color="#996be2"/>
            <stop offset="1" stop-color="#e5beff"/>
        </linearGradient>
        <filter id="Ellipse_230" width="125" height="125" x="0" y="303.5" filterUnits="userSpaceOnUse">
            <feOffset/>
            <feGaussianBlur result="blur" stdDeviation="7.5"/>
            <feFlood flood-color="#fff"/>
            <feComposite in2="blur" operator="in"/>
            <feComposite in="SourceGraphic"/>
        </filter>
        <filter id="Ellipse_222" width="100" height="100" x="441" y="13.5" filterUnits="userSpaceOnUse">
            <feOffset/>
            <feGaussianBlur result="blur-2" stdDeviation="7.5"/>
            <feFlood flood-color="#fff"/>
            <feComposite in2="blur-2" operator="in"/>
            <feComposite in="SourceGraphic"/>
        </filter>
        <filter id="Ellipse_231" width="65.49" height="65.49" x="836" y="289.5" filterUnits="userSpaceOnUse">
            <feOffset/>
            <feGaussianBlur result="blur-3" stdDeviation="7.5"/>
            <feFlood flood-color="#fff"/>
            <feComposite in2="blur-3" operator="in"/>
            <feComposite in="SourceGraphic"/>
        </filter>
        <filter id="Ellipse_229" width="65" height="65" x="1777" y="351.5" filterUnits="userSpaceOnUse">
            <feOffset/>
            <feGaussianBlur result="blur-4" stdDeviation="7.5"/>
            <feFlood flood-color="#fff"/>
            <feComposite in2="blur-4" operator="in"/>
            <feComposite in="SourceGraphic"/>
        </filter>
        <linearGradient id="linear-gradient-5" x1=".806" y1=".879" xlink:href="#linear-gradient"/>
        <filter id="Ellipse_225" width="99.641" height="99.641" x="1011" y="106.5" filterUnits="userSpaceOnUse">
            <feOffset/>
            <feGaussianBlur result="blur-5" stdDeviation="7.5"/>
            <feFlood flood-color="#fff"/>
            <feComposite in2="blur-5" operator="in"/>
            <feComposite in="SourceGraphic"/>
        </filter>
        <linearGradient id="linear-gradient-6" x1=".5" x2=".5" y2="1" gradientUnits="objectBoundingBox">
            <stop offset="0" stop-color="#efefff" stop-opacity=".2"/>
            <stop offset="1" stop-color="#fff" stop-opacity=".8"/>
        </linearGradient>
    </defs>
    <g id="ill_bubbles_top" transform="translate(49.5 -126)">
        <g class="cls-12" transform="translate(-49.5 126)">
            <circle id="Ellipse_230-2" cx="40" cy="40" r="40" class="cls-1" data-name="Ellipse 230" transform="translate(22.5 326)"/>
        </g>
        <g class="cls-11" transform="translate(-49.5 126)">
            <circle id="Ellipse_222-2" cx="27.5" cy="27.5" r="27.5" class="cls-2" data-name="Ellipse 222" transform="translate(463.5 36)"/>
        </g>
        <g class="cls-10" transform="translate(-49.5 126)">
            <circle id="Ellipse_231-2" cx="7.5" cy="7.5" r="7.5" class="cls-2" data-name="Ellipse 231" transform="rotate(-150 480.29 49.487)"/>
        </g>
        <g class="cls-9" transform="translate(-49.5 126)">
            <circle id="Ellipse_229-2" cx="10" cy="10" r="10" class="cls-2" data-name="Ellipse 229" transform="translate(1799.5 374)"/>
        </g>
        <g class="cls-8" transform="translate(-49.5 126)">
            <circle id="Ellipse_225-2" cx="20" cy="20" r="20" class="cls-3" data-name="Ellipse 225" transform="rotate(150 522.146 227.603)"/>
        </g>
        <path id="Path_7389" d="M96.711 286.849a35 35 0 1 1 35-35 35.037 35.037 0 0 1-35 35zm0-67.308a32.308 32.308 0 1 0 32.308 32.308 32.344 32.344 0 0 0-32.308-32.308z" class="cls-4" data-name="Path 7389" transform="rotate(50 713.58 1360.46)"/>
        <path id="Path_7389-2" d="M101.711 296.849a40 40 0 1 1 40-40 40.042 40.042 0 0 1-40 40zm0-76.923a36.923 36.923 0 1 0 36.923 36.923 36.964 36.964 0 0 0-36.923-36.923z" class="cls-4" data-name="Path 7389" transform="rotate(30 166.214 309.425)"/>
        <path id="Path_7389-3" d="M73.711 240.849a12 12 0 1 1 12-12 12.013 12.013 0 0 1-12 12zm0-23.077a11.077 11.077 0 1 0 11.077 11.077 11.089 11.089 0 0 0-11.077-11.077z" class="cls-4" data-name="Path 7389" transform="rotate(50 335.635 2383.597)"/>
        <path id="Path_7389-4" d="M88.711 270.849a27 27 0 1 1 27-27 27.028 27.028 0 0 1-27 27zm0-51.923a24.923 24.923 0 1 0 24.923 24.923 24.951 24.951 0 0 0-24.923-24.923z" class="cls-4" data-name="Path 7389" transform="rotate(90 779.28 1321.569)"/>
        <path id="Path_7389-5" d="M71.711 236.849a10 10 0 1 1 10-10 10.011 10.011 0 0 1-10 10zm0-19.231a9.231 9.231 0 1 0 9.231 9.231 9.241 9.241 0 0 0-9.231-9.231z" class="cls-4" data-name="Path 7389" transform="translate(582.285 449.151)"/>
        <path id="Path_7388" d="M223.711 163.849a36.5 36.5 0 1 1 36.5-36.5 36.538 36.538 0 0 1-36.5 36.5zm0-68.134a31.633 31.633 0 1 0 31.633 31.633 31.676 31.676 0 0 0-31.633-31.632z" class="cls-5" data-name="Path 7388" transform="translate(-210.211 774.151)"/>
        <path id="Path_7393" d="M54.711 89.349a15 15 0 1 1 15-15 15.016 15.016 0 0 1-15 15zm0-28.571a13.571 13.571 0 1 0 13.571 13.571 13.587 13.587 0 0 0-13.571-13.571z" class="cls-6" data-name="Path 7393" transform="translate(85.289 552.651)"/>
        <path id="Path_7392" d="M121.711 86.849a8.5 8.5 0 1 1 8.5-8.5 8.509 8.509 0 0 1-8.5 8.5zm0-14.875a6.375 6.375 0 1 0 6.375 6.375 6.383 6.383 0 0 0-6.375-6.375z" class="cls-7" data-name="Path 7392" transform="translate(572.789 147.151)"/>
    </g>
</svg>
