<?xml version="1.0" encoding="UTF-8"?>
<svg width="54px" height="54px" viewBox="0 0 54 54" version="1.1" xmlns="http://www.w3.org/2000/svg" xmlns:xlink="http://www.w3.org/1999/xlink">
    <!-- Generator: sketchtool 49 (51002) - http://www.bohemiancoding.com/sketch -->
    <title>CCD5596E-1932-4451-8A23-E0F9F12A3009</title>
    <desc>Created with sketchtool.</desc>
    <defs>
        <path d="M19,0 C8.5025,0 0,8.5025 0,19 C0,29.4975 8.5025,38 19,38 C29.4975,38 38,29.4975 38,19 C38,8.5025 29.4975,0 19,0 Z" id="path-1"></path>
        <filter x="-34.2%" y="-28.9%" width="168.4%" height="168.4%" filterUnits="objectBoundingBox" id="filter-2">
            <feOffset dx="0" dy="2" in="SourceAlpha" result="shadowOffsetOuter1"></feOffset>
            <feMorphology radius="2" operator="erode" in="SourceAlpha" result="shadowInner"></feMorphology>
            <feOffset dx="0" dy="2" in="shadowInner" result="shadowInner"></feOffset>
            <feComposite in="shadowOffsetOuter1" in2="shadowInner" operator="out" result="shadowOffsetOuter1"></feComposite>
            <feGaussianBlur stdDeviation="4" in="shadowOffsetOuter1" result="shadowBlurOuter1"></feGaussianBlur>
            <feColorMatrix values="0 0 0 0 0.749019608   0 0 0 0 0.68627451   0 0 0 0 0.878431373  0 0 0 0.249320652 0" type="matrix" in="shadowBlurOuter1"></feColorMatrix>
        </filter>
        <polygon id="path-3" points="24.8818182 20.5290909 20.5290909 20.5290909 20.5290909 24.8818182 18.3527273 24.8818182 18.3527273 20.5290909 14 20.5290909 14 18.3527273 18.3527273 18.3527273 18.3527273 14 20.5290909 14 20.5290909 18.3527273 24.8818182 18.3527273"></polygon>
        <filter x="-119.5%" y="-101.1%" width="338.9%" height="338.9%" filterUnits="objectBoundingBox" id="filter-4">
            <feOffset dx="0" dy="2" in="SourceAlpha" result="shadowOffsetOuter1"></feOffset>
            <feGaussianBlur stdDeviation="4" in="shadowOffsetOuter1" result="shadowBlurOuter1"></feGaussianBlur>
            <feColorMatrix values="0 0 0 0 0.749019608   0 0 0 0 0.68627451   0 0 0 0 0.878431373  0 0 0 0.249320652 0" type="matrix" in="shadowBlurOuter1"></feColorMatrix>
        </filter>
    </defs>
    <g id="customer-page-(corrected-design)" stroke="none" stroke-width="1" fill="none" fill-rule="evenodd">
        <g id="Customer-Page" transform="translate(-533.000000, -1201.000000)">
            <g id="2.close-Q" transform="translate(45.000000, 1009.000000)">
                <g id="add-Q" transform="translate(205.000000, 192.000000)">
                    <g id="-c-add-stroke" transform="translate(291.000000, 6.000000)">
                        <g id="Shape" fill-rule="nonzero">
                            <use fill="black" fill-opacity="1" filter="url(#filter-2)" xlink:href="#path-1"></use>
                            <path stroke="#FF358C" stroke-width="2" d="M19,1 C9.05478475,1 1,9.05478475 1,19 C1,28.9452153 9.05478475,37 19,37 C28.9452153,37 37,28.9452153 37,19 C37,9.05478475 28.9452153,1 19,1 Z"></path>
                        </g>
                        <g id="Path">
                            <use fill="black" fill-opacity="1" filter="url(#filter-4)" xlink:href="#path-3"></use>
                            <use fill="#FF358C" fill-rule="evenodd" xlink:href="#path-3"></use>
                        </g>
                    </g>
                </g>
            </g>
        </g>
    </g>
</svg>