<?xml version="1.0" encoding="UTF-8"?>
<svg width="38px" height="38px" viewBox="0 0 38 38" version="1.1" xmlns="http://www.w3.org/2000/svg" xmlns:xlink="http://www.w3.org/1999/xlink">
    <!-- Generator: sketchtool 49 (51002) - http://www.bohemiancoding.com/sketch -->
    <title>99D7186D-D362-4CF4-9749-7F5EF16CB4A5</title>
    <desc>Created with sketchtool.</desc>
    <defs></defs>
    <g id="customer-page-(corrected-design)" stroke="none" stroke-width="1" fill="none" fill-rule="evenodd">
        <g id="Customer-Page" transform="translate(-540.000000, -606.000000)">
            <g id="1.personal-info" transform="translate(249.000000, 489.000000)">
                <g id="ic-phone" transform="translate(291.000000, 117.000000)">
                    <circle id="Oval-4-Copy-2" fill="#FF358C" cx="19" cy="19" r="19"></circle>
                    <g id="Group-9" transform="translate(12.000000, 11.000000)">
                        <polygon id="Bounds" fill-opacity="0.1" fill="#FF0000" opacity="0" points="0 0 20.5714286 0 20.5714286 20.5714286 0 20.5714286"></polygon>
                        <path d="M2.81555556,8.05888889 C3.93555556,10.26 5.74,12.0566667 7.94111111,13.1844444 L9.65222222,11.4733333 C9.86222222,11.2633333 10.1733333,11.1933333 10.4455556,11.2866667 C11.3166667,11.5744444 12.2577778,11.73 13.2222222,11.73 C13.65,11.73 14,12.08 14,12.5077778 L14,15.2222222 C14,15.65 13.65,16 13.2222222,16 C5.91888889,16 0,10.0811111 0,2.77777778 C0,2.35 0.35,2 0.777777778,2 L3.5,2 C3.92777778,2 4.27777778,2.35 4.27777778,2.77777778 C4.27777778,3.75 4.43333333,4.68333333 4.72111111,5.55444444 C4.80666667,5.82666667 4.74444444,6.13 4.52666667,6.34777778 L2.81555556,8.05888889 L2.81555556,8.05888889 Z" id="Shape" fill="#FFFFFF"></path>
                    </g>
                </g>
            </g>
        </g>
    </g>
</svg>