<svg xmlns="http://www.w3.org/2000/svg" xmlns:xlink="http://www.w3.org/1999/xlink" viewBox="0 0 40 40"><defs><style>.cls-1{fill:#fff;}.cls-1,.cls-3{fill-rule:evenodd;}.cls-2,.cls-3{fill:#ff6054;}</style><symbol id="New_Symbol_22" data-name="New Symbol 22" viewBox="0 0 58 58"><path class="cls-1" d="M29,56A27,27,0,1,1,56,29,27,27,0,0,1,29,56Z"/><path class="cls-2" d="M29,4A25,25,0,1,1,4,29,25,25,0,0,1,29,4m0-4A29,29,0,1,0,58,29,29,29,0,0,0,29,0Z"/><polygon class="cls-3" points="39.91 16.71 24.16 33.06 18.09 27.47 13.61 31.59 24.16 41.31 44.39 20.84 39.91 16.71"/></symbol></defs><title>Checked</title><g id="Layer_2" data-name="Layer 2"><g id="Layer_1-2" data-name="Layer 1"><use width="58" height="58" transform="scale(0.69)" xlink:href="#New_Symbol_22"/></g></g></svg>