<svg xmlns="http://www.w3.org/2000/svg" xmlns:xlink="http://www.w3.org/1999/xlink" width="24" height="24" viewBox="0 0 24 24">
    <defs>
        <path id="a" d="M4 16.414V20h3.586l12-12L16 4.414l-12 12zM16.707 2.293l5 5a1 1 0 0 1 0 1.414l-13 13A1 1 0 0 1 8 22H3a1 1 0 0 1-1-1v-5a1 1 0 0 1 .293-.707l13-13a1 1 0 0 1 1.414 0z"/>
    </defs>
    <g fill="none" fill-rule="evenodd">
        <mask id="b" fill="#fff">
            <use xlink:href="#a"/>
        </mask>
        <use fill="#4f2da7" fill-rule="nonzero" xlink:href="#a"/>
        <g fill="#4f2da7" mask="url(#b)">
            <path d="M0 0h24v24H0z"/>
        </g>
    </g>
</svg>
