<svg xmlns="http://www.w3.org/2000/svg" xmlns:xlink="http://www.w3.org/1999/xlink" width="24" height="24" viewBox="0 0 24 24">
    <defs>
        <path id="a" d="M15.079 16.008H9.414l-2 2h5.67l1.995-2zm1.992-1.997l2.46-2.469a5.004 5.004 0 1 0-7.074-7.077L6 10.923v5.671l9.293-9.293a1 1 0 0 1 1.414 1.414l-5.293 5.293H17c.024 0 .047.001.07.003zM5.414 20.008l-2.707 2.707a1 1 0 0 1-1.414-1.414L4 18.594v-8.086a1 1 0 0 1 .293-.707l6.75-6.75a7.003 7.003 0 0 1 9.905 9.904l-6.74 6.76a1 1 0 0 1-.708.293H5.414z"/>
    </defs>
    <g fill="none" fill-rule="evenodd">
        <mask id="b" fill="#fff">
            <use xlink:href="#a"/>
        </mask>
        <use fill="#BFAFE0" fill-rule="nonzero" xlink:href="#a"/>
        <g fill="#522FA9" mask="url(#b)">
            <path d="M0 0h25v25H0z"/>
        </g>
    </g>
</svg>
