<svg xmlns="http://www.w3.org/2000/svg" xmlns:xlink="http://www.w3.org/1999/xlink" width="38" height="38" viewBox="0 0 38 38">
    <defs>
        <path id="a" d="M12.75 3.75h3a.75.75 0 1 1 0 1.5H15V15a2.25 2.25 0 0 1-2.25 2.25h-7.5A2.25 2.25 0 0 1 3 15V5.25h-.75a.75.75 0 0 1 0-1.5h3V3A2.25 2.25 0 0 1 7.5.75h3A2.25 2.25 0 0 1 12.75 3v.75zm-1.5 0V3a.75.75 0 0 0-.75-.75h-3a.75.75 0 0 0-.75.75v.75h4.5zm2.25 1.5h-9V15c0 .414.336.75.75.75h7.5a.75.75 0 0 0 .75-.75V5.25zm-6.75 3a.75.75 0 0 1 1.5 0v4.5a.75.75 0 1 1-1.5 0v-4.5zm3 0a.75.75 0 1 1 1.5 0v4.5a.75.75 0 1 1-1.5 0v-4.5z"/>
    </defs>
    <g fill="none" fill-rule="evenodd">
        <circle cx="19" cy="19" r="18" fill="#BFAFE0" stroke="#BFAFE0" stroke-width="2"/>
        <g transform="translate(10 10)">
            <mask id="b" fill="#fff">
                <use xlink:href="#a"/>
            </mask>
            <use fill="#000" fill-rule="nonzero" xlink:href="#a"/>
            <g fill="#FFF" mask="url(#b)">
                <path d="M0 0h18v18H0z"/>
            </g>
        </g>
    </g>
</svg>
