<svg xmlns="http://www.w3.org/2000/svg" width="33" height="32" viewBox="0 0 33 32">
    <g fill="none" fill-rule="evenodd">
        <path stroke="#72C71C" stroke-linecap="round" stroke-width="1.32" d="M16.419 3.333c5.248 0 9.981 3.074 11.999 7.794 2.018 4.72.925 10.16-2.772 13.79l-1.17-1.14-.532.52v4.147h4.257l.532-.518-1.15-1.122c4.478-4.393 5.805-10.98 3.363-16.697-2.442-5.716-8.173-9.44-14.527-9.44M16.419 28.667c-5.248 0-9.981-3.074-11.999-7.794-2.018-4.72-.925-10.16 2.772-13.79l1.17 1.14.532-.52V3.557H4.637l-.532.518 1.15 1.122C.778 9.589-.55 16.176 1.893 21.893c2.442 5.716 8.173 9.44 14.527 9.44"/>
        <path stroke="#72C71C" stroke-width="1.32" d="M18.7 14.333v-1.666h-3.421c-.945 0-1.71.746-1.71 1.666 0 .442.18.866.5 1.179.321.312.756.488 1.21.488h2.28c.945 0 1.71.746 1.71 1.667 0 .92-.765 1.666-1.71 1.666h-3.42v-1.666M16.419 10.667v10.666"/>
        <ellipse cx="16.419" cy="16" stroke="#72C71C" stroke-width="1.32" rx="8.894" ry="8.667"/>
        <g fill="#72C71C" fill-rule="nonzero" transform="translate(17.787 28)">
            <ellipse cx=".684" cy=".667" rx="1" ry="1"/>
            <ellipse cx=".684" cy="3.333" rx="1" ry="1"/>
        </g>
        <g fill="#72C71C" fill-rule="nonzero" transform="translate(13.682)">
            <ellipse cx=".684" cy=".667" rx="1" ry="1"/>
            <ellipse cx=".684" cy="3.333" rx="1" ry="1"/>
        </g>
    </g>
</svg>
