<svg xmlns="http://www.w3.org/2000/svg" xmlns:xlink="http://www.w3.org/1999/xlink" width="60" height="60" viewBox="0 0 60 60">
    <defs>
        <rect id="a" width="60" height="60" rx="11.25"/>
    </defs>
    <g fill="none" fill-rule="evenodd">
        <g>
            <use fill="#FFF" xlink:href="#a"/>
            <rect width="58" height="58" x="1" y="1" stroke="#B3A2D8" stroke-width="2" rx="11.25"/>
        </g>
        <g fill="#B3A2D8" fill-rule="nonzero">
            <path d="M19.708 43.667a3.92 3.92 0 0 1-3.958-3.959v-1.583a3.92 3.92 0 0 1 3.958-3.958 3.92 3.92 0 0 1 3.959 3.958v1.583a3.92 3.92 0 0 1-3.959 3.959zm0-7.917c-1.345 0-2.375 1.03-2.375 2.375v1.583c0 1.346 1.03 2.375 2.375 2.375 1.346 0 2.375-1.029 2.375-2.375v-1.583c0-1.346-1.029-2.375-2.375-2.375z"/>
            <path d="M11.792 50c-.475 0-.792-.317-.792-.792v-.316a4 4 0 0 1 2.375-3.642l3.958-1.425v-.95c0-.475.317-.792.792-.792.475 0 .792.317.792.792v2.138l-4.909 1.741c-.791.317-1.425 1.188-1.425 2.138v.316c0 .475-.316.792-.791.792zM27.625 50c-.475 0-.792-.317-.792-.792v-.316c0-.95-.554-1.821-1.425-2.217L20.5 45.013v-2.138c0-.475.317-.792.792-.792.475 0 .791.317.791.792v1.03l3.88 1.345c1.504.633 2.454 2.058 2.454 3.642v.316c0 .475-.317.792-.792.792z"/>
            <path d="M33.958 50c-.079 0-.237 0-.316-.08-.317-.078-.475-.395-.475-.712v-2.375h-3.959c-.475 0-.791-.316-.791-.791 0-.475.316-.792.791-.792h4.75c.475 0 .792.317.792.792v1.266l1.82-1.82a.719.719 0 0 1 .555-.238h10.292V33.375H12.583v10.292c0 .475-.316.791-.791.791-.475 0-.792-.316-.792-.791V33.375c0-.87.713-1.583 1.583-1.583h34.834c.87 0 1.583.712 1.583 1.583V45.25c0 .87-.712 1.583-1.583 1.583h-9.975l-3.009 2.93c-.079.158-.316.237-.475.237zM40.292 23.875a3.92 3.92 0 0 1-3.959-3.958v-1.584a3.92 3.92 0 0 1 3.959-3.958 3.92 3.92 0 0 1 3.958 3.958v1.584a3.92 3.92 0 0 1-3.958 3.958zm0-7.917c-1.346 0-2.375 1.03-2.375 2.375v1.584c0 1.345 1.029 2.375 2.375 2.375 1.345 0 2.375-1.03 2.375-2.375v-1.584c0-1.345-1.03-2.375-2.375-2.375z"/>
            <path d="M48.208 30.208c-.475 0-.791-.316-.791-.791V29.1c0-.95-.555-1.82-1.425-2.217l-4.909-1.662v-2.138c0-.475.317-.791.792-.791.475 0 .792.316.792.791v1.03l3.879 1.345C48.05 26.092 49 27.517 49 29.1v.317c0 .475-.317.791-.792.791zM32.375 30.208c-.475 0-.792-.316-.792-.791V29.1a4 4 0 0 1 2.375-3.642l3.959-1.345v-1.03c0-.475.316-.791.791-.791.475 0 .792.316.792.791v2.138l-4.908 1.742c-.792.316-1.425 1.187-1.425 2.137v.317c0 .475-.317.791-.792.791z"/>
            <path d="M26.042 30.208a.719.719 0 0 1-.555-.237l-2.929-2.93h-9.975c-.87 0-1.583-.712-1.583-1.583V13.583c0-.87.713-1.583 1.583-1.583h34.834c.87 0 1.583.713 1.583 1.583v10.292c0 .475-.317.792-.792.792-.475 0-.791-.317-.791-.792V13.583H12.583v11.875h10.292c.238 0 .396.08.554.238l1.821 1.82V26.25c0-.475.317-.792.792-.792h4.75c.475 0 .791.317.791.792 0 .475-.316.792-.791.792h-3.959v2.375c0 .316-.158.633-.475.712-.079.08-.158.08-.316.08zM32.375 38.125c.475 0 .792.317.792.792 0 .475-.317.791-.792.791-.475 0-.792-.316-.792-.791 0-.475.317-.792.792-.792zM30 38.125c.475 0 .792.317.792.792 0 .475-.317.791-.792.791-.475 0-.792-.316-.792-.791 0-.475.317-.792.792-.792zM27.625 38.125c.475 0 .792.317.792.792 0 .475-.317.791-.792.791-.475 0-.792-.316-.792-.791 0-.475.317-.792.792-.792z"/>
            <path d="M32.375 19.125c.475 0 .792.317.792.792 0 .475-.317.791-.792.791-.475 0-.792-.316-.792-.791 0-.475.317-.792.792-.792zM30 19.125c.475 0 .792.317.792.792 0 .475-.317.791-.792.791-.475 0-.792-.316-.792-.791 0-.475.317-.792.792-.792zM27.625 19.125c.475 0 .792.317.792.792 0 .475-.317.791-.792.791-.475 0-.792-.316-.792-.791 0-.475.317-.792.792-.792z"/>
        </g>
    </g>
</svg>
