<?xml version="1.0" encoding="UTF-8"?>
<svg width="11px" height="15px" viewBox="0 0 11 15" version="1.1" xmlns="http://www.w3.org/2000/svg" xmlns:xlink="http://www.w3.org/1999/xlink">
    <!-- Generator: sketchtool 49 (51002) - http://www.bohemiancoding.com/sketch -->
    <title>DEEC4BDD-0421-41AB-BA0B-7E7B7EAFFA45</title>
    <desc>Created with sketchtool.</desc>
    <defs></defs>
    <g id="customer-page-(corrected-design)" stroke="none" stroke-width="1" fill="none" fill-rule="evenodd">
        <g id="Customer-Page-(original-size)" transform="translate(-15.000000, -282.000000)">
            <g id="Group-2" transform="translate(-195.000000, 0.000000)">
                <g id="customer-photo" transform="translate(195.000000, 68.000000)">
                    <g id="Group-64" transform="translate(14.000000, 214.000000)">
                        <g id="ic-birthday">
                            <polygon id="Shape" points="0 0 13.2353741 0 13.2353741 16 0 16"></polygon>
                            <path d="M6.61768707,4 C7.22706576,4 7.72063492,3.40333333 7.72063492,2.66666667 C7.72063492,2.41666667 7.66273016,2.18 7.56346485,1.98 L6.61768707,0 L5.6719093,1.98 C5.57264399,2.18 5.51473923,2.41666667 5.51473923,2.66666667 C5.51473923,3.40333333 6.00830839,4 6.61768707,4 Z M9.15170975,10.6566667 L8.55887528,9.94 L7.96328345,10.6566667 C7.24360998,11.5266667 5.98624943,11.5266667 5.26657596,10.6566667 L4.6737415,9.94 L4.07814966,10.6566667 C3.72244898,11.0933333 3.24542404,11.3333333 2.73531066,11.3333333 C2.33549206,11.3333333 1.96324717,11.18 1.65442177,10.9233333 L1.65442177,14 C1.65442177,14.3666667 1.90258503,14.6666667 2.20589569,14.6666667 L11.0294785,14.6666667 C11.3327891,14.6666667 11.5809524,14.3666667 11.5809524,14 L11.5809524,10.9233333 C11.272127,11.18 10.9026395,11.3333333 10.5000635,11.3333333 C9.98995011,11.3333333 9.51292517,11.0933333 9.15170975,10.6566667 Z M9.92653061,6 L7.169161,6 L7.169161,4.66666667 L6.06621315,4.66666667 L6.06621315,6 L3.30884354,6 C2.3961542,6 1.65442177,6.89666667 1.65442177,8 L1.65442177,9.02666667 C1.65442177,9.74666667 2.13971882,10.3333333 2.73531066,10.3333333 C3.02483447,10.3333333 3.29505669,10.1966667 3.49910204,9.95 L4.67925624,8.52666667 L5.85665306,9.94666667 C6.26474376,10.44 6.97614512,10.44 7.38423583,9.94666667 L8.56439002,8.52666667 L9.74178685,9.94666667 C9.9458322,10.1933333 10.2160544,10.33 10.5055782,10.33 C11.1011701,10.33 11.5864671,9.74333333 11.5864671,9.02333333 L11.5864671,8 C11.5809524,6.89666667 10.83922,6 9.92653061,6 Z" id="Shape" fill="#C7B9E4" fill-rule="nonzero"></path>
                        </g>
                    </g>
                </g>
            </g>
        </g>
    </g>
</svg>