<svg xmlns="http://www.w3.org/2000/svg" id="ic_clients_management" width="140" height="140" viewBox="0 0 140 140">
    <defs>
        <style>
            .cls-1{fill:url(#linear-gradient)}.cls-2{fill:url(#linear-gradient-2)}.cls-3{fill:#e5bfa3}.cls-4{fill:#f9d6b9}.cls-5{fill:#c98847}.cls-6{fill:#ba773a}.cls-7{fill:#5c5e70}.cls-8{fill:#494b5b}.cls-9{fill:url(#linear-gradient-3)}.cls-10{fill:#f4a14e}.cls-11{fill:#e28d40}.cls-12{fill:url(#linear-gradient-4)}.cls-13{fill:url(#linear-gradient-5)}.cls-14{fill:url(#linear-gradient-6)}
        </style>
        <linearGradient id="linear-gradient" x1=".84" x2=".5" y1=".139" y2="1" gradientUnits="objectBoundingBox">
            <stop offset="0" stop-color="#be95ff"/>
            <stop offset="1" stop-color="#4f2da7"/>
        </linearGradient>
        <linearGradient id="linear-gradient-2" x1=".661" x2=".5" y1=".051" y2="1" gradientUnits="objectBoundingBox">
            <stop offset="0" stop-color="#16f29e"/>
            <stop offset="1" stop-color="#00636e"/>
        </linearGradient>
        <linearGradient id="linear-gradient-3" x1=".674" x2=".5" y1=".088" y2="1" gradientUnits="objectBoundingBox">
            <stop offset="0" stop-color="#ffda00"/>
            <stop offset="1" stop-color="#ff5b41"/>
        </linearGradient>
        <linearGradient id="linear-gradient-4" x1=".851" x2=".5" y1=".077" y2="1" gradientUnits="objectBoundingBox">
            <stop offset="0" stop-color="#ff6fd8"/>
            <stop offset="1" stop-color="#9100ff"/>
        </linearGradient>
        <linearGradient id="linear-gradient-5" x1=".714" x2=".5" y1=".15" y2="1" gradientUnits="objectBoundingBox">
            <stop offset="0" stop-color="#0097fd"/>
            <stop offset="1" stop-color="#1b39b4"/>
        </linearGradient>
        <linearGradient id="linear-gradient-6" x1=".679" x2=".334" y1=".053" y2=".971" gradientUnits="objectBoundingBox">
            <stop offset="0" stop-color="#00ffe0"/>
            <stop offset="1" stop-color="#2f8aaa"/>
        </linearGradient>
    </defs>
    <circle id="Ellipse_165" cx="70" cy="70" r="70" class="cls-1" data-name="Ellipse 165"/>
    <path id="Path_8646" d="M365.828 156.832a17.079 17.079 0 0 1-17.079 17.079h-7.386a17.079 17.079 0 0 1-17.079-17.079 3.535 3.535 0 0 1 1.935-3.152l5.229-2.653a28.91 28.91 0 0 1 9.41-2.9l4.2-.538 1.268.162 2.929.375a28.912 28.912 0 0 1 9.411 2.9l5.229 2.654a3.535 3.535 0 0 1 1.933 3.152z" class="cls-2" data-name="Path 8646" transform="translate(-235.612 -107.235)"/>
    <g id="Group_904" data-name="Group 904" transform="translate(91.608 19.319)">
        <path id="Path_8647" d="M389.608 126.446v6.9a6.423 6.423 0 0 1-6.423 6.423 6.423 6.423 0 0 1-6.423-6.423v-6.9z" class="cls-3" data-name="Path 8647" transform="translate(-365.348 -111.189)"/>
        <circle id="Ellipse_166" cx="3.97" cy="3.97" r="3.97" class="cls-3" data-name="Ellipse 166"/>
        <circle id="Ellipse_167" cx="3.97" cy="3.97" r="3.97" class="cls-3" data-name="Ellipse 167" transform="translate(27.731)"/>
    </g>
    <path id="Path_8648" d="M376.552 39.681l-28.6-1.523v15.954a14.3 14.3 0 0 0 14.3 14.3 14.3 14.3 0 0 0 14.3-14.3V39.681z" class="cls-4" data-name="Path 8648" transform="translate(-252.807 -27.724)"/>
    <path id="Path_8649" d="M353.656 54.111v-15.65l-5.707-.3v15.95a14.3 14.3 0 0 0 14.3 14.3 14.337 14.337 0 0 0 2.853-.285 14.305 14.305 0 0 1-11.446-14.015z" class="cls-3" data-name="Path 8649" transform="translate(-252.806 -27.723)"/>
    <path id="Path_8650" d="M373.669 11.423v7.2a2.12 2.12 0 0 1-2.169 2.12 2.149 2.149 0 0 1-2.072-2.163V17.5a3.125 3.125 0 0 0-3.124-3.124 5.906 5.906 0 0 0-3.7 1.3 7.94 7.94 0 0 1-9.944 0 5.646 5.646 0 0 0-.562-.4l-.007-.005a5.874 5.874 0 0 0-1.172-.561 5.985 5.985 0 0 0-1.965-.331 3.124 3.124 0 0 0-3.122 3.125v1.131a2.121 2.121 0 0 1-4.241 0v-7.2A11.421 11.421 0 0 1 353.008 0h9.239a11.422 11.422 0 0 1 11.422 11.423z" class="cls-5" data-name="Path 8650" transform="translate(-248.184 -.001)"/>
    <path id="Path_8651" d="M360.437 0a11.421 11.421 0 0 0-11.42 11.423v2.951a.529.529 0 0 0-.066 0 3.124 3.124 0 0 0-3.123 3.126v1.128a2.12 2.12 0 1 1-4.24 0v-7.2A11.42 11.42 0 0 1 353.009 0z" class="cls-6" data-name="Path 8651" transform="translate(-248.185)"/>
    <path id="Path_8652" d="M80.08 16.38v32.226l-2.546-1.2v4.946H48.491V48.74l-1.174.62V16.38A16.368 16.368 0 0 1 63.7 0a16.381 16.381 0 0 1 16.38 16.38z" class="cls-7" data-name="Path 8652" transform="translate(-34.379)"/>
    <path id="Path_8653" d="M63.388 52.349l.134.586-10.248-.586-4.783-.274V48.74l-1.174.62V16.38A16.368 16.368 0 0 1 63.7 0s-5.186 2.171-5.609 15.063c-.391 11.729 4.422 33.451 5.297 37.286z" class="cls-8" data-name="Path 8653" transform="translate(-34.378)"/>
    <path id="Path_8654" d="M74.848 159.215a16.059 16.059 0 0 1-16.059 16.06h-6.945a16.06 16.06 0 0 1-16.06-16.06 3.325 3.325 0 0 1 1.82-2.965l1.431-.726a35.978 35.978 0 0 1 16.281-3.895 35.977 35.977 0 0 1 16.282 3.9l1.431.726a3.324 3.324 0 0 1 1.819 2.96z" class="cls-9" data-name="Path 8654" transform="translate(-25.999 -110.169)"/>
    <path id="Path_8655" d="M97.934 132.908v6.132a6.04 6.04 0 0 1-6.039 6.039 6.04 6.04 0 0 1-6.039-6.039v-6.132z" class="cls-3" data-name="Path 8655" transform="translate(-62.379 -96.566)"/>
    <path id="Path_8656" d="M79.819 59.254a18.546 18.546 0 0 1-10.632-4.162v.025a8 8 0 0 1-6.594 6.12v6.747c0 7.427 5.463 13.447 12.2 13.447 6.739 0 12.2-6.021 12.2-13.447v-4.316c-.946-2.275-2.962-4.139-7.174-4.414z" class="cls-4" data-name="Path 8656" transform="translate(-45.473 -40.028)"/>
    <path id="Path_8657" d="M68.765 71.531V59.974a8.041 8.041 0 0 1-6.176 4.81v6.747c0 7.427 5.463 13.447 12.2 13.447a11.154 11.154 0 0 0 3.088-.435c-5.241-1.507-9.112-6.761-9.112-13.012z" class="cls-3" data-name="Path 8657" transform="translate(-45.475 -43.575)"/>
    <path id="Path_8658" d="M377.645 287.457v20.049a70.645 70.645 0 0 1-15.695 15.92h-15.891v-3.609l-1.177.62v-32.98a16.357 16.357 0 0 1 16.38-16.38 16.377 16.377 0 0 1 16.383 16.38z" class="cls-10" data-name="Path 8658" transform="translate(-250.578 -196.954)"/>
    <path id="Path_8659" d="M360.954 323.426l.134.586-10.248-.586-4.783-.274v-3.334l-1.174.62v-32.98a16.367 16.367 0 0 1 16.38-16.38s-5.186 2.171-5.608 15.063c-.384 11.728 4.425 33.451 5.299 37.285z" class="cls-11" data-name="Path 8659" transform="translate(-250.579 -196.955)"/>
    <path id="Path_8660" d="M363.82 424.4a70.091 70.091 0 0 1-25.36 17.626 16.008 16.008 0 0 1-5.1-11.74 3.326 3.326 0 0 1 1.82-2.966l1.331-.677.1-.049a35.967 35.967 0 0 1 22.52-3.349q1.071.189 2.131.44a39.17 39.17 0 0 1 2.558.715z" class="cls-12" data-name="Path 8660" transform="translate(-242.204 -307.119)"/>
    <path id="Path_8661" d="M395.5 403.98v6.132a6.039 6.039 0 0 1-6.039 6.039 6.04 6.04 0 0 1-6.039-6.039v-6.132z" class="cls-3" data-name="Path 8661" transform="translate(-278.58 -293.516)"/>
    <path id="Path_8662" d="M377.385 330.326a18.546 18.546 0 0 1-10.632-4.162v.025a8 8 0 0 1-6.594 6.12v6.747c0 7.427 5.463 13.447 12.2 13.447 6.74 0 12.2-6.021 12.2-13.447v-4.316c-.944-2.275-2.959-4.14-7.174-4.414z" class="cls-4" data-name="Path 8662" transform="translate(-261.674 -236.978)"/>
    <path id="Path_8663" d="M366.332 342.6v-11.553a8.041 8.041 0 0 1-6.176 4.81v6.743c0 7.427 5.463 13.447 12.2 13.447a11.156 11.156 0 0 0 3.088-.435c-5.244-1.503-9.112-6.757-9.112-13.012z" class="cls-3" data-name="Path 8663" transform="translate(-261.675 -240.526)"/>
    <path id="Path_8665" d="M98.083 423.57a17.036 17.036 0 0 1-6 13 70.118 70.118 0 0 1-27.734-19.12 28.927 28.927 0 0 1 6.537-2.2c.734-.154 1.48-.28 2.226-.377l2.443-.311 1.754-.226 1.268.163.477.06h.006l2.446.311c.749.1 1.489.22 2.226.377a28.87 28.87 0 0 1 7.186 2.517l5.229 2.654a3.537 3.537 0 0 1 1.936 3.152z" class="cls-13" data-name="Path 8665" transform="translate(-46.753 -301.038)"/>
    <g id="Group_905" data-name="Group 905" transform="translate(12.722 92.256)">
        <path id="Path_8666" d="M101.107 393.183v6.9a6.423 6.423 0 0 1-6.423 6.423 6.423 6.423 0 0 1-6.423-6.423v-6.9z" class="cls-3" data-name="Path 8666" transform="translate(-76.849 -377.928)"/>
        <circle id="Ellipse_168" cx="3.97" cy="3.97" r="3.97" class="cls-3" data-name="Ellipse 168"/>
        <circle id="Ellipse_169" cx="3.97" cy="3.97" r="3.97" class="cls-3" data-name="Ellipse 169" transform="translate(27.731)"/>
    </g>
    <path id="Path_8667" d="M88.051 306.418l-28.6-1.522v15.954a14.3 14.3 0 0 0 14.3 14.3 14.3 14.3 0 0 0 14.3-14.3v-14.432z" class="cls-4" data-name="Path 8667" transform="translate(-43.193 -221.526)"/>
    <path id="Path_8668" d="M65.156 320.849V305.2l-5.707-.3v15.954a14.3 14.3 0 0 0 14.3 14.3 14.357 14.357 0 0 0 2.853-.285 14.305 14.305 0 0 1-11.446-14.02z" class="cls-3" data-name="Path 8668" transform="translate(-43.193 -221.525)"/>
    <path id="Path_8669" d="M85.168 278.159v7.2A2.12 2.12 0 0 1 83 287.483a2.149 2.149 0 0 1-2.072-2.163v-1.089a3.125 3.125 0 0 0-3.124-3.124 5.906 5.906 0 0 0-3.7 1.3 7.94 7.94 0 0 1-9.944 0 5.665 5.665 0 0 0-.562-.4l-.012-.007a5.873 5.873 0 0 0-1.172-.561 5.985 5.985 0 0 0-1.965-.331 3.124 3.124 0 0 0-3.122 3.125v1.131a2.121 2.121 0 0 1-4.241 0v-7.2a11.421 11.421 0 0 1 11.421-11.422h9.239a11.422 11.422 0 0 1 11.422 11.417z" class="cls-5" data-name="Path 8669" transform="translate(-38.57 -193.801)"/>
    <path id="Path_8670" d="M71.936 266.734a11.421 11.421 0 0 0-11.42 11.423v2.952a.521.521 0 0 0-.066 0 3.124 3.124 0 0 0-3.123 3.126v1.128a2.12 2.12 0 0 1-4.24 0v-7.2a11.421 11.421 0 0 1 11.42-11.423z" class="cls-6" data-name="Path 8670" transform="translate(-38.572 -193.799)"/>
    <path id="Path_8704" d="M186.477 185.307a15.5 15.5 0 1 0 15.5 15.5 15.518 15.518 0 0 0-15.5-15.5zm9.441 12.281l-10.128 10.129a2.609 2.609 0 0 1-3.69 0l-5.064-5.064a2.609 2.609 0 0 1 3.69-3.69l3.22 3.22 8.284-8.284a2.609 2.609 0 0 1 3.69 3.69z" class="cls-14" data-name="Path 8704" transform="translate(-116.245 -126.373)"/>
</svg>
