<?xml version="1.0" encoding="UTF-8"?>
<svg width="26px" height="20px" viewBox="0 0 26 20" version="1.1" xmlns="http://www.w3.org/2000/svg" xmlns:xlink="http://www.w3.org/1999/xlink">
    <!-- Generator: sketchtool 49 (51002) - http://www.bohemiancoding.com/sketch -->
    <title>6719FBA9-1801-4DD1-9B49-7E66C5BA534B</title>
    <desc>Created with sketchtool.</desc>
    <defs></defs>
    <g id="customer-page-(corrected-design)" stroke="none" stroke-width="1" fill="none" fill-rule="evenodd">
        <g id="Customer-Page-(original-size)" transform="translate(-268.000000, -358.000000)">
            <g id="Group-2" transform="translate(-195.000000, 0.000000)">
                <g id="quick-links" transform="translate(195.000000, 327.000000)">
                    <g id="debts" transform="translate(251.000000, 11.000000)">
                        <g id="ic-debts" transform="translate(15.000000, 15.000000)">
                            <polygon id="Shape" points="0 0 30 0 30 30 0 30"></polygon>
                            <path d="M13.75,21.25 L16.25,21.25 L16.25,20 L17.5,20 C18.1875,20 18.75,19.4375 18.75,18.75 L18.75,15 C18.75,14.3125 18.1875,13.75 17.5,13.75 L13.75,13.75 L13.75,12.5 L18.75,12.5 L18.75,10 L16.25,10 L16.25,8.75 L13.75,8.75 L13.75,10 L12.5,10 C11.8125,10 11.25,10.5625 11.25,11.25 L11.25,15 C11.25,15.6875 11.8125,16.25 12.5,16.25 L16.25,16.25 L16.25,17.5 L11.25,17.5 L11.25,20 L13.75,20 L13.75,21.25 Z M25,5 L5,5 C3.61875,5 2.5125,6.11875 2.5125,7.5 L2.5,22.5 C2.5,23.88125 3.61875,25 5,25 L25,25 C26.38125,25 27.5,23.88125 27.5,22.5 L27.5,7.5 C27.5,6.11875 26.38125,5 25,5 Z M26.25,23.75 L3.75,23.75 L3.75,6.25 L26.25,6.25 L26.25,23.75 Z" id="Shape" fill="#FFFFFF" fill-rule="nonzero"></path>
                        </g>
                    </g>
                </g>
            </g>
        </g>
    </g>
</svg>