<?xml version="1.0" encoding="UTF-8"?>
<svg width="10px" height="10px" viewBox="0 0 10 10" version="1.1" xmlns="http://www.w3.org/2000/svg" xmlns:xlink="http://www.w3.org/1999/xlink">
    <!-- Generator: sketchtool 49 (51002) - http://www.bohemiancoding.com/sketch -->
    <title>B5E3EF0C-CB7C-4209-BC9E-AC5EAA00131C</title>
    <desc>Created with sketchtool.</desc>
    <defs></defs>
    <g id="customer-page-(corrected-design)" stroke="none" stroke-width="1" fill="none" fill-rule="evenodd">
        <g id="Customer-Page" transform="translate(-557.000000, -1149.000000)" fill-rule="nonzero">
            <g id="2.close-Q" transform="translate(45.000000, 1009.000000)">
                <g id="card-3" transform="translate(498.000000, 60.000000)">
                    <g id="Group-31">
                        <g id="ic-day" transform="translate(14.000000, 80.000000)">
                            <path d="M9.166625,0.416625 L7.916625,0.416625 L7.916625,0 L7.083375,0 L7.083375,0.416625 L2.916625,0.416625 L2.916625,0 L2.083375,0 L2.083375,0.416625 L0.833375,0.416625 C0.375125,0.416625 0,0.791875 0,1.25 L0,2.083375 L10,2.083375 L10,1.25 C10,0.791875 9.624875,0.416625 9.166625,0.416625 Z" id="Shape" fill="#E5DEF2"></path>
                            <path d="M0,2.916625 L0,9.166625 C0,9.624875 0.375125,10 0.833375,10 L9.166625,10 C9.624875,10 10,9.624875 10,9.166625 L10,2.916625 L0,2.916625 Z M4.166625,8.75 L3.333375,8.75 L3.333375,5 L2.5,5 L2.5,4.166625 L4.166625,4.166625 L4.166625,8.75 Z M7.499625,5.416625 C7.499625,5.76175 7.359625,6.07425 7.133375,6.300375 L5.9545,7.478875 L5.954875,7.479625 C5.873625,7.561 5.83275,7.667625 5.8325,7.77425 L5.8325,7.916625 L7.5,7.916625 L7.5,8.75 L4.99999914,8.75 L5,7.77425 C4.999625,7.454375 5.12175,7.134625 5.365875,6.8905 L6.544625,5.71125 C6.62,5.635625 6.666375,5.532125 6.666375,5.416625 L6.66675,5.416625 C6.666625,5.186375 6.480375,5 6.25,5 C6.019625,5 5.833375,5.186375 5.833375,5.416625 L5,5.416625 C5,4.7265 5.559875,4.166625 6.25,4.166625 C6.940125,4.166625 7.5,4.7265 7.5,5.416625 L7.499125,5.416625 L7.499625,5.416625 Z" id="Shape" fill="#C8C8E8"></path>
                        </g>
                    </g>
                </g>
            </g>
        </g>
    </g>
</svg>