<svg xmlns="http://www.w3.org/2000/svg" id="ic_facebook" width="15" height="30" viewBox="0 0 15 30">
    <defs>
        <style>
            .cls-1{fill:#fff}
        </style>
    </defs>
    <path id="XMLID_835_" d="M77.182 15.978h3.255v13.538a.481.481 0 0 0 .479.484h5.519a.481.481 0 0 0 .479-.484V16.042h3.742a.481.481 0 0 0 .476-.429l.568-4.984a.487.487 0 0 0-.118-.377.477.477 0 0 0-.357-.162h-4.31V6.966c0-.942.5-1.419 1.492-1.419h2.818a.481.481 0 0 0 .479-.484V.487a.481.481 0 0 0-.48-.487h-4.062A7.4 7.4 0 0 0 82.3 1.853a5.189 5.189 0 0 0-1.7 4.583v3.654h-3.418a.481.481 0 0 0-.479.484v4.92a.481.481 0 0 0 .479.484z" class="cls-1" transform="translate(-76.703)"/>
</svg>
