<?xml version="1.0" encoding="UTF-8"?>
<svg width="36px" height="36px" viewBox="0 0 36 36" version="1.1" xmlns="http://www.w3.org/2000/svg" xmlns:xlink="http://www.w3.org/1999/xlink">
    <!-- Generator: sketchtool 49 (51002) - http://www.bohemiancoding.com/sketch -->
    <title>D54B042E-0BE6-4C19-928E-0290C4F99A30</title>
    <desc>Created with sketchtool.</desc>
    <defs></defs>
    <g id="customer-page-(corrected-design)" stroke="none" stroke-width="1" fill="none" fill-rule="evenodd">
        <g id="Customer-Page-(original-size)" transform="translate(-185.000000, -351.000000)">
            <g id="Group-2" transform="translate(-195.000000, 0.000000)">
                <g id="quick-links" transform="translate(195.000000, 327.000000)">
                    <g id="hair-d" transform="translate(172.000000, 11.000000)">
                        <g id="ic-hair_d" transform="translate(14.000000, 14.000000)">
                            <path d="M8.77421739,33.2765957 L9.27213261,28.6162085 C9.27214633,28.2864067 9.13829409,27.9701083 8.90002351,27.7368992 C8.66175292,27.50369 8.33858311,27.3726747 8.00161174,27.3726766 L4.43847826,27.3726766 C4.01838517,27.4023046 3.60349189,27.2672521 3.28521014,26.9972746 C2.9669284,26.7272971 2.77137461,26.3445474 2.74163435,25.9333553 C2.74153087,25.8949353 2.74143478,24.7619757 2.74143478,24.6890638 C2.72433741,24.3246188 2.54237733,23.9865342 2.24496087,23.7666077 C1.86984108,23.5288676 1.64389263,23.1208294 1.64516391,22.68344 L1.82789913,22.3513468 C2.06791787,21.9151474 2.19355933,21.4274603 2.19355435,20.9320277 L0.397933043,20.6113787 C0.21546054,20.5518633 0.0748212248,20.4079485 0.0221922493,20.2268869 C-0.0304367261,20.0458252 0.0117436244,19.8510076 0.134883913,19.7064 L1.50750826,17.7664106 C1.79494672,17.3706205 2.00127375,16.9240521 2.11507348,16.4514136 C2.17353566,16.1593343 2.20348209,15.862475 2.20450826,15.5648455 L2.2173913,14.4680851" id="Shape" stroke="#FFFFFF" stroke-width="1.625" stroke-linecap="round"></path>
                            <path d="M2.95652174,11.5744681 L2.95652174,13.0212766" id="Shape" stroke="#FFFFFF" stroke-width="1.3824" stroke-linecap="round"></path>
                            <path d="M5.91304348,11.5744681 L5.91304348,13.0212766" id="Shape" stroke="#FFFFFF" stroke-width="1.3824" stroke-linecap="round"></path>
                            <path d="M8.86956522,11.5744681 L8.86956522,13.0212766" id="Shape" stroke="#FFFFFF" stroke-width="1.3824" stroke-linecap="round"></path>
                            <path d="M18.4049687,0.991259149 C16.7882422,0.334691634 15.0547268,-0.00220127436 13.3043478,-1.20471463e-15 C5.95655942,-3.21260962e-16 9.84719552e-16,5.82982411 0,13.0212766" id="Shape" stroke="#FFFFFF" stroke-width="1.625" stroke-linecap="round"></path>
                            <path d="M25.5087217,5.55818255 L25.1094509,5.16740681 L25.5087217,4.7766383 C26.224953,4.07563975 26.4750419,3.03875084 26.1547217,2.09827021 C25.1937959,1.78476538 24.1343659,2.02953328 23.4181283,2.73052553 L23.0188574,3.12130128 L22.6196087,2.73054723 C21.9033638,2.02955708 20.8439311,1.78478988 19.8830004,2.09829191 C19.5627018,3.0387735 19.8127881,4.07565117 20.5290004,4.77666 L20.9282713,5.16743574 L20.5290152,5.55819702 C19.8127861,6.2592027 19.5626979,7.29609426 19.8830152,8.23657957 C20.8439459,8.55008161 21.9033785,8.30531441 22.6196235,7.60432426 L23.0188796,7.21356298 L23.4181504,7.60433872 C24.1343881,8.30533098 25.1938181,8.55009888 26.1547439,8.23659404 C26.4750768,7.29609649 26.2249779,6.25918496 25.5087217,5.55818255 Z" id="Shape" stroke="#FFFFFF" stroke-width="1.3824"></path>
                            <path d="M11.826087,11.5744681 L11.826087,14.296783 C11.8300625,17.0251099 12.9584414,19.6364977 14.9557722,21.5397596 L22.1262243,27.4238502 C23.0867596,28.1165819 23.6533,29.2152198 23.6521756,30.3829787" id="Shape" stroke="#FFFFFF" stroke-width="1.625" stroke-linecap="round"></path>
                            <path d="M20.6956522,26.0425532 L20.6956522,34" id="Shape" stroke="#FFFFFF" stroke-width="1.3824"></path>
                            <path d="M17.7391304,23.8723404 L17.7391304,34" id="Shape" stroke="#FFFFFF" stroke-width="1.625"></path>
                            <ellipse id="Oval" fill="#FFFFFF" fill-rule="nonzero" cx="23.6521739" cy="33.2765957" rx="1" ry="1"></ellipse>
                            <g id="Group" transform="translate(22.173913, 10.127660)" stroke="#FFFFFF" stroke-linecap="round" stroke-width="1.625">
                                <path d="M7.31787174,8.50372553 L2.44848043,13.2695128 C1.87118717,13.834526 1.87118717,14.7505906 2.44848043,15.3156038 C3.02577661,15.8806143 3.96175556,15.8806143 4.53905174,15.3156038 L9.40844304,10.5498166" id="Shape"></path>
                                <path d="M9.40845043,10.5498238 L4.53905913,15.3156111 C3.96176586,15.8806243 3.96176586,16.7966888 4.53905913,17.3617021 C5.11635531,17.9267126 6.05233426,17.9267126 6.62963043,17.3617021 L11.4990217,12.5959149" id="Shape"></path>
                                <path d="M11.4990291,12.5959149 L7.67492348,16.3386566 C7.09763021,16.9036699 7.09763021,17.8197344 7.67492348,18.3847477 C8.25221966,18.9497581 9.18819861,18.9497581 9.76549478,18.3847477 L11.826087,16.3971655" id="Shape"></path>
                                <path d="M3.65936826,12.0843957 L2.64675957,13.0754596 C2.06946339,13.64047 1.13348444,13.64047 0.556188261,13.0754596 C-0.0211050075,12.5104463 -0.0211050075,11.5943818 0.556188261,11.0293685 L6.32801348,5.38035532 C6.51981986,5.18830658 6.62721235,4.93041401 6.62721348,4.66185574 C6.63606426,4.06868901 6.18000606,3.56738563 5.57698304,3.50743277 L3.35242217,3.50743277 C3.05917128,3.5246976 2.76493063,3.49897132 2.47945,3.43110638 C1.80155447,3.20138596 1.38956235,2.52895565 1.50183046,1.83549089 C1.61409857,1.14202613 2.21830318,0.627186224 2.93555261,0.613822979 L11.826087,0.613822979" id="Shape"></path>
                            </g>
                            <path d="M19.9565217,21.0788787 L17,18.0736694" id="Shape" stroke="#FFFFFF" stroke-width="1.3824" stroke-linecap="round"></path>
                            <rect id="Rectangle-path" fill="#FFFFFF" fill-rule="nonzero" transform="translate(15.521728, 16.638305) rotate(-45.009890) translate(-15.521728, -16.638305) " x="14.7826756" y="15.914854" width="1.47810565" height="1.44690255" rx="0.691123968"></rect>
                            <path d="M16.2608696,13.0212766 L21.4347826,18.0851064" id="Shape" stroke="#FFFFFF" stroke-width="1.3824" stroke-linecap="round"></path>
                            <rect id="Rectangle-path" fill="#FFFFFF" fill-rule="nonzero" transform="translate(14.782688, 11.574392) rotate(-45.000000) translate(-14.782688, -11.574392) " x="14.0436355" y="10.8510634" width="1.47810565" height="1.4466566" rx="0.691123968"></rect>
                            <path d="M28.0869565,28.212766 L28.0869565,34" id="Shape" stroke="#FFFFFF" stroke-width="1.3824"></path>
                        </g>
                    </g>
                </g>
            </g>
        </g>
    </g>
</svg>