<?xml version="1.0" encoding="UTF-8"?>
<svg width="20px" height="18px" viewBox="0 0 20 18" version="1.1" xmlns="http://www.w3.org/2000/svg" xmlns:xlink="http://www.w3.org/1999/xlink">
    <!-- Generator: sketchtool 49 (51002) - http://www.bohemiancoding.com/sketch -->
    <title>85D303E5-99C2-476D-964C-D3C3265C5633</title>
    <desc>Created with sketchtool.</desc>
    <defs></defs>
    <g id="customer-page-(corrected-design)" stroke="none" stroke-width="1" fill="none" fill-rule="evenodd">
        <g id="Customer-Page-(original-size)" transform="translate(-322.000000, -35.000000)" fill="#FFFFFF">
            <g id="Group-2" transform="translate(-195.000000, 0.000000)">
                <g id="top" transform="translate(195.000000, 0.000000)">
                    <g id="top-bar-copy-4" transform="translate(0.000000, 20.000000)">
                        <g id="ic-menu" transform="translate(322.000000, 15.000000)">
                            <path d="M11,0 L19,0 C19.5522847,-1.01453063e-16 20,0.44771525 20,1 C20,1.55228475 19.5522847,2 19,2 L11,2 C10.4477153,2 10,1.55228475 10,1 C10,0.44771525 10.4477153,1.01453063e-16 11,0 Z M6,8 L19,8 C19.5522847,8 20,8.44771525 20,9 C20,9.55228475 19.5522847,10 19,10 L6,10 C5.44771525,10 5,9.55228475 5,9 C5,8.44771525 5.44771525,8 6,8 Z M1,16 L19,16 C19.5522847,16 20,16.4477153 20,17 C20,17.5522847 19.5522847,18 19,18 L1,18 C0.44771525,18 6.76353751e-17,17.5522847 0,17 C-6.76353751e-17,16.4477153 0.44771525,16 1,16 Z"></path>
                        </g>
                    </g>
                </g>
            </g>
        </g>
    </g>
</svg>