<?xml version="1.0" encoding="UTF-8"?>
<svg width="16px" height="15px" viewBox="0 0 16 15" version="1.1" xmlns="http://www.w3.org/2000/svg" xmlns:xlink="http://www.w3.org/1999/xlink">
    <!-- Generator: sketchtool 49 (51002) - http://www.bohemiancoding.com/sketch -->
    <title>DC23AFC5-802B-4943-BAB9-0F1A3236C494</title>
    <desc>Created with sketchtool.</desc>
    <defs></defs>
    <g id="customer-page-(corrected-design)" stroke="none" stroke-width="1" fill="none" fill-rule="evenodd" opacity="0.800000012">
        <g id="Customer-Page-(original-size)" transform="translate(-326.000000, -80.000000)" fill="#FFFFFF" fill-rule="nonzero">
            <g id="Group-2" transform="translate(-195.000000, 0.000000)">
                <g id="customer-photo" transform="translate(195.000000, 68.000000)">
                    <g id="ic-photo" transform="translate(319.000000, 5.000000)">
                        <path d="M12.6,7 L17.4,7 L18.864,8.62962963 L21.4,8.62962963 C22.28,8.62962963 23,9.36296296 23,10.2592593 L23,20.037037 C23,20.9333333 22.28,21.6666667 21.4,21.6666667 L8.6,21.6666667 C7.72,21.6666667 7,20.9333333 7,20.037037 L7,10.2592593 C7,9.36296296 7.72,8.62962963 8.6,8.62962963 L11.136,8.62962963 L12.6,7 Z M15,19 C17.208,19 19,17.208 19,15 C19,12.792 17.208,11 15,11 C12.792,11 11,12.792 11,15 C11,17.208 12.792,19 15,19 Z M15,17.8641975 C13.5272407,17.8641975 12.3333333,16.6260714 12.3333333,15.0987654 C12.3333333,13.5714595 13.5272407,12.3333333 15,12.3333333 C16.4727593,12.3333333 17.6666667,13.5714595 17.6666667,15.0987654 C17.6666667,16.6260714 16.4727593,17.8641975 15,17.8641975 Z" id="Combined-Shape"></path>
                    </g>
                </g>
            </g>
        </g>
    </g>
</svg>