<?xml version="1.0" encoding="UTF-8"?>
<svg width="31px" height="33px" viewBox="0 0 31 33" version="1.1" xmlns="http://www.w3.org/2000/svg" xmlns:xlink="http://www.w3.org/1999/xlink">
    <!-- Generator: sketchtool 49 (51002) - http://www.bohemiancoding.com/sketch -->
    <title>ED0B77D7-72E2-4B29-88F7-564EBBD36FB8</title>
    <desc>Created with sketchtool.</desc>
    <defs>
        <path d="M20.1652063,19.55532 L20.1652063,20.860905 L16.6470106,22.1410311 C15.7189927,22.5524966 15.1172898,23.496534 15.1172901,24.5410749 L15.1172901,30 L14.4863006,30 C8.150768,29.9937775 2.55278318,25.7326035 0.661888533,19.4768872 C-1.22900611,13.2211708 1.02511341,6.41971227 6.22851261,2.68045617 C11.4319118,-1.05879993 18.3795033,-0.869856125 23.3858237,3.14705927 C28.3921442,7.16397467 30.2977489,14.0785594 28.0917788,20.2228591" id="path-1"></path>
        <polyline id="path-2" points="15 7 15 14.173913 10 22"></polyline>
        <path d="M6,15 L3,15" id="path-3"></path>
        <path d="M15,2 L15,4" id="path-4"></path>
        <path d="M27,15 L26,15" id="path-5"></path>
    </defs>
    <g id="customer-page-(corrected-design)" stroke="none" stroke-width="1" fill="none" fill-rule="evenodd">
        <g id="Customer-Page-(original-size)" transform="translate(-28.000000, -352.000000)" stroke="#FFFFFF">
            <g id="Group-2" transform="translate(-195.000000, 0.000000)">
                <g id="quick-links" transform="translate(195.000000, 327.000000)">
                    <g id="timeline" transform="translate(14.000000, 11.000000)">
                        <g id="ic-timeline" transform="translate(15.000000, 15.000000)">
                            <g id="Group" transform="translate(18.000000, 12.000000)" stroke-linecap="round">
                                <g transform="translate(1.327660, 0.000000)">
                                    <rect id="Rectangle-path" stroke-width="1.28" transform="translate(2.655319, 3.330996) rotate(-180.000000) translate(-2.655319, -3.330996) " x="0" y="0" width="5.3106383" height="6.66199158" rx="2.56"></rect>
                                    <path d="M3.98297872,6.66199158 L3.98297872,7.9943899 L7.68428119,9.30080645 C8.6605984,9.72072245 9.29361731,10.6841479 9.29361702,11.750141 L9.29361702,17.3211781" id="Shape" stroke-width="1.5"></path>
                                </g>
                                <path d="M7.96595745,14.5906498 L7.96595745,18.5878448" id="Shape" stroke-width="1.28"></path>
                                <path d="M0,14.5906498 L0,18.5878448" id="Shape" stroke-width="1.28"></path>
                            </g>
                            <g id="Shape" stroke-linecap="round" stroke-linejoin="round">
                                <use stroke-width="1.75" xlink:href="#path-1"></use>
                                <use stroke-width="0.64" xlink:href="#path-1"></use>
                            </g>
                            <g id="Shape" stroke-linecap="round" stroke-linejoin="round">
                                <use stroke-width="1.28" xlink:href="#path-2"></use>
                                <use stroke-width="0.64" xlink:href="#path-2"></use>
                            </g>
                            <g id="Shape" stroke-linejoin="round">
                                <use stroke-width="1.28" xlink:href="#path-3"></use>
                                <use stroke-width="0.64" xlink:href="#path-3"></use>
                            </g>
                            <g id="Shape" stroke-linejoin="round">
                                <use stroke-width="1.28" xlink:href="#path-4"></use>
                                <use stroke-width="0.64" xlink:href="#path-4"></use>
                            </g>
                            <g id="Shape" stroke-linejoin="round">
                                <use stroke-width="1.28" xlink:href="#path-5"></use>
                                <use stroke-width="0.64" xlink:href="#path-5"></use>
                            </g>
                        </g>
                    </g>
                </g>
            </g>
        </g>
    </g>
</svg>