<?xml version="1.0" encoding="UTF-8"?>
<svg width="10px" height="10px" viewBox="0 0 10 10" version="1.1" xmlns="http://www.w3.org/2000/svg" xmlns:xlink="http://www.w3.org/1999/xlink">
    <!-- Generator: sketchtool 49 (51002) - http://www.bohemiancoding.com/sketch -->
    <title>0710C8AC-4790-4E32-84C9-FC8484496083</title>
    <desc>Created with sketchtool.</desc>
    <defs></defs>
    <g id="customer-page-(corrected-design)" stroke="none" stroke-width="1" fill="none" fill-rule="evenodd">
        <g id="Customer-Page" transform="translate(-557.000000, -1132.000000)">
            <g id="2.close-Q" transform="translate(45.000000, 1009.000000)">
                <g id="card-3" transform="translate(498.000000, 60.000000)">
                    <g id="Group-31">
                        <g id="ic-time" transform="translate(13.000000, 62.000000)">
                            <path d="M5.9975,1 C3.235,1 1,3.2375 1,6 C1,8.7625 3.235,11 5.9975,11 C8.76,11 11,8.7625 11,6 C11,3.2375 8.76,1 5.9975,1 Z M6,10 C3.79,10 2,8.21 2,6 C2,3.79 3.79,2 6,2 C8.21,2 10,3.79 10,6 C10,8.21 8.21,10 6,10 Z" id="Shape" fill="#C8C8E8" fill-rule="nonzero"></path>
                            <polygon id="Shape" points="0 0 12 0 12 12 0 12"></polygon>
                            <polygon id="Shape" fill="#C8C8E8" fill-rule="nonzero" points="6.25 3.5 5.5 3.5 5.5 6.5 8.1225 8.075 8.5 7.46 6.25 6.125"></polygon>
                        </g>
                    </g>
                </g>
            </g>
        </g>
    </g>
</svg>