<svg xmlns="http://www.w3.org/2000/svg" width="34" height="28" viewBox="0 0 34 28">
    <defs>
        <style>
            .cls-1{fill:#fff}
        </style>
    </defs>
    <g id="ic_twitter" transform="translate(-1679 -7494)">
        <path id="twit_icon" d="M34 51.315a14.381 14.381 0 0 1-4.016 1.116 7.009 7.009 0 0 0 3.066-3.9 13.817 13.817 0 0 1-4.42 1.71A6.942 6.942 0 0 0 23.539 48a7.016 7.016 0 0 0-6.966 7.067 7.37 7.37 0 0 0 .161 1.611 19.644 19.644 0 0 1-14.367-7.39 7.187 7.187 0 0 0-.954 3.571 7.1 7.1 0 0 0 3.1 5.871 6.813 6.813 0 0 1-3.149-.87v.078a7.074 7.074 0 0 0 5.58 6.942 6.869 6.869 0 0 1-1.828.233 6.083 6.083 0 0 1-1.32-.121 7.05 7.05 0 0 0 6.513 4.922 13.887 13.887 0 0 1-8.642 3.013A12.886 12.886 0 0 1 0 72.83 19.433 19.433 0 0 0 10.693 76c12.826 0 19.839-10.769 19.839-20.1a18.1 18.1 0 0 0-.026-.913A14.011 14.011 0 0 0 34 51.315z" class="cls-1" data-name="twit icon" transform="translate(1679 7446)"/>
    </g>
</svg>
