<svg xmlns="http://www.w3.org/2000/svg" xmlns:xlink="http://www.w3.org/1999/xlink" viewBox="0 0 80 80"><defs><style>.cls-1{fill:#f05440;}.cls-2{fill:#fff;fill-rule:evenodd;}</style><symbol id="Mail_icon" data-name="Mail_icon" viewBox="0 0 70 50"><path class="cls-2" d="M60,0H10A10,10,0,0,0,0,10V40A10,10,0,0,0,10,50H60A10,10,0,0,0,70,40V10A10,10,0,0,0,60,0ZM10,4.27H60a5.67,5.67,0,0,1,2,.36L38.68,21.83a6.16,6.16,0,0,1-7.36,0L8.05,4.63A5.67,5.67,0,0,1,10,4.27ZM65.73,40A5.74,5.74,0,0,1,60,45.73H10A5.74,5.74,0,0,1,4.27,40V10a5.67,5.67,0,0,1,.56-2.43l23.95,17.7a10.42,10.42,0,0,0,12.45,0L65.17,7.57A5.67,5.67,0,0,1,65.73,10Z"/></symbol><symbol id="Mail" data-name="Mail" viewBox="0 0 110 110"><circle class="cls-1" cx="55" cy="55" r="55"/><use width="70" height="50" transform="translate(20 30)" xlink:href="#Mail_icon"/></symbol></defs><title>Mail</title><g id="Layer_2" data-name="Layer 2"><g id="Layer_1-2" data-name="Layer 1"><use width="110" height="110" transform="scale(0.73)" xlink:href="#Mail"/></g></g></svg>