<svg xmlns="http://www.w3.org/2000/svg" xmlns:xlink="http://www.w3.org/1999/xlink" width="24" height="24" viewBox="0 0 24 24">
    <defs>
        <path id="a" d="M18.293 4.293a1 1 0 0 1 1.414 1.414l-14 14a1 1 0 1 1-1.414-1.414l14-14zM6.5 10a3.5 3.5 0 1 1 0-7 3.5 3.5 0 0 1 0 7zm0-2a1.5 1.5 0 1 0 0-3 1.5 1.5 0 0 0 0 3zm11 13a3.5 3.5 0 1 1 0-7 3.5 3.5 0 0 1 0 7zm0-2a1.5 1.5 0 1 0 0-3 1.5 1.5 0 0 0 0 3z"/>
    </defs>
    <g fill="none" fill-rule="evenodd">
        <mask id="b" fill="#fff">
            <use xlink:href="#a"/>
        </mask>
        <use fill="#4f2da7" fill-rule="nonzero" xlink:href="#a"/>
        <g fill="#4f2da7" mask="url(#b)">
            <path d="M0 0h24v24H0z"/>
        </g>
    </g>
</svg>
