<?xml version="1.0" encoding="UTF-8"?>
<svg width="38px" height="38px" viewBox="0 0 38 38" version="1.1" xmlns="http://www.w3.org/2000/svg" xmlns:xlink="http://www.w3.org/1999/xlink">
    <!-- Generator: sketchtool 49 (51002) - http://www.bohemiancoding.com/sketch -->
    <title>AE5DEBEC-1E35-4CFF-A6FA-23706C540C35</title>
    <desc>Created with sketchtool.</desc>
    <defs></defs>
    <g id="customer-page-(corrected-design)" stroke="none" stroke-width="1" fill="none" fill-rule="evenodd">
        <g id="Customer-Page" transform="translate(-494.000000, -606.000000)">
            <g id="1.personal-info" transform="translate(249.000000, 489.000000)">
                <g id="ic-sms" transform="translate(245.000000, 117.000000)">
                    <circle id="Oval-4" fill="#FF358C" cx="19" cy="19" r="19"></circle>
                    <path d="M24.5,13 L12.5,13 C11.67125,13 11.0075,13.67125 11.0075,14.5 L11,28 L14,25 L24.5,25 C25.32875,25 26,24.32875 26,23.5 L26,14.5 C26,13.67125 25.32875,13 24.5,13 Z M16.25,19.75 L14.75,19.75 L14.75,18.25 L16.25,18.25 L16.25,19.75 Z M19.25,19.75 L17.75,19.75 L17.75,18.25 L19.25,18.25 L19.25,19.75 Z M22.25,19.75 L20.75,19.75 L20.75,18.25 L22.25,18.25 L22.25,19.75 Z" id="Shape" fill="#FFFFFF" fill-rule="nonzero"></path>
                </g>
            </g>
        </g>
    </g>
</svg>