<svg xmlns="http://www.w3.org/2000/svg" width="20.913" height="20" viewBox="0 0 20.913 20">
    <defs>
        <style>
            .cls-1{fill:#fb873f}
        </style>
    </defs>
    <path id="star" d="M11.467 1.675l2.359 4.779a1.126 1.126 0 0 0 .848.616l5.274.766a1.126 1.126 0 0 1 .624 1.921l-3.817 3.72a1.126 1.126 0 0 0-.324 1l.9 5.253a1.126 1.126 0 0 1-1.631 1.185l-4.717-2.48a1.127 1.127 0 0 0-1.048 0l-4.717 2.48a1.126 1.126 0 0 1-1.634-1.187l.9-5.253a1.126 1.126 0 0 0-.324-1L.342 9.757a1.126 1.126 0 0 1 .624-1.921l5.275-.766a1.126 1.126 0 0 0 .848-.616l2.358-4.779a1.126 1.126 0 0 1 2.02 0z" class="cls-1" transform="translate(0 -1.047)"/>
</svg>
