<svg xmlns="http://www.w3.org/2000/svg" xmlns:xlink="http://www.w3.org/1999/xlink" width="24" height="24" viewBox="0 0 24 24">
    <defs>
        <path id="a" d="M13 4.414V16a1 1 0 0 1-2 0V4.414L8.707 6.707a1 1 0 0 1-1.414-1.414l4-4a1 1 0 0 1 1.414 0l4 4a1 1 0 1 1-1.414 1.414L13 4.414zM2 17a1 1 0 0 1 2 0v3a1 1 0 0 0 1 1h14a1 1 0 0 0 1-1v-3a1 1 0 0 1 2 0v3a3 3 0 0 1-3 3H5a3 3 0 0 1-3-3v-3z"/>
    </defs>
    <g fill="none" fill-rule="evenodd">
        <mask id="b" fill="#fff">
            <use xlink:href="#a"/>
        </mask>
        <use fill="#bfafe0" fill-rule="nonzero" xlink:href="#a"/>
        <g fill="#bfafe0" mask="url(#b)">
            <path d="M0 0h24v24H0z"/>
        </g>
    </g>
</svg>
